<?xml version="1.0" encoding="iso-8859-1"?>

<!DOCTYPE svg PUBLIC "-//W3C//DTD SVG 1.1//EN" "http://www.w3.org/Graphics/SVG/1.1/DTD/svg11.dtd">
<!-- Uploaded to: SVG Repo, www.svgrepo.com, Generator: SVG Repo Mixer Tools -->
<svg version="1.1" id="_x34_" xmlns="http://www.w3.org/2000/svg" xmlns:xlink="http://www.w3.org/1999/xlink" 
	 viewBox="0 0 512 512"  xml:space="preserve">
<g>
	<polygon style="fill:#EFEEEF;" points="474.016,135.427 493.838,135.427 493.838,85.881 256.001,0 18.162,85.881 18.162,135.427 
		37.985,135.427 	"/>
	<polygon style="fill:#E3E1E1;" points="50.81,105.702 256.001,31.602 461.19,105.702 	"/>
	<polygon style="fill:#CBCBCB;" points="270.627,36.883 256.001,31.602 50.81,105.702 80.063,105.702 	"/>
	<polygon style="fill:#CBCBCB;" points="434.38,189.938 444.283,189.938 444.283,170.114 365.004,170.114 365.004,189.938 
		374.914,189.938 	"/>
	<polygon style="fill:#CBCBCB;" points="374.914,402.988 365.004,402.988 365.004,422.81 444.283,422.81 444.283,402.988 
		434.38,402.988 	"/>
	<rect x="374.914" y="189.938" style="fill:#D8D8D9;" width="59.465" height="213.05"/>
	<rect x="226.267" y="189.938" style="fill:#D8D8D9;" width="59.457" height="213.05"/>
	<rect x="77.62" y="189.938" style="fill:#D8D8D9;" width="59.465" height="213.05"/>
	<g>
		<rect x="102.397" y="189.938" style="fill:#CBCBCB;" width="9.912" height="213.05"/>
		<rect x="82.575" y="189.938" style="fill:#CBCBCB;" width="9.919" height="213.05"/>
		<rect x="122.219" y="189.938" style="fill:#CBCBCB;" width="9.912" height="213.05"/>
	</g>
	<g>
		<rect x="251.044" y="189.938" style="fill:#CBCBCB;" width="9.912" height="213.05"/>
		<rect x="231.231" y="189.938" style="fill:#CBCBCB;" width="9.903" height="213.05"/>
		<rect x="270.866" y="189.938" style="fill:#CBCBCB;" width="9.903" height="213.05"/>
	</g>
	<g>
		<rect x="399.693" y="189.938" style="fill:#CBCBCB;" width="9.91" height="213.05"/>
		<rect x="379.878" y="189.938" style="fill:#CBCBCB;" width="9.903" height="213.05"/>
		<rect x="419.515" y="189.938" style="fill:#CBCBCB;" width="9.901" height="213.05"/>
	</g>
	<polygon style="fill:#CBCBCB;" points="285.724,189.938 295.645,189.938 295.645,170.114 216.364,170.114 216.364,189.938 
		226.267,189.938 	"/>
	<polygon style="fill:#CBCBCB;" points="226.267,402.988 216.364,402.988 216.364,422.81 295.645,422.81 295.645,402.988 
		285.724,402.988 	"/>
	<polygon style="fill:#CBCBCB;" points="137.086,189.938 146.996,189.938 146.996,170.114 67.717,170.114 67.717,189.938 
		77.62,189.938 	"/>
	<polygon style="fill:#CBCBCB;" points="77.62,402.988 67.717,402.988 67.717,422.81 146.996,422.81 146.996,402.988 
		137.086,402.988 	"/>
	<g>
		<polygon style="fill:#EFEEEF;" points="37.985,462.446 18.162,462.446 18.162,512 493.838,512 493.838,462.446 474.016,462.446 		
			"/>
		<rect x="37.985" y="422.81" style="fill:#D8D8D9;" width="436.031" height="39.637"/>
	</g>
	<rect x="37.985" y="135.427" style="fill:#D8D8D9;" width="436.031" height="34.687"/>
</g>
</svg>