<svg width="20" height="20" viewBox="0 0 20 20" fill="none" xmlns="http://www.w3.org/2000/svg">
<path d="M18.8086 0L17.207 17.9688L9.98047 20L2.79297 17.9688L1.19141 0H18.8086Z" fill="#DF7100"/>
<path d="M12.7148 10.3125H11.7227V10.2813V8.12109V8.08594H12.9102L13.1055 5.82031H10.5781L11.1484 3.63281H15.5273L14.5508 14.8828L10.0195 16.1328H9.98047L8.87109 15.8281L9.98047 13.8281L12.4414 13.1641L12.7148 10.3125Z" fill="#323330"/>
<path d="M11.1484 3.63281L10.5781 5.82031L9.01953 3.63281H11.1484Z" fill="#323330"/>
<path d="M8.01563 3.63281H4.47266L5.44922 14.8828L8.01563 15.5898L9.13281 13.6016L7.51953 13.1641L7.27344 10.3125H10.9844V8.08984L7.08984 8.08594L6.89453 5.82031H9.44531" fill="#323330"/>
<path opacity="0.3" d="M10.0195 18.4375L15.8398 16.8359L17.207 1.44531H10.0195V18.4375Z" fill="white"/>
</svg>
