<svg width="26" height="26" viewBox="0 0 26 26" fill="none" xmlns="http://www.w3.org/2000/svg">
<g clip-path="url(#clip0_37_11)">
<path fill-rule="evenodd" clip-rule="evenodd" d="M7.52073 16.142C7.58123 16.142 7.63889 16.1534 7.69214 16.174C7.63448 16.2074 7.59536 16.2699 7.59536 16.3414C7.59536 16.4482 7.6819 16.5346 7.78873 16.5346C7.86187 16.5346 7.92535 16.494 7.95826 16.434C7.98139 16.4899 7.99434 16.5512 7.99434 16.6156C7.99434 16.8772 7.78225 17.0893 7.52073 17.0893C7.25921 17.0893 7.04705 16.8772 7.04705 16.6156C7.04705 16.354 7.25921 16.142 7.52073 16.142ZM7.52073 17.4259C7.07394 17.4259 6.71038 17.0624 6.71038 16.6156C6.71038 16.1688 7.07394 15.8054 7.52073 15.8054C7.96746 15.8054 8.33094 16.1688 8.33094 16.6156C8.33094 17.0624 7.96746 17.4259 7.52073 17.4259ZM22.0848 12.1158C19.7838 18.2128 14.5874 20.9286 8.46109 20.9286C5.56642 20.9286 3.25711 19.9329 1.78017 18.2729L1.79105 18.2657C2.2166 18.2872 2.59738 18.2946 2.98393 18.2946C3.33737 18.2946 3.68311 18.2909 4.00332 18.2729C4.03118 18.2713 4.06603 18.2674 4.09369 18.2657C4.09395 18.2656 4.19248 18.2592 4.14428 18.2584C4.95806 18.2082 5.58883 18.0951 6.17704 17.9273C6.17691 17.9273 6.17717 17.9272 6.17704 17.9273C6.28393 17.8967 6.38797 17.8644 6.48728 17.83C6.59838 17.7914 6.6572 17.6701 6.61872 17.559C6.58024 17.4479 6.45903 17.3889 6.34787 17.4276C5.60075 17.6865 4.61511 17.829 3.40714 17.8557C2.7925 17.8693 2.12027 17.8531 1.39155 17.8063C1.2408 17.605 1.1012 17.3959 0.973582 17.1792L0.771854 16.8104C0.162395 15.6122 -0.104437 14.2125 0.0371736 12.6924H17.7629C19.2191 12.6924 20.6413 12.1489 21.3161 11.5494C20.1068 10.5661 20.2267 8.23046 20.9974 7.33921C21.6664 7.87669 22.745 9.00887 22.5595 10.4501C23.4012 10.027 24.8632 9.81785 26 10.4739C25.2862 11.8671 23.7173 12.2833 22.0848 12.1158ZM2.44301 12.2622H4.84003V9.86502H2.44301V12.2622ZM5.20876 12.2622H7.60605V9.86502H5.20876V12.2622ZM5.20876 9.49628H7.60605V7.09919H5.20876V9.49628ZM7.97471 12.2622H10.3719V9.86502H7.97471V12.2622ZM7.97471 9.49628H10.3719V7.09919H7.97471V9.49628ZM10.7405 12.2622H13.1377V9.86502H10.7405V12.2622ZM10.7405 9.49628H13.1377V7.09919H10.7405V9.49628ZM10.7405 6.73053H13.1377V4.33337H10.7405V6.73053ZM13.5064 12.2622H15.9035V9.86502H13.5064V12.2622Z" fill="#0DB7ED"/>
</g>
<defs>
<clipPath id="clip0_37_11">
<rect width="26" height="26" fill="white"/>
</clipPath>
</defs>
</svg>
