<svg width="290" height="241" viewBox="0 0 290 241" fill="none" xmlns="http://www.w3.org/2000/svg">
<rect x="230" width="60" height="20" rx="10" fill="white"/>
<path d="M241.13 15V4.81818H242.667V9.2429H247.743V4.81818H249.284V15H247.743V10.5604H242.667V15H241.13ZM251.019 6.14062V4.81818H258.899V6.14062H255.722V15H254.191V6.14062H251.019ZM260.64 4.81818H262.504L265.746 12.733H265.865L269.107 4.81818H270.971V15H269.509V7.6321H269.415L266.412 14.9851H265.199L262.196 7.62713H262.102V15H260.64V4.81818ZM273.205 15V4.81818H274.741V13.6776H279.354V15H273.205Z" fill="#40C18A"/>
<rect x="230" y="110" width="60" height="20" rx="10" fill="white"/>
<path d="M255.418 118.129H253.867C253.807 117.798 253.696 117.506 253.534 117.254C253.371 117.002 253.173 116.789 252.937 116.613C252.702 116.437 252.438 116.305 252.147 116.215C251.858 116.126 251.552 116.081 251.227 116.081C250.64 116.081 250.115 116.228 249.651 116.523C249.19 116.818 248.826 117.251 248.557 117.821C248.292 118.391 248.16 119.087 248.16 119.909C248.16 120.738 248.292 121.437 248.557 122.007C248.826 122.577 249.192 123.008 249.656 123.3C250.12 123.591 250.642 123.737 251.222 123.737C251.544 123.737 251.848 123.694 252.137 123.608C252.428 123.518 252.692 123.388 252.927 123.215C253.163 123.043 253.361 122.832 253.524 122.584C253.69 122.332 253.804 122.044 253.867 121.719L255.418 121.724C255.335 122.224 255.174 122.685 254.936 123.106C254.7 123.523 254.397 123.885 254.026 124.19C253.658 124.491 253.237 124.725 252.763 124.891C252.289 125.056 251.772 125.139 251.212 125.139C250.33 125.139 249.545 124.93 248.856 124.513C248.166 124.092 247.623 123.49 247.225 122.708C246.83 121.926 246.633 120.993 246.633 119.909C246.633 118.822 246.832 117.889 247.23 117.11C247.628 116.328 248.171 115.728 248.861 115.31C249.55 114.889 250.334 114.679 251.212 114.679C251.752 114.679 252.256 114.757 252.723 114.913C253.194 115.065 253.617 115.29 253.991 115.589C254.366 115.884 254.676 116.245 254.921 116.673C255.166 117.097 255.332 117.582 255.418 118.129ZM262.81 117.493C262.757 117.022 262.538 116.658 262.153 116.399C261.769 116.137 261.285 116.006 260.702 116.006C260.284 116.006 259.923 116.073 259.618 116.205C259.313 116.335 259.076 116.513 258.907 116.742C258.741 116.968 258.658 117.224 258.658 117.513C258.658 117.755 258.715 117.964 258.827 118.139C258.943 118.315 259.094 118.462 259.28 118.582C259.469 118.698 259.671 118.795 259.886 118.875C260.102 118.951 260.309 119.014 260.508 119.064L261.502 119.322C261.827 119.402 262.16 119.51 262.501 119.646C262.843 119.781 263.159 119.96 263.451 120.183C263.743 120.405 263.978 120.68 264.157 121.008C264.339 121.336 264.43 121.729 264.43 122.186C264.43 122.763 264.281 123.275 263.983 123.722C263.688 124.17 263.259 124.523 262.695 124.781C262.135 125.04 261.457 125.169 260.662 125.169C259.9 125.169 259.24 125.048 258.683 124.806C258.126 124.564 257.69 124.221 257.376 123.777C257.061 123.33 256.887 122.799 256.854 122.186H258.395C258.425 122.554 258.544 122.861 258.753 123.106C258.965 123.348 259.235 123.528 259.563 123.648C259.895 123.764 260.257 123.822 260.652 123.822C261.086 123.822 261.472 123.754 261.81 123.618C262.152 123.479 262.42 123.286 262.616 123.041C262.811 122.793 262.909 122.503 262.909 122.171C262.909 121.87 262.823 121.623 262.65 121.43C262.481 121.238 262.251 121.079 261.959 120.953C261.671 120.827 261.345 120.716 260.98 120.62L259.777 120.292C258.962 120.07 258.315 119.743 257.838 119.312C257.364 118.882 257.127 118.312 257.127 117.602C257.127 117.016 257.286 116.504 257.604 116.066C257.922 115.629 258.353 115.289 258.897 115.047C259.44 114.802 260.054 114.679 260.736 114.679C261.426 114.679 262.034 114.8 262.561 115.042C263.091 115.284 263.509 115.617 263.814 116.041C264.119 116.462 264.278 116.946 264.291 117.493H262.81ZM271.819 117.493C271.766 117.022 271.548 116.658 271.163 116.399C270.779 116.137 270.295 116.006 269.711 116.006C269.294 116.006 268.932 116.073 268.628 116.205C268.323 116.335 268.086 116.513 267.917 116.742C267.751 116.968 267.668 117.224 267.668 117.513C267.668 117.755 267.724 117.964 267.837 118.139C267.953 118.315 268.104 118.462 268.29 118.582C268.478 118.698 268.681 118.795 268.896 118.875C269.111 118.951 269.319 119.014 269.517 119.064L270.512 119.322C270.837 119.402 271.17 119.51 271.511 119.646C271.852 119.781 272.169 119.96 272.461 120.183C272.752 120.405 272.988 120.68 273.167 121.008C273.349 121.336 273.44 121.729 273.44 122.186C273.44 122.763 273.291 123.275 272.993 123.722C272.698 124.17 272.268 124.523 271.705 124.781C271.145 125.04 270.467 125.169 269.672 125.169C268.909 125.169 268.25 125.048 267.693 124.806C267.136 124.564 266.7 124.221 266.385 123.777C266.071 123.33 265.897 122.799 265.863 122.186H267.405C267.434 122.554 267.554 122.861 267.763 123.106C267.975 123.348 268.245 123.528 268.573 123.648C268.904 123.764 269.267 123.822 269.662 123.822C270.096 123.822 270.482 123.754 270.82 123.618C271.161 123.479 271.43 123.286 271.625 123.041C271.821 122.793 271.919 122.503 271.919 122.171C271.919 121.87 271.833 121.623 271.66 121.43C271.491 121.238 271.261 121.079 270.969 120.953C270.681 120.827 270.354 120.716 269.99 120.62L268.787 120.292C267.971 120.07 267.325 119.743 266.848 119.312C266.374 118.882 266.137 118.312 266.137 117.602C266.137 117.016 266.296 116.504 266.614 116.066C266.932 115.629 267.363 115.289 267.907 115.047C268.45 114.802 269.063 114.679 269.746 114.679C270.436 114.679 271.044 114.8 271.571 115.042C272.101 115.284 272.519 115.617 272.824 116.041C273.129 116.462 273.288 116.946 273.301 117.493H271.819Z" fill="#40C18A"/>
<rect x="230" y="221" width="60" height="20" rx="10" fill="white"/>
<path d="M256.709 225.818H258.24V233.037C258.24 233.69 258.111 234.248 257.852 234.712C257.597 235.176 257.237 235.531 256.773 235.776C256.309 236.018 255.766 236.139 255.143 236.139C254.569 236.139 254.054 236.035 253.597 235.826C253.143 235.617 252.783 235.314 252.518 234.916C252.256 234.515 252.125 234.028 252.125 233.455H253.651C253.651 233.736 253.716 233.98 253.845 234.185C253.978 234.391 254.158 234.552 254.387 234.668C254.619 234.78 254.884 234.837 255.183 234.837C255.507 234.837 255.782 234.769 256.008 234.633C256.237 234.494 256.411 234.29 256.53 234.021C256.649 233.753 256.709 233.425 256.709 233.037V225.818ZM266.029 228.493C265.976 228.022 265.758 227.658 265.373 227.399C264.989 227.137 264.505 227.006 263.921 227.006C263.504 227.006 263.142 227.073 262.838 227.205C262.533 227.335 262.296 227.513 262.127 227.742C261.961 227.968 261.878 228.224 261.878 228.513C261.878 228.755 261.934 228.964 262.047 229.139C262.163 229.315 262.314 229.462 262.499 229.582C262.688 229.698 262.891 229.795 263.106 229.875C263.321 229.951 263.529 230.014 263.727 230.064L264.722 230.322C265.047 230.402 265.38 230.51 265.721 230.646C266.062 230.781 266.379 230.96 266.671 231.183C266.962 231.405 267.198 231.68 267.377 232.008C267.559 232.336 267.65 232.729 267.65 233.186C267.65 233.763 267.501 234.275 267.203 234.722C266.908 235.17 266.478 235.523 265.915 235.781C265.355 236.04 264.677 236.169 263.882 236.169C263.119 236.169 262.46 236.048 261.903 235.806C261.346 235.564 260.91 235.221 260.595 234.777C260.28 234.33 260.106 233.799 260.073 233.186H261.615C261.644 233.554 261.764 233.861 261.972 234.106C262.185 234.348 262.455 234.528 262.783 234.648C263.114 234.764 263.477 234.822 263.872 234.822C264.306 234.822 264.692 234.754 265.03 234.618C265.371 234.479 265.64 234.286 265.835 234.041C266.031 233.793 266.129 233.503 266.129 233.171C266.129 232.87 266.043 232.623 265.87 232.43C265.701 232.238 265.471 232.079 265.179 231.953C264.891 231.827 264.564 231.716 264.2 231.62L262.997 231.292C262.181 231.07 261.535 230.743 261.058 230.312C260.584 229.882 260.347 229.312 260.347 228.602C260.347 228.016 260.506 227.504 260.824 227.066C261.142 226.629 261.573 226.289 262.117 226.047C262.66 225.802 263.273 225.679 263.956 225.679C264.646 225.679 265.254 225.8 265.781 226.042C266.311 226.284 266.729 226.617 267.034 227.041C267.338 227.462 267.498 227.946 267.511 228.493H266.029Z" fill="#40C18A"/>
<path d="M1 120L229 120.5" stroke="#40C18A" stroke-width="2"/>
<path d="M179 120V120C191.995 120 202.529 109.466 202.529 96.4706V30C202.529 18.9543 211.484 10 222.529 10H229" stroke="#40C18A" stroke-width="2"/>
<path d="M179 121V121C191.995 121 202.529 131.534 202.529 144.529V211C202.529 222.046 211.484 231 222.529 231H229" stroke="#40C18A" stroke-width="2"/>
<path d="M231.707 10.7071C232.098 10.3166 232.098 9.68342 231.707 9.29289L225.343 2.92893C224.953 2.53841 224.319 2.53841 223.929 2.92893C223.538 3.31946 223.538 3.95262 223.929 4.34315L229.586 10L223.929 15.6569C223.538 16.0474 223.538 16.6805 223.929 17.0711C224.319 17.4616 224.953 17.4616 225.343 17.0711L231.707 10.7071ZM230 11H231V9H230V11Z" fill="#40C18A"/>
<path d="M232.707 120.707C233.098 120.317 233.098 119.683 232.707 119.293L226.343 112.929C225.953 112.538 225.319 112.538 224.929 112.929C224.538 113.319 224.538 113.953 224.929 114.343L230.586 120L224.929 125.657C224.538 126.047 224.538 126.681 224.929 127.071C225.319 127.462 225.953 127.462 226.343 127.071L232.707 120.707ZM231 121H232V119H231V121Z" fill="#40C18A"/>
<path d="M231.707 231.707C232.098 231.317 232.098 230.683 231.707 230.293L225.343 223.929C224.953 223.538 224.319 223.538 223.929 223.929C223.538 224.319 223.538 224.953 223.929 225.343L229.586 231L223.929 236.657C223.538 237.047 223.538 237.681 223.929 238.071C224.319 238.462 224.953 238.462 225.343 238.071L231.707 231.707ZM230 232H231V230H230V232Z" fill="#40C18A"/>
</svg>
