<svg width="20" height="20" viewBox="0 0 20 20" fill="none" xmlns="http://www.w3.org/2000/svg">
<path d="M2.79297 17.9688L1.19141 0H18.8086L17.207 17.9688L9.98047 20L2.79297 17.9688Z" fill="#F1DD3F"/>
<path d="M11.1484 3.63281L10.5781 5.82031H13.1055L12.9102 8.08594H9.98047L9.39844 10.3125H12.7148L12.4414 13.1641L9.98047 13.8281L8.57422 13.4492L8.01562 15.5898L9.98047 16.1328H10.0195L14.5508 14.8828L15.5273 3.63281H11.1484Z" fill="#323330"/>
<path d="M7.51953 13.1641L7.27344 10.3125H8.26953L8.85156 8.08594H7.08984L6.89453 5.82031H9.44531L10.0195 3.63281H4.47266L5.44922 14.8828L6.96094 15.3008L7.51953 13.1641Z" fill="#323330"/>
<path opacity="0.3" d="M10.0195 18.4375L15.8398 16.8359L17.207 1.44531H10.0195V18.4375Z" fill="white"/>
</svg>
