<svg width="30" height="30" viewBox="0 0 30 30" fill="none" xmlns="http://www.w3.org/2000/svg">
<path d="M14.7812 15.5613C14.1575 14.5556 13.705 13.7219 13.0781 12.1519C12.0181 9.50001 19.525 7.10376 16.4812 2.49939C17.8006 5.68001 11.7456 7.64626 11.1831 10.295C10.6687 12.7313 14.7781 15.5613 14.7812 15.5613Z" fill="#F44336"/>
<path d="M14.9238 10.7938C14.8038 12.3663 16.3169 13.2044 16.3606 14.3531C16.3956 15.2881 15.4563 16.0675 15.4563 16.0675C15.4563 16.0675 17.1613 15.7325 17.6931 14.3063C18.2838 12.7225 16.5469 11.6381 16.7256 10.37C16.8925 9.15876 20.495 6.90564 20.495 6.90564C20.495 6.90564 15.1944 7.25689 14.9238 10.7938Z" fill="#F44336"/>
<path d="M20.0525 15.6594C21.1488 15.4131 22.0731 16.1113 22.0731 16.9156C22.0731 18.7288 19.56 20.4425 19.56 20.4425C19.56 20.4425 23.4506 19.9788 23.4506 17.0019C23.4506 15.0331 21.54 14.5413 20.0525 15.6594ZM18.2056 17.1219C18.2056 17.1219 19.4188 16.2575 19.7419 15.9331C16.765 16.565 9.96813 16.65 9.96813 16.1013C9.96813 15.5956 12.16 15.0775 12.16 15.0775C12.16 15.0775 7.30188 15.0075 7.30188 16.4406C7.30188 17.9344 13.6613 18.0413 18.2056 17.1219Z" fill="#1565C0"/>
<path d="M17.4594 18.4819C14.6413 19.4188 9.45064 19.1194 10.9881 17.8613C10.2394 17.8613 9.12939 18.4631 9.12939 19.0419C9.12939 20.2025 14.7431 21.0988 18.8981 19.3994L17.4594 18.4819Z" fill="#1565C0"/>
<path d="M11.6788 20.4619C10.6563 20.4619 9.99438 21.1206 9.99438 21.6006C9.99438 23.095 16.0944 23.2456 18.5113 21.7287L16.975 20.7087C15.1694 21.5025 10.6338 21.6119 11.6788 20.4619Z" fill="#1565C0"/>
<path d="M22.6756 22.895C22.6756 22.31 22.0163 22.0344 21.78 21.9025C23.1725 25.2606 7.83188 25 7.83188 23.0175C7.83188 22.5669 8.96125 22.1256 10.005 22.3344L9.1175 21.81C7.0375 21.4838 5.625 22.3981 5.625 23.1356C5.625 26.575 22.6756 26.4094 22.6756 22.895Z" fill="#1565C0"/>
<path d="M24.375 24.1275C21.7837 26.6869 15.2131 27.6194 8.60559 26.0381C15.2131 28.8525 24.3437 27.2675 24.375 24.1275Z" fill="#1565C0"/>
</svg>
