<svg width="25" height="25" viewBox="0 0 25 25" fill="none" xmlns="http://www.w3.org/2000/svg">
<g clip-path="url(#clip0_23_24)">
<path d="M21.25 0H3.75C1.67893 0 0 1.67893 0 3.75V21.25C0 23.3211 1.67893 25 3.75 25H21.25C23.3211 25 25 23.3211 25 21.25V3.75C25 1.67893 23.3211 0 21.25 0Z" fill="#F7DF1E"/>
<path d="M15.8203 18.0664C16.3086 18.8965 16.9922 19.4824 18.1152 19.4824C19.0918 19.4824 19.7266 18.9941 19.7266 18.3105C19.7266 17.5293 19.0918 17.2363 18.0176 16.748L17.4316 16.5039C15.7227 15.7715 14.5996 14.8926 14.5996 12.9883C14.5996 11.2305 15.918 9.86328 18.0176 9.86328C19.5312 9.86328 20.6055 10.4004 21.3379 11.7676L19.5312 12.9395C19.1406 12.207 18.7012 11.9141 18.0176 11.9141C17.334 11.9141 16.8945 12.3535 16.8945 12.9395C16.8945 13.623 17.334 13.916 18.3594 14.3555L18.9453 14.5996C20.9473 15.4785 22.0703 16.3086 22.0703 18.3105C22.0703 20.4102 20.4102 21.582 18.1641 21.582C15.9668 21.582 14.5508 20.5566 13.8672 19.1895L15.8203 18.0664ZM7.51953 18.2617C7.91016 18.8965 8.20312 19.4824 9.0332 19.4824C9.81445 19.4824 10.3027 19.1895 10.3027 18.0176V9.91211H12.6465V17.9199C12.6465 20.3613 11.2305 21.4355 9.13086 21.4355C7.22656 21.4355 6.15234 20.459 5.61523 19.2871L7.51953 18.2617Z" fill="black"/>
</g>
<defs>
<clipPath id="clip0_23_24">
<rect width="25" height="25" fill="white"/>
</clipPath>
</defs>
</svg>
