<?xml version="1.0" encoding="UTF-8"?>
<!DOCTYPE svg PUBLIC "-//W3C//DTD SVG 1.1//EN" "http://www.w3.org/Graphics/SVG/1.1/DTD/svg11.dtd">
<svg xmlns="http://www.w3.org/2000/svg" version="1.1" width="2316px" height="2140px" style="shape-rendering:geometricPrecision; text-rendering:geometricPrecision; image-rendering:optimizeQuality; fill-rule:evenodd; clip-rule:evenodd" xmlns:xlink="http://www.w3.org/1999/xlink">
<g><path style="opacity:0.947" fill="#fefffe" d="M 310.5,100.5 C 310.5,99.8333 310.167,99.5 309.5,99.5C 305.071,96.3188 302.404,91.9855 301.5,86.5C 303.115,78.5381 305.115,70.7048 307.5,63C 304.292,63.398 301.125,64.2313 298,65.5C 295.691,72.0952 293.191,78.5952 290.5,85C 281.956,88.3224 278.123,85.4891 279,76.5C 281,70.5 283,64.5 285,58.5C 286.563,55.2716 289.063,53.1049 292.5,52C 300.167,49.6667 307.833,47.3333 315.5,45C 309.095,33.2905 311.095,23.2905 321.5,15C 335.872,9.2291 346.039,13.3958 352,27.5C 353.748,40.343 348.581,49.0096 336.5,53.5C 339.532,58.0351 342.365,62.7017 345,67.5C 348.427,65.871 351.927,64.371 355.5,63C 363.89,61.725 367.057,65.225 365,73.5C 357.653,78.8392 349.486,81.3392 340.5,81C 337.438,79.9392 334.938,78.1059 333,75.5C 331.36,81.915 329.194,88.0817 326.5,94C 331.621,97.4527 336.454,101.286 341,105.5C 343.132,113.672 344.465,122.006 345,130.5C 346.713,132.193 348.713,133.526 351,134.5C 354.313,142.877 351.479,146.877 342.5,146.5C 338.82,146.941 335.653,145.941 333,143.5C 331.138,133.749 329.638,123.916 328.5,114C 323.008,108.761 317.008,104.261 310.5,100.5 Z"/></g>
<g><path style="opacity:0.919" fill="#fefffe" d="M 309.5,99.5 C 310.167,99.5 310.5,99.8333 310.5,100.5C 312.293,103.259 312.793,106.259 312,109.5C 308.547,114.621 304.714,119.454 300.5,124C 297.594,125.318 294.594,125.652 291.5,125C 286.366,122.031 281.366,118.864 276.5,115.5C 267.644,117.811 264.144,114.477 266,105.5C 267.833,103.667 269.667,101.833 271.5,100C 274.167,99.3333 276.833,99.3333 279.5,100C 284.03,103.362 288.697,106.529 293.5,109.5C 296.325,106.505 298.992,103.338 301.5,100C 304.146,99.5026 306.813,99.3359 309.5,99.5 Z"/></g>
<g><path style="opacity:0.852" fill="#fefffe" d="M 1.5,105.5 C 8.16667,105.5 14.8333,105.5 21.5,105.5C 21.5,107.5 21.5,109.5 21.5,111.5C 17.1667,111.5 12.8333,111.5 8.5,111.5C 8.5,113.5 8.5,115.5 8.5,117.5C 12.5,117.5 16.5,117.5 20.5,117.5C 20.5,119.5 20.5,121.5 20.5,123.5C 16.5,123.5 12.5,123.5 8.5,123.5C 8.5,127.5 8.5,131.5 8.5,135.5C 6.16667,135.5 3.83333,135.5 1.5,135.5C 1.5,125.5 1.5,115.5 1.5,105.5 Z"/></g>
<g><path style="opacity:0.831" fill="#fefffe" d="M 25.5,105.5 C 31.2449,105.211 36.9116,105.711 42.5,107C 44.6667,107.833 46.1667,109.333 47,111.5C 48.426,116.748 47.2594,121.248 43.5,125C 44.777,128.388 46.4436,131.555 48.5,134.5C 45.8333,135.833 43.1667,135.833 40.5,134.5C 39.2533,131.671 37.7533,129.005 36,126.5C 34.9887,125.663 33.8221,125.33 32.5,125.5C 32.5,128.833 32.5,132.167 32.5,135.5C 29.8333,135.5 27.1667,135.5 24.5,135.5C 24.1926,125.418 24.5259,115.418 25.5,105.5 Z M 32.5,111.5 C 36.6507,110.733 39.3174,112.233 40.5,116C 40.2451,117.326 39.5784,118.326 38.5,119C 36.5273,119.495 34.5273,119.662 32.5,119.5C 32.5,116.833 32.5,114.167 32.5,111.5 Z"/></g>
<g><path style="opacity:0.852" fill="#fefffe" d="M 60.5,105.5 C 68.6495,104.257 74.4829,107.257 78,114.5C 79.4323,121.249 78.2656,127.416 74.5,133C 65.5444,138.627 58.0444,137.127 52,128.5C 48.608,118.338 51.4414,110.671 60.5,105.5 Z M 63.5,111.5 C 69.2153,112.052 71.882,115.218 71.5,121C 71.9207,126.005 69.7541,129.171 65,130.5C 58.1267,127.56 56.1267,122.56 59,115.5C 60.3968,113.93 61.8968,112.596 63.5,111.5 Z"/></g>
<g><path style="opacity:0.863" fill="#fefffe" d="M 82.5,105.5 C 84.5273,105.338 86.5273,105.505 88.5,106C 92.4565,111.413 96.2899,116.913 100,122.5C 100.499,116.843 100.666,111.176 100.5,105.5C 102.833,105.5 105.167,105.5 107.5,105.5C 107.5,115.5 107.5,125.5 107.5,135.5C 105.076,135.808 102.743,135.474 100.5,134.5C 97.1947,129.362 93.6947,124.362 90,119.5C 89.5006,124.823 89.334,130.156 89.5,135.5C 87.1667,135.5 84.8333,135.5 82.5,135.5C 82.5,125.5 82.5,115.5 82.5,105.5 Z"/></g>
<g><path style="opacity:0.847" fill="#fefffe" d="M 110.5,105.5 C 118.833,105.5 127.167,105.5 135.5,105.5C 135.5,107.5 135.5,109.5 135.5,111.5C 132.5,111.5 129.5,111.5 126.5,111.5C 126.5,119.5 126.5,127.5 126.5,135.5C 124.167,135.5 121.833,135.5 119.5,135.5C 119.5,127.5 119.5,119.5 119.5,111.5C 116.5,111.5 113.5,111.5 110.5,111.5C 110.5,109.5 110.5,107.5 110.5,105.5 Z"/></g>
<g><path style="opacity:0.841" fill="#fefffe" d="M 138.5,105.5 C 145.175,105.334 151.842,105.5 158.5,106C 159.406,107.699 159.739,109.533 159.5,111.5C 154.833,111.5 150.167,111.5 145.5,111.5C 145.5,113.5 145.5,115.5 145.5,117.5C 149.514,117.334 153.514,117.501 157.5,118C 158.406,119.699 158.739,121.533 158.5,123.5C 154.167,123.5 149.833,123.5 145.5,123.5C 145.5,125.5 145.5,127.5 145.5,129.5C 149.846,129.334 154.179,129.501 158.5,130C 159.406,131.699 159.739,133.533 159.5,135.5C 152.5,135.5 145.5,135.5 138.5,135.5C 138.5,125.5 138.5,115.5 138.5,105.5 Z"/></g>
<g><path style="opacity:0.863" fill="#fefffe" d="M 163.5,105.5 C 165.527,105.338 167.527,105.505 169.5,106C 172.964,111.762 176.797,117.262 181,122.5C 181.499,116.843 181.666,111.176 181.5,105.5C 183.833,105.5 186.167,105.5 188.5,105.5C 188.5,115.5 188.5,125.5 188.5,135.5C 186.143,135.663 183.81,135.497 181.5,135C 178.124,129.747 174.624,124.58 171,119.5C 170.501,124.823 170.334,130.156 170.5,135.5C 168.167,135.5 165.833,135.5 163.5,135.5C 163.5,125.5 163.5,115.5 163.5,105.5 Z"/></g>
<g><path style="opacity:0.858" fill="#fefffe" d="M 192.5,105.5 C 199.838,104.859 206.838,106.025 213.5,109C 216.819,112.311 218.152,116.311 217.5,121C 218.16,127.652 215.494,132.318 209.5,135C 203.843,135.499 198.176,135.666 192.5,135.5C 192.5,125.5 192.5,115.5 192.5,105.5 Z M 199.5,112.5 C 209.834,111.692 213.334,116.359 210,126.5C 207.016,129.1 203.516,130.1 199.5,129.5C 199.5,123.833 199.5,118.167 199.5,112.5 Z"/></g>
<g><path style="opacity:0.848" fill="#fefffe" d="M -0.5,157.5 C 444.167,157.333 888.833,157.5 1333.5,158C 1381.33,167.167 1409.83,195.667 1419,243.5C 1423.16,287.67 1406.66,321.504 1369.5,345C 1358.17,350.999 1346.17,354.999 1333.5,357C 1227.83,357.333 1122.17,357.667 1016.5,358C 967.738,362.428 936.905,388.261 924,435.5C 917.051,485.438 935.884,521.938 980.5,545C 992.002,549.875 1004,552.542 1016.5,553C 1122.17,553.333 1227.83,553.667 1333.5,554C 1378.8,562.297 1406.96,588.797 1418,633.5C 1424.96,680.031 1408.79,715.864 1369.5,741C 1358.17,746.999 1346.17,750.999 1333.5,753C 1227.83,753.333 1122.17,753.667 1016.5,754C 971.543,757.963 941.376,781.129 926,823.5C 915.191,868.747 928.358,905.247 965.5,933C 981.027,942.953 998.027,948.286 1016.5,949C 1122.17,949.333 1227.83,949.667 1333.5,950C 1378.8,958.297 1406.96,984.797 1418,1029.5C 1424.98,1080.04 1406.15,1117.2 1361.5,1141C 1352.52,1144.88 1343.18,1147.55 1333.5,1149C 1227.83,1149.33 1122.17,1149.67 1016.5,1150C 971.543,1153.96 941.376,1177.13 926,1219.5C 915.191,1264.75 928.358,1301.25 965.5,1329C 981.027,1338.95 998.027,1344.29 1016.5,1345C 1122.17,1345.33 1227.83,1345.67 1333.5,1346C 1381.33,1355.17 1409.83,1383.67 1419,1431.5C 1423.16,1475.67 1406.66,1509.5 1369.5,1533C 1360.02,1538.05 1350.02,1541.72 1339.5,1544C 1231.86,1545.32 1124.2,1545.99 1016.5,1546C 971.543,1549.96 941.376,1573.13 926,1615.5C 915.191,1660.75 928.358,1697.25 965.5,1725C 981.027,1734.95 998.027,1740.29 1016.5,1741C 1122.17,1741.33 1227.83,1741.67 1333.5,1742C 1381.33,1751.17 1409.83,1779.67 1419,1827.5C 1423.16,1871.67 1406.66,1905.5 1369.5,1929C 1360.02,1934.05 1350.02,1937.72 1339.5,1940C 1231.86,1941.32 1124.2,1941.99 1016.5,1942C 967.738,1946.43 936.905,1972.26 924,2019.5C 917.32,2061.81 931.154,2095.64 965.5,2121C 981.027,2130.95 998.027,2136.29 1016.5,2137C 1449.5,2137.5 1882.5,2137.67 2315.5,2137.5C 2315.5,2138.17 2315.5,2138.83 2315.5,2139.5C 1878.83,2139.5 1442.17,2139.5 1005.5,2139.5C 957.846,2130.01 929.346,2101.35 920,2053.5C 916.081,2005.49 935.247,1970.33 977.5,1948C 986.484,1944.12 995.817,1941.45 1005.5,1940C 1111.17,1939.67 1216.83,1939.33 1322.5,1939C 1371.26,1934.57 1402.1,1908.74 1415,1861.5C 1421.95,1811.56 1403.12,1775.06 1358.5,1752C 1347,1747.12 1335,1744.46 1322.5,1744C 1216.83,1743.67 1111.17,1743.33 1005.5,1743C 957.667,1733.83 929.167,1705.33 920,1657.5C 916.081,1609.49 935.247,1574.33 977.5,1552C 986.484,1548.12 995.817,1545.45 1005.5,1544C 1111.17,1543.67 1216.83,1543.33 1322.5,1543C 1367.46,1539.04 1397.62,1515.87 1413,1473.5C 1423.81,1428.25 1410.64,1391.75 1373.5,1364C 1357.97,1354.05 1340.97,1348.71 1322.5,1348C 1216.83,1347.67 1111.17,1347.33 1005.5,1347C 960.203,1338.7 932.036,1312.2 921,1267.5C 914.017,1216.96 932.85,1179.8 977.5,1156C 986.484,1152.12 995.817,1149.45 1005.5,1148C 1111.17,1147.67 1216.83,1147.33 1322.5,1147C 1367.46,1143.04 1397.62,1119.87 1413,1077.5C 1423.81,1032.25 1410.64,995.753 1373.5,968C 1357.97,958.047 1340.97,952.714 1322.5,952C 1216.83,951.667 1111.17,951.333 1005.5,951C 957.667,941.833 929.167,913.333 920,865.5C 915.837,821.33 932.337,787.496 969.5,764C 978.985,758.949 988.985,755.283 999.5,753C 1107.14,751.679 1214.8,751.013 1322.5,751C 1367.46,747.037 1397.62,723.871 1413,681.5C 1423.81,636.253 1410.64,599.753 1373.5,572C 1357.97,562.047 1340.97,556.714 1322.5,556C 1216.83,555.667 1111.17,555.333 1005.5,555C 957.667,545.833 929.167,517.333 920,469.5C 915.837,425.33 932.337,391.496 969.5,368C 978.985,362.949 988.985,359.283 999.5,357C 1107.14,355.679 1214.8,355.013 1322.5,355C 1367.46,351.037 1397.62,327.871 1413,285.5C 1423.85,237.711 1409.02,200.211 1368.5,173C 1354.23,164.932 1338.9,160.599 1322.5,160C 881.5,159.5 440.5,159.333 -0.5,159.5C -0.5,158.833 -0.5,158.167 -0.5,157.5 Z"/></g>
</svg>
