<svg width="28" height="6" viewBox="0 0 28 6" fill="none" xmlns="http://www.w3.org/2000/svg">
<g clip-path="url(#clip0_37_2)">
<path d="M18.6135 0.00231934H23.4906V0.902507H21.5559V5.63827H20.5885V0.902507H18.6135V0.00231934Z" fill="white"/>
<path d="M10.5925 0.00231934V0.902507H6.68322V2.35063H9.8271V3.25082H6.68322V4.73809H10.5925V5.63827H5.71586V0.902507H5.71545V0.00231934H10.5925Z" fill="white"/>
<path d="M13.0278 0.00476074H11.7618L16.2963 5.64072H17.5659L15.2984 2.82468L17.5623 0.00906062L16.2963 0.0110171L14.6646 2.0375L13.0278 0.00476074Z" fill="white"/>
<path d="M14.3269 4.03044L13.6929 3.24219L11.7582 5.64491H13.0278L14.3269 4.03044Z" fill="white"/>
<path fill-rule="evenodd" clip-rule="evenodd" d="M5.74974 5.6383L1.2092 0H0V5.63595H0.967357V1.20468L4.53449 5.6383H5.74974Z" fill="white"/>
<path d="M23.7081 5.60393C23.6373 5.60393 23.577 5.5794 23.5266 5.53031C23.4761 5.48122 23.4512 5.4218 23.4518 5.3514C23.4512 5.28294 23.4761 5.22416 23.5266 5.17507C23.577 5.12599 23.6373 5.10144 23.7081 5.10144C23.7763 5.10144 23.8359 5.12599 23.8864 5.17507C23.9375 5.22416 23.963 5.28294 23.9638 5.3514C23.963 5.3979 23.9512 5.44052 23.9277 5.47863C23.9034 5.51739 23.8726 5.54775 23.8339 5.56971C23.7959 5.59231 23.754 5.60393 23.7081 5.60393Z" fill="white"/>
<path d="M25.3592 3.22961H25.7879V4.88114C25.7873 5.03292 25.7544 5.16274 25.6903 5.2719C25.6254 5.38105 25.5355 5.46436 25.4202 5.52314C25.3055 5.58127 25.1711 5.61099 25.0184 5.61099C24.8788 5.61099 24.7536 5.58579 24.6422 5.53671C24.5307 5.48762 24.4423 5.41399 24.3774 5.31711C24.3118 5.22022 24.2797 5.09945 24.2797 4.95477H24.709C24.7097 5.01807 24.7241 5.07296 24.7516 5.11882C24.7791 5.16468 24.8171 5.19955 24.8657 5.2241C24.9148 5.24864 24.9712 5.26092 25.0347 5.26092C25.1036 5.26092 25.1626 5.2467 25.2104 5.21764C25.2582 5.18922 25.295 5.14659 25.3206 5.08975C25.3454 5.03357 25.3586 4.96381 25.3592 4.88114V3.22961Z" fill="white"/>
<path d="M27.5517 3.87553C27.5412 3.77542 27.4953 3.69727 27.4154 3.64172C27.3347 3.58553 27.2305 3.55776 27.1027 3.55776C27.0129 3.55776 26.9356 3.57132 26.8714 3.5978C26.8071 3.62493 26.7573 3.66109 26.7232 3.70695C26.6892 3.75281 26.6721 3.80513 26.6707 3.86391C26.6707 3.91299 26.6825 3.95562 26.7055 3.99114C26.7285 4.02731 26.7592 4.05767 26.7992 4.08222C26.8385 4.1074 26.8825 4.12807 26.9303 4.14486C26.9788 4.16165 27.0274 4.17587 27.0758 4.18749L27.2993 4.24239C27.3892 4.26306 27.4764 4.29084 27.5596 4.32636C27.6428 4.36123 27.7182 4.4058 27.7843 4.45941C27.8506 4.51302 27.903 4.5776 27.9417 4.65317C27.9803 4.72874 28 4.81722 28 4.91927C28 5.05684 27.9646 5.17763 27.8932 5.28226C27.8217 5.38624 27.7188 5.46763 27.5838 5.5264C27.4494 5.58454 27.2869 5.61424 27.0955 5.61424C26.9107 5.61424 26.7494 5.58583 26.6138 5.52899C26.4774 5.4728 26.3712 5.39012 26.2945 5.28161C26.2178 5.17311 26.1766 5.0407 26.1707 4.88504H26.5954C26.6013 4.96642 26.6275 5.03424 26.6721 5.08914C26.7173 5.14339 26.7763 5.18344 26.8484 5.21057C26.9212 5.23705 27.0024 5.25061 27.0922 5.25061C27.186 5.25061 27.2686 5.2364 27.34 5.20863C27.4108 5.18085 27.4665 5.14211 27.5065 5.09173C27.5471 5.04199 27.5675 4.98322 27.5681 4.91605C27.5675 4.85469 27.5491 4.80366 27.5137 4.76361C27.4776 4.72357 27.4278 4.68999 27.3642 4.66286C27.3 4.63573 27.2253 4.61119 27.1401 4.58988L26.8687 4.52141C26.6727 4.47168 26.5174 4.39611 26.404 4.29471C26.29 4.19331 26.2335 4.05896 26.2335 3.89039C26.2335 3.75217 26.2716 3.63075 26.3483 3.52676C26.4243 3.42277 26.5285 3.34203 26.6603 3.28455C26.7927 3.22642 26.9421 3.198 27.1086 3.198C27.2777 3.198 27.4258 3.22642 27.5537 3.28455C27.6814 3.34203 27.7818 3.42213 27.8545 3.52417C27.9273 3.62622 27.9653 3.74312 27.9673 3.87553H27.5517Z" fill="white"/>
</g>
<defs>
<clipPath id="clip0_37_2">
<rect width="28" height="5.68528" fill="white"/>
</clipPath>
</defs>
</svg>
