<svg width="24" height="18" viewBox="0 0 24 18" fill="none" xmlns="http://www.w3.org/2000/svg">
<g clip-path="url(#clip0_30_146)">
<path d="M11.8624 18.0001C11.7831 18.0001 11.7045 17.9746 11.635 17.9257L10.9115 17.4011C10.8034 17.3271 10.8561 17.3009 10.8918 17.2858C11.0359 17.224 11.0651 17.2101 11.2189 17.1031C11.2351 17.0918 11.2562 17.0958 11.2728 17.1078L11.8287 17.5117C11.8487 17.525 11.8772 17.525 11.8958 17.5117L14.0632 15.9796C14.0833 15.9657 14.0963 15.9371 14.0963 15.9079V12.8451C14.0963 12.8145 14.0833 12.7873 14.0628 12.772L11.8963 11.2413C11.8762 11.2267 11.8496 11.2267 11.8295 11.2413L9.66342 12.772C9.64243 12.7866 9.62908 12.8152 9.62908 12.8444V15.9072C9.62908 15.9365 9.6421 15.9644 9.66272 15.9783L10.2562 16.3982C10.5785 16.5955 10.7754 16.363 10.7754 16.1291V13.1062C10.7754 13.063 10.8031 13.0298 10.8384 13.0298H11.1129C11.1471 13.0298 11.1753 13.063 11.1753 13.1062V16.1305C11.1753 16.6566 10.9409 16.9589 10.5335 16.9589C10.4082 16.9589 10.3094 16.9589 10.0338 16.7928L9.46524 16.3916C9.32472 16.2919 9.23792 16.1059 9.23792 15.9072V12.8444C9.23792 12.6451 9.32472 12.4591 9.46524 12.3608L11.6348 10.828C11.7721 10.733 11.9544 10.733 12.0905 10.828L14.2574 12.3614C14.3974 12.4604 14.4847 12.6458 14.4847 12.8451V15.9079C14.4847 16.1065 14.3974 16.2919 14.2574 16.3916L12.0905 17.9243C12.0211 17.9734 11.9424 17.9987 11.8621 17.9987" fill="#689F63"/>
<path d="M12.5318 15.8896C11.5835 15.8896 11.3846 15.3565 11.3846 14.9094C11.3846 14.8669 11.4126 14.833 11.4474 14.833H11.7274C11.7583 14.833 11.7843 14.8606 11.7892 14.898C11.8315 15.2473 11.9574 15.4235 12.5308 15.4235C12.9877 15.4235 13.1819 15.2971 13.1819 15.0005C13.1819 14.8297 13.1265 14.7028 12.4169 14.6178C11.8234 14.546 11.4566 14.3859 11.4566 13.8046C11.4566 13.2691 11.8256 12.9502 12.4435 12.9502C13.1374 12.9502 13.4814 13.2452 13.5248 13.879C13.5264 13.9009 13.5199 13.9222 13.5079 13.9381C13.496 13.9534 13.4792 13.9627 13.4618 13.9627H13.1803C13.151 13.9627 13.1255 13.9375 13.1195 13.9029C13.0517 13.5355 12.8878 13.4179 12.4424 13.4179C11.9438 13.4179 11.8858 13.6305 11.8858 13.79C11.8858 13.9833 11.9541 14.0398 12.6269 14.1487C13.2931 14.257 13.6094 14.4098 13.6094 14.9832C13.6094 15.5612 13.2155 15.8927 12.5287 15.8927M15.1686 12.6446H15.2413C15.301 12.6446 15.3124 12.5934 15.3124 12.5635C15.3124 12.4851 15.2685 12.4851 15.244 12.4851H15.1692L15.1686 12.6446ZM15.0802 12.3934H15.2413C15.2967 12.3934 15.4052 12.3934 15.4052 12.5449C15.4052 12.6506 15.3498 12.6725 15.3167 12.6858C15.3813 12.6911 15.3856 12.7429 15.3943 12.816C15.3987 12.8618 15.4057 12.9409 15.4187 12.9675H15.3195C15.3167 12.9409 15.3016 12.7947 15.3016 12.7868C15.295 12.7542 15.2858 12.7383 15.2527 12.7383H15.1708V12.9681H15.0802V12.3934ZM14.8865 12.6791C14.8865 12.917 15.0433 13.1096 15.2359 13.1096C15.4301 13.1096 15.5869 12.913 15.5869 12.6791C15.5869 12.4406 15.428 12.2513 15.2354 12.2513C15.0455 12.2513 14.886 12.438 14.886 12.6785M15.6542 12.6805C15.6542 12.9622 15.4659 13.192 15.2364 13.192C15.0086 13.192 14.8187 12.9648 14.8187 12.6805C14.8187 12.3908 15.0129 12.1689 15.2364 12.1689C15.4616 12.1689 15.6537 12.3915 15.6537 12.6805" fill="#689F63"/>
<path fill-rule="evenodd" clip-rule="evenodd" d="M5.15057 6.01595C5.15057 5.89371 5.09795 5.78143 5.01179 5.72064L2.71385 4.10154C2.67506 4.07364 2.6316 4.05902 2.58755 4.05703H2.56378C2.51973 4.05902 2.47627 4.07364 2.43683 4.10154L0.138996 5.72064C0.053385 5.78176 0 5.89404 0 6.01628L0.00504554 10.3773C0.00504554 10.4377 0.0305445 10.4942 0.073947 10.5241C0.116264 10.556 0.169432 10.556 0.21175 10.5241L1.57784 9.56607C1.66411 9.50322 1.71673 9.39214 1.71673 9.27109V7.23376C1.71673 7.11218 1.76936 6.9999 1.85535 6.93944L2.43694 6.52925C2.48013 6.49869 2.52754 6.48354 2.57583 6.48354C2.62335 6.48354 2.67186 6.49856 2.71385 6.52919L3.29517 6.93924C3.38122 6.9997 3.43406 7.11198 3.43406 7.23356V9.27075C3.43406 9.39167 3.48739 9.50329 3.57322 9.56574L4.93844 10.5231C4.9813 10.5543 5.03463 10.5543 5.07733 10.5231C5.11943 10.4932 5.14612 10.4367 5.14612 10.3763L5.15057 6.01595ZM15.994 8.28654C15.994 8.3169 15.9808 8.34501 15.9593 8.36002L15.17 8.91717C15.1486 8.93225 15.1221 8.93225 15.1008 8.91717L14.3114 8.36002C14.2897 8.34494 14.2766 8.31684 14.2766 8.28654V7.17065C14.2766 7.14022 14.2897 7.11218 14.3108 7.0969L15.0997 6.53882C15.1214 6.52354 15.148 6.52354 15.1697 6.53882L15.959 7.0969C15.9807 7.11218 15.9938 7.14022 15.9938 7.17065L15.994 8.28654ZM16.2072 0.0215116C16.1642 -0.00785407 16.1118 -0.00705681 16.0692 0.0233054C16.0269 0.0538669 16.0008 0.109675 16.0008 0.170134V4.48861C16.0008 4.53113 15.9823 4.57033 15.9523 4.59159C15.9224 4.61285 15.8853 4.61285 15.8551 4.59159L15.2795 4.18558C15.1938 4.12486 15.0882 4.12486 15.0022 4.18558L12.7035 5.81019C12.6176 5.87065 12.5646 5.98293 12.5646 6.10385V9.354C12.5646 9.47558 12.6176 9.5872 12.7035 9.64832L15.0022 11.2741C15.088 11.3345 15.1937 11.3345 15.2798 11.2741L17.5785 9.64766C17.6642 9.58653 17.7174 9.47492 17.7174 9.35334V1.25321C17.7174 1.1299 17.6626 1.01649 17.5747 0.956229L16.2072 0.0215116ZM23.862 7.14128C23.9474 7.08056 23.9999 6.96841 23.9999 6.84749V6.0598C23.9999 5.93862 23.9473 5.8268 23.8618 5.76581L21.5777 4.14207C21.4914 4.08094 21.3856 4.08094 21.2994 4.14207L19.0012 5.76648C18.915 5.8276 18.8623 5.93922 18.8623 6.0608V9.30962C18.8623 9.43187 18.916 9.54481 19.0023 9.60527L21.2858 11.1991C21.3699 11.2582 21.473 11.2589 21.5582 11.2011L22.9395 10.261C22.9829 10.2311 23.0105 10.1746 23.0105 10.1135C23.0105 10.0524 22.9839 9.99526 22.9405 9.96536L20.6283 8.34029C20.5849 8.31039 20.5583 8.25392 20.5583 8.19346V7.1743C20.5583 7.11344 20.5843 7.05737 20.6277 7.02707L21.3471 6.51882C21.39 6.48826 21.4426 6.48826 21.4855 6.51882L22.2054 7.02707C22.2483 7.05697 22.2749 7.11344 22.2749 7.1739V7.97514C22.2749 8.0356 22.3014 8.09208 22.3443 8.12264C22.3872 8.15253 22.4403 8.15253 22.4832 8.12197L23.862 7.14128Z" fill="#EAEAEA"/>
<path fill-rule="evenodd" clip-rule="evenodd" d="M21.4049 6.98929C21.4212 6.97753 21.4416 6.97753 21.4581 6.98929L21.8992 7.30088C21.9157 7.31258 21.9258 7.3341 21.9258 7.35736V7.98121C21.9258 8.00446 21.9157 8.02599 21.8992 8.03768L21.4581 8.34928C21.4416 8.36104 21.4212 8.36104 21.4049 8.34928L20.9641 8.03768C20.9473 8.02599 20.937 8.00446 20.937 7.98121V7.35736C20.937 7.3341 20.9468 7.31258 20.9636 7.30088L21.4049 6.98929Z" fill="#689F63"/>
<mask id="mask0_30_146" style="mask-type:luminance" maskUnits="userSpaceOnUse" x="6" y="4" width="6" height="8">
<path d="M8.71983 4.15828L6.43415 5.77385C6.34854 5.83431 6.29602 5.94593 6.29602 6.06658V9.29998C6.29602 9.4207 6.34854 9.53225 6.43415 9.59271L8.71999 11.2095C8.80544 11.2698 8.9108 11.2698 8.99614 11.2095L11.2816 9.59271C11.3668 9.53225 11.4194 9.42064 11.4194 9.29998V6.06658C11.4194 5.94593 11.3668 5.83431 11.2811 5.77385L8.99593 4.15828C8.95307 4.12818 8.90532 4.1131 8.85758 4.1131C8.80984 4.1131 8.76209 4.12818 8.71923 4.15828" fill="white"/>
</mask>
<g mask="url(#mask0_30_146)">
<path d="M13.7291 5.49952L7.28847 1.63348L3.98608 9.88337L10.4266 13.7496L13.7291 5.49952Z" fill="url(#paint0_linear_30_146)"/>
</g>
<mask id="mask1_30_146" style="mask-type:luminance" maskUnits="userSpaceOnUse" x="6" y="4" width="6" height="8">
<path d="M6.35266 9.50529C6.37453 9.54004 6.40187 9.57014 6.43404 9.59273L8.39475 10.9796L8.72135 11.2095C8.77018 11.244 8.82584 11.2587 8.88053 11.2537C8.89876 11.2519 8.91699 11.2477 8.93478 11.2415L11.3455 5.83612C11.327 5.81154 11.3054 5.79094 11.2812 5.77367L9.7846 4.71531L8.99349 4.15789C8.97102 4.14195 8.94666 4.13065 8.92187 4.12268L6.35266 9.50529Z" fill="white"/>
</mask>
<g mask="url(#mask1_30_146)">
<path d="M3.56799 6.64302L8.11576 14.1806L14.1303 8.73894L9.58222 1.20154L3.56799 6.64302Z" fill="url(#paint1_linear_30_146)"/>
</g>
<mask id="mask2_30_146" style="mask-type:luminance" maskUnits="userSpaceOnUse" x="6" y="4" width="6" height="8">
<path d="M8.83025 4.11497C8.79189 4.11962 8.75441 4.13424 8.71985 4.15829L6.44067 5.76921L8.89834 11.251C8.93252 11.245 8.96616 11.2311 8.99654 11.2096L11.2822 9.59272C11.3527 9.54263 11.401 9.45785 11.4157 9.36178L8.91027 4.12048C8.89183 4.11603 8.87338 4.11371 8.85439 4.11371C8.8468 4.11371 8.8392 4.11417 8.83161 4.11504" fill="white"/>
</mask>
<g mask="url(#mask2_30_146)">
<path d="M6.44067 4.11371V11.2512H11.4148V4.11371H6.44067Z" fill="url(#paint2_linear_30_146)"/>
</g>
</g>
<defs>
<linearGradient id="paint0_linear_30_146" x1="10.5069" y1="3.56042" x2="5.99188" y2="11.0817" gradientUnits="userSpaceOnUse">
<stop offset="0.3" stop-color="#3E863D"/>
<stop offset="0.5" stop-color="#55934F"/>
<stop offset="0.8" stop-color="#5AAD45"/>
</linearGradient>
<linearGradient id="paint1_linear_30_146" x1="5.86913" y1="10.455" x2="12.6859" y2="6.34199" gradientUnits="userSpaceOnUse">
<stop offset="0.57" stop-color="#3E863D"/>
<stop offset="0.72" stop-color="#619857"/>
<stop offset="1" stop-color="#76AC64"/>
</linearGradient>
<linearGradient id="paint2_linear_30_146" x1="6.44235" y1="7.68263" x2="11.4157" y2="7.68263" gradientUnits="userSpaceOnUse">
<stop offset="0.16" stop-color="#6BBF47"/>
<stop offset="0.38" stop-color="#79B461"/>
<stop offset="0.47" stop-color="#75AC64"/>
<stop offset="0.7" stop-color="#659E5A"/>
<stop offset="0.9" stop-color="#3E863D"/>
</linearGradient>
<clipPath id="clip0_30_146">
<rect width="24" height="18" fill="white"/>
</clipPath>
</defs>
</svg>
