<svg width="30" height="30" viewBox="0 0 30 30" fill="none" xmlns="http://www.w3.org/2000/svg">
<path d="M15.0293 3.12498C14.0575 3.12811 13.3837 3.21373 12.5693 3.35436C10.1643 3.77311 9.72622 4.65248 9.72622 6.27311V8.74998H15.3512V9.99998H9.51247H6.79372C5.14622 9.99998 3.70434 10.7762 3.24747 12.6369C2.73122 14.7725 2.70809 16.11 3.24747 18.34C3.65684 20.0031 4.55872 21.25 6.20684 21.25H8.47684V18.06C8.47684 16.2062 10.1556 14.375 12.0793 14.375H16.6018C18.1787 14.375 19.7268 13.2112 19.7268 11.6394V6.27311C19.7268 4.74873 18.6275 3.60873 17.0906 3.35311C17.1287 3.34936 15.9931 3.12123 15.0293 3.12498ZM11.9143 5.62498C12.4275 5.62498 12.8518 6.04811 12.8518 6.56373C12.8518 7.08436 12.4275 7.49998 11.9143 7.49998C11.3912 7.49998 10.9768 7.08498 10.9768 6.56373C10.9768 6.04998 11.3912 5.62498 11.9143 5.62498Z" fill="#0277BD"/>
<path d="M14.4237 26.875C15.3956 26.8719 16.0693 26.7862 16.8837 26.6456C19.2887 26.2269 19.7268 25.3475 19.7268 23.7269V21.25H14.1018V20H19.9412H22.6599C24.3074 20 25.7493 19.2238 26.2062 17.3631C26.7224 15.2275 26.7456 13.89 26.2062 11.66C25.7962 9.99688 24.8943 8.75 23.2462 8.75H20.9762V11.94C20.9762 13.7938 19.2974 15.625 17.3737 15.625H12.8512C11.2743 15.625 9.7262 16.7888 9.7262 18.3606V23.7269C9.7262 25.2513 10.8256 26.3912 12.3624 26.6469C12.3243 26.6506 13.4599 26.8787 14.4237 26.875ZM17.5393 24.375C17.0262 24.375 16.6018 23.9519 16.6018 23.4363C16.6018 22.9156 17.0262 22.5 17.5393 22.5C18.0624 22.5 18.4768 22.915 18.4768 23.4363C18.4768 23.95 18.0618 24.375 17.5393 24.375Z" fill="#FFC107"/>
</svg>
