<svg width="25" height="25" viewBox="0 0 25 25" fill="none" xmlns="http://www.w3.org/2000/svg">
<path d="M20.555 8.57653C20.2957 8.48726 20.0269 8.4028 19.7502 8.32292C19.7957 8.13732 19.8375 7.95411 19.8746 7.77402C20.4838 4.81688 20.0855 2.43459 18.7253 1.65024C17.4211 0.898155 15.2882 1.68233 13.1341 3.55701C12.9269 3.73728 12.7192 3.92814 12.5116 4.12816C12.3732 3.99582 12.2351 3.86793 12.0973 3.7456C9.83972 1.74107 7.57682 0.89633 6.21803 1.68295C4.91508 2.43722 4.52922 4.6768 5.07759 7.4793C5.13054 7.74999 5.19244 8.02642 5.26244 8.30748C4.94218 8.3984 4.63299 8.49532 4.33716 8.59842C1.69036 9.52121 0 10.9674 0 12.4676C0 14.0169 1.81461 15.5709 4.57145 16.5132C4.78901 16.5876 5.01476 16.6579 5.2474 16.7246C5.17188 17.0286 5.1062 17.3265 5.05107 17.617C4.5282 20.3709 4.93653 22.5576 6.236 23.3071C7.57825 24.0811 9.83091 23.2855 12.0244 21.3681C12.1978 21.2165 12.3718 21.0558 12.5461 20.8873C12.772 21.1049 12.9976 21.3108 13.222 21.5039C15.3466 23.3323 17.4451 24.0706 18.7434 23.319C20.0843 22.5427 20.5201 20.1937 19.9543 17.3358C19.9111 17.1175 19.8608 16.8945 19.8044 16.6675C19.9625 16.6208 20.1179 16.5725 20.2693 16.5223C23.1353 15.5727 25 14.0376 25 12.4676C25 10.962 23.2551 9.50604 20.555 8.57653ZM19.9334 15.5086C19.7967 15.5538 19.6564 15.5976 19.5135 15.64C19.1971 14.6383 18.7701 13.5732 18.2475 12.4728C18.7462 11.3986 19.1567 10.3471 19.4642 9.35193C19.72 9.42594 19.9682 9.50399 20.2074 9.58636C22.5208 10.3828 23.932 11.5603 23.932 12.4676C23.932 13.434 22.408 14.6886 19.9334 15.5086ZM18.9066 17.5432C19.1568 18.8069 19.1925 19.9495 19.0268 20.8427C18.8779 21.6453 18.5785 22.1804 18.2082 22.3947C17.4204 22.8507 15.7355 22.2579 13.9185 20.6943C13.7102 20.5151 13.5004 20.3237 13.2899 20.1211C13.9943 19.3507 14.6983 18.4551 15.3854 17.4604C16.594 17.3531 17.7358 17.1778 18.7713 16.9384C18.8223 17.1441 18.8676 17.3459 18.9066 17.5432ZM8.52306 22.3159C7.75331 22.5877 7.14024 22.5955 6.76964 22.3818C5.98107 21.927 5.65324 20.1713 6.10041 17.8162C6.15163 17.5465 6.2126 17.2694 6.28286 16.9863C7.30698 17.2127 8.44043 17.3757 9.65189 17.4739C10.3436 18.4472 11.068 19.3419 11.798 20.1253C11.6385 20.2792 11.4796 20.4258 11.3216 20.5639C10.3517 21.4118 9.37968 22.0133 8.52306 22.3159ZM4.91686 15.5026C3.69783 15.086 2.69112 14.5445 2.00106 13.9536C1.381 13.4225 1.06795 12.8954 1.06795 12.4676C1.06795 11.5572 2.42514 10.3961 4.68871 9.60692C4.96336 9.51115 5.25087 9.42091 5.54924 9.33614C5.86207 10.3538 6.27245 11.4177 6.76769 12.4936C6.26604 13.5854 5.84984 14.6663 5.53393 15.6959C5.32123 15.6347 5.11515 15.5704 4.91686 15.5026ZM6.12569 7.2742C5.65586 4.87309 5.96789 3.06177 6.75309 2.60725C7.58946 2.12305 9.43891 2.81342 11.3882 4.54423C11.5128 4.65486 11.6379 4.77065 11.7633 4.89044C11.0369 5.67039 10.3192 6.55833 9.6336 7.52593C8.45783 7.63491 7.33234 7.80998 6.29755 8.0444C6.23249 7.7827 6.17486 7.52558 6.12569 7.2742ZM16.9096 9.93702C16.6622 9.50973 16.4082 9.09255 16.1493 8.68675C16.947 8.78759 17.7112 8.92144 18.4289 9.08525C18.2134 9.77579 17.9449 10.4978 17.6288 11.238C17.402 10.8074 17.1621 10.3733 16.9096 9.93702ZM12.5119 5.6537C13.0045 6.18738 13.4979 6.78324 13.9831 7.42973C13.4941 7.40663 12.9991 7.39462 12.5 7.39462C12.0056 7.39462 11.5142 7.40636 11.0283 7.42906C11.514 6.78858 12.0116 6.19353 12.5119 5.6537ZM8.08612 9.9444C7.83902 10.3729 7.60361 10.8046 7.3804 11.2372C7.06939 10.4996 6.80333 9.77428 6.58599 9.07394C7.29928 8.91432 8.05991 8.78381 8.8525 8.68488C8.58995 9.09441 8.3339 9.51476 8.08612 9.9444ZM8.87532 16.3265C8.05644 16.2351 7.28437 16.1113 6.57127 15.9561C6.79207 15.2432 7.06401 14.5025 7.3816 13.749C7.60539 14.1812 7.84173 14.6131 8.09035 15.0426C8.3436 15.48 8.60601 15.9086 8.87532 16.3265ZM12.5415 19.3567C12.0353 18.8106 11.5304 18.2065 11.0373 17.5566C11.516 17.5754 12.004 17.585 12.5 17.585C13.0096 17.585 13.5133 17.5736 14.0091 17.5515C13.5223 18.213 13.0307 18.8181 12.5415 19.3567ZM17.639 13.7106C17.9731 14.4722 18.2548 15.2091 18.4784 15.9098C17.7536 16.0752 16.971 16.2084 16.1464 16.3073C16.4059 15.8961 16.6621 15.4717 16.9138 15.0352C17.1685 14.5936 17.4103 14.1513 17.639 13.7106ZM15.9887 14.5017C15.5979 15.1793 15.1967 15.8261 14.7894 16.4367C14.0476 16.4897 13.2811 16.517 12.5 16.517C11.722 16.517 10.9653 16.4929 10.2365 16.4456C9.8128 15.827 9.40287 15.1782 9.01456 14.5075C8.62728 13.8386 8.27093 13.164 7.94795 12.4932C8.27084 11.8209 8.62635 11.1455 9.0114 10.4778L9.01132 10.478C9.39739 9.80846 9.80372 9.16285 10.2235 8.54814C10.967 8.49193 11.7294 8.46261 12.5 8.46261C13.2739 8.46261 14.0374 8.49216 14.7807 8.54885C15.1941 9.15907 15.5976 9.80258 15.9852 10.4722C16.3772 11.1493 16.7373 11.8201 17.063 12.478C16.7383 13.1473 16.379 13.8249 15.9887 14.5017ZM18.1919 2.57548C19.029 3.05826 19.3546 5.0053 18.8286 7.55846C18.7951 7.72138 18.7573 7.88732 18.7162 8.05548C17.679 7.81616 16.5528 7.63807 15.3736 7.52745C14.6866 6.54921 13.9748 5.65989 13.2602 4.88995C13.4523 4.70515 13.6442 4.52893 13.8352 4.36263C15.6809 2.75642 17.4059 2.12225 18.1919 2.57548ZM12.5 10.2352C13.7329 10.2352 14.7324 11.2346 14.7324 12.4676C14.7324 13.7005 13.7329 14.7 12.5 14.7C11.2671 14.7 10.2676 13.7005 10.2676 12.4676C10.2676 11.2346 11.2671 10.2352 12.5 10.2352Z" fill="#00D8FF"/>
</svg>
