<svg width="30" height="30" viewBox="0 0 30 30" fill="none" xmlns="http://www.w3.org/2000/svg">
<g clip-path="url(#clip0_25_42)">
<path d="M26.25 8.75L25 25L8.75 26.25L26.25 8.75Z" fill="#9B1010"/>
<path d="M17.5 17.5L25 25L26.25 8.75L17.5 17.5Z" fill="#B71C1C"/>
<path d="M9.84513 9.84531C8.53231 11.1582 7.36568 12.5915 6.41184 14.0635C5.45801 15.5355 4.73566 17.0173 4.28603 18.4243C3.8364 19.8313 3.6683 21.1359 3.79132 22.2637C3.91435 23.3916 4.32609 24.3204 5.00304 24.9974C5.67999 25.6743 6.6089 26.086 7.73671 26.209C8.86453 26.332 10.1692 26.1638 11.5762 25.7142C12.9831 25.2645 14.4649 24.5421 15.9369 23.5882C17.4088 22.6343 18.8421 21.4676 20.1549 20.1548C21.4678 18.8419 22.6344 17.4085 23.5882 15.9366C24.5421 14.4646 25.2644 12.9828 25.714 11.5758C26.1637 10.1688 26.3318 8.86414 26.2087 7.73632C26.0857 6.60851 25.674 5.67962 24.997 5.00269C24.3201 4.32577 23.3912 3.91406 22.2634 3.79107C21.1355 3.66809 19.8309 3.83623 18.4239 4.28591C17.0169 4.73559 15.5352 5.45799 14.0632 6.41188C12.5913 7.36576 11.158 8.53244 9.84513 9.84531Z" fill="#C62828"/>
<path d="M6.25 10.625L10.625 6.25L15.625 3.75L19.375 6.25L17.5 11.875L11.875 16.875L6.25 18.75L3.75 15L6.25 10.625Z" fill="#E53935"/>
<path d="M19.375 6.25L15.625 3.75H22.5L19.375 6.25ZM26.25 9.375L19.375 6.25L17.5 11.875L26.25 9.375ZM11.875 16.875L20.1469 20.1469L17.5 11.875L11.875 16.875ZM6.25 18.75L8.75 26.25L11.875 16.875L6.25 18.75ZM3.75 15V21.875L6.25 18.75L3.75 15Z" fill="#FF5252"/>
</g>
<defs>
<clipPath id="clip0_25_42">
<rect width="30" height="30" fill="white"/>
</clipPath>
</defs>
</svg>
