<svg width="360" height="126" viewBox="0 0 360 126" fill="none" xmlns="http://www.w3.org/2000/svg">
<rect x="8" width="160" height="20" rx="10" fill="white"/>
<path d="M28.3272 8.12926H26.7761C26.7164 7.79782 26.6054 7.50615 26.443 7.25426C26.2806 7.00237 26.0817 6.78859 25.8464 6.61293C25.6111 6.43726 25.3476 6.30469 25.0559 6.2152C24.7676 6.12571 24.461 6.08097 24.1362 6.08097C23.5495 6.08097 23.0242 6.22846 22.5602 6.52344C22.0995 6.81842 21.7349 7.25095 21.4664 7.82102C21.2013 8.3911 21.0687 9.08712 21.0687 9.90909C21.0687 10.7377 21.2013 11.437 21.4664 12.0071C21.7349 12.5772 22.1011 13.008 22.5652 13.2997C23.0292 13.5914 23.5512 13.7372 24.1312 13.7372C24.4527 13.7372 24.7576 13.6941 25.046 13.608C25.3377 13.5185 25.6011 13.3875 25.8365 13.2152C26.0718 13.0429 26.2707 12.8324 26.4331 12.5838C26.5988 12.3319 26.7131 12.0436 26.7761 11.7188L28.3272 11.7237C28.2444 12.2242 28.0836 12.6849 27.845 13.1058C27.6097 13.5234 27.3064 13.8847 26.9352 14.1896C26.5673 14.4912 26.1464 14.7249 25.6724 14.8906C25.1984 15.0563 24.6814 15.1392 24.1213 15.1392C23.2396 15.1392 22.4541 14.9304 21.7647 14.5128C21.0753 14.0919 20.5318 13.4903 20.1341 12.7081C19.7396 11.9259 19.5424 10.9929 19.5424 9.90909C19.5424 8.82197 19.7413 7.88897 20.139 7.11008C20.5368 6.32789 21.0803 5.72798 21.7697 5.31037C22.4591 4.88944 23.243 4.67898 24.1213 4.67898C24.6615 4.67898 25.1653 4.75687 25.6326 4.91264C26.1033 5.0651 26.5259 5.29048 26.9004 5.58878C27.2749 5.88376 27.5848 6.24503 27.8301 6.67258C28.0753 7.09683 28.2411 7.58239 28.3272 8.12926ZM33.2628 15.1541C32.5469 15.1541 31.9221 14.9901 31.3885 14.6619C30.8549 14.3338 30.4406 13.8748 30.1456 13.2848C29.8506 12.6948 29.7031 12.0054 29.7031 11.2166C29.7031 10.4245 29.8506 9.73177 30.1456 9.13849C30.4406 8.54522 30.8549 8.08452 31.3885 7.75639C31.9221 7.42827 32.5469 7.2642 33.2628 7.2642C33.9787 7.2642 34.6035 7.42827 35.1371 7.75639C35.6707 8.08452 36.085 8.54522 36.38 9.13849C36.675 9.73177 36.8224 10.4245 36.8224 11.2166C36.8224 12.0054 36.675 12.6948 36.38 13.2848C36.085 13.8748 35.6707 14.3338 35.1371 14.6619C34.6035 14.9901 33.9787 15.1541 33.2628 15.1541ZM33.2678 13.9062C33.7318 13.9062 34.1162 13.7836 34.4212 13.5384C34.7261 13.2931 34.9515 12.9666 35.0973 12.5589C35.2464 12.1513 35.321 11.7022 35.321 11.2116C35.321 10.7244 35.2464 10.277 35.0973 9.86932C34.9515 9.45833 34.7261 9.12855 34.4212 8.87997C34.1162 8.63139 33.7318 8.5071 33.2678 8.5071C32.8004 8.5071 32.4126 8.63139 32.1044 8.87997C31.7995 9.12855 31.5724 9.45833 31.4233 9.86932C31.2775 10.277 31.2045 10.7244 31.2045 11.2116C31.2045 11.7022 31.2775 12.1513 31.4233 12.5589C31.5724 12.9666 31.7995 13.2931 32.1044 13.5384C32.4126 13.7836 32.8004 13.9062 33.2678 13.9062ZM39.9682 10.4659V15H38.4817V7.36364H39.9086V8.60653H40.003C40.1787 8.20218 40.4538 7.87737 40.8283 7.6321C41.2061 7.38684 41.6818 7.2642 42.2551 7.2642C42.7755 7.2642 43.2312 7.37358 43.6223 7.59233C44.0134 7.80777 44.3167 8.12926 44.5321 8.55682C44.7476 8.98437 44.8553 9.51302 44.8553 10.1428V15H43.3688V10.3217C43.3688 9.76823 43.2246 9.3357 42.9363 9.02415C42.6479 8.70928 42.2518 8.55185 41.748 8.55185C41.4033 8.55185 41.0968 8.62642 40.8283 8.77557C40.5632 8.92472 40.3527 9.14347 40.1969 9.43182C40.0444 9.71686 39.9682 10.0616 39.9682 10.4659ZM50.4135 7.36364V8.55682H46.2424V7.36364H50.4135ZM47.361 5.53409H48.8475V12.7578C48.8475 13.0462 48.8906 13.2633 48.9767 13.4091C49.0629 13.5516 49.1739 13.6494 49.3098 13.7024C49.449 13.7521 49.5998 13.777 49.7623 13.777C49.8816 13.777 49.986 13.7687 50.0755 13.7521C50.165 13.7356 50.2346 13.7223 50.2843 13.7124L50.5527 14.9403C50.4666 14.9735 50.3439 15.0066 50.1848 15.0398C50.0257 15.0762 49.8269 15.0961 49.5882 15.0994C49.1971 15.1061 48.8326 15.0365 48.4945 14.8906C48.1564 14.7448 47.883 14.5194 47.6742 14.2145C47.4654 13.9096 47.361 13.5268 47.361 13.0661V5.53409ZM52.0579 15V7.36364H53.4947V8.5767H53.5742C53.7134 8.16572 53.9587 7.84257 54.31 7.60724C54.6647 7.36861 55.0657 7.24929 55.5131 7.24929C55.6059 7.24929 55.7153 7.2526 55.8413 7.25923C55.9705 7.26586 56.0716 7.27415 56.1445 7.28409V8.70597C56.0849 8.68939 55.9788 8.67116 55.8263 8.65128C55.6739 8.62808 55.5214 8.61648 55.369 8.61648C55.0176 8.61648 54.7044 8.69105 54.4293 8.8402C54.1576 8.98603 53.9421 9.18987 53.783 9.4517C53.6239 9.71023 53.5444 10.0052 53.5444 10.3366V15H52.0579ZM60.3741 15.1541C59.6582 15.1541 59.0334 14.9901 58.4998 14.6619C57.9662 14.3338 57.5519 13.8748 57.2569 13.2848C56.9619 12.6948 56.8145 12.0054 56.8145 11.2166C56.8145 10.4245 56.9619 9.73177 57.2569 9.13849C57.5519 8.54522 57.9662 8.08452 58.4998 7.75639C59.0334 7.42827 59.6582 7.2642 60.3741 7.2642C61.09 7.2642 61.7148 7.42827 62.2484 7.75639C62.782 8.08452 63.1963 8.54522 63.4913 9.13849C63.7863 9.73177 63.9338 10.4245 63.9338 11.2166C63.9338 12.0054 63.7863 12.6948 63.4913 13.2848C63.1963 13.8748 62.782 14.3338 62.2484 14.6619C61.7148 14.9901 61.09 15.1541 60.3741 15.1541ZM60.3791 13.9062C60.8431 13.9062 61.2276 13.7836 61.5325 13.5384C61.8374 13.2931 62.0628 12.9666 62.2086 12.5589C62.3578 12.1513 62.4324 11.7022 62.4324 11.2116C62.4324 10.7244 62.3578 10.277 62.2086 9.86932C62.0628 9.45833 61.8374 9.12855 61.5325 8.87997C61.2276 8.63139 60.8431 8.5071 60.3791 8.5071C59.9118 8.5071 59.524 8.63139 59.2157 8.87997C58.9108 9.12855 58.6838 9.45833 58.5346 9.86932C58.3888 10.277 58.3159 10.7244 58.3159 11.2116C58.3159 11.7022 58.3888 12.1513 58.5346 12.5589C58.6838 12.9666 58.9108 13.2931 59.2157 13.5384C59.524 13.7836 59.9118 13.9062 60.3791 13.9062ZM67.0795 4.81818V15H65.593V4.81818H67.0795ZM75.6431 15.1491C75.0266 15.1491 74.4764 14.9917 73.9925 14.6768C73.512 14.3587 73.1341 13.9062 72.859 13.3196C72.5872 12.7296 72.4513 12.022 72.4513 11.1967C72.4513 10.3714 72.5889 9.66548 72.864 9.07884C73.1424 8.49219 73.5236 8.04309 74.0075 7.73153C74.4914 7.41998 75.0399 7.2642 75.6531 7.2642C76.127 7.2642 76.5082 7.34375 76.7965 7.50284C77.0882 7.65862 77.3136 7.84091 77.4727 8.04972C77.6351 8.25852 77.761 8.44247 77.8505 8.60156H77.94V4.81818H79.4265V15H77.9748V13.8118H77.8505C77.761 13.9742 77.6317 14.1598 77.4627 14.3686C77.297 14.5774 77.0683 14.7597 76.7766 14.9155C76.485 15.0713 76.1071 15.1491 75.6431 15.1491ZM75.9712 13.8814C76.3988 13.8814 76.7601 13.7687 77.055 13.5433C77.3533 13.3146 77.5787 12.9981 77.7312 12.5938C77.887 12.1894 77.9648 11.7187 77.9648 11.1818C77.9648 10.6515 77.8886 10.1875 77.7362 9.78977C77.5837 9.39205 77.36 9.08215 77.065 8.86009C76.77 8.63802 76.4054 8.52699 75.9712 8.52699C75.5238 8.52699 75.1509 8.64299 74.8526 8.875C74.5543 9.10701 74.329 9.42353 74.1765 9.82457C74.0273 10.2256 73.9528 10.678 73.9528 11.1818C73.9528 11.6922 74.029 12.1513 74.1815 12.5589C74.3339 12.9666 74.5593 13.2898 74.8576 13.5284C75.1592 13.7637 75.5304 13.8814 75.9712 13.8814ZM84.8393 15.1541C84.0869 15.1541 83.439 14.9934 82.8954 14.6719C82.3552 14.3471 81.9376 13.8913 81.6426 13.3047C81.3509 12.7147 81.2051 12.0237 81.2051 11.2315C81.2051 10.4493 81.3509 9.75994 81.6426 9.16335C81.9376 8.56676 82.3485 8.10109 82.8755 7.76633C83.4058 7.43158 84.0256 7.2642 84.7349 7.2642C85.1658 7.2642 85.5834 7.33546 85.9877 7.47798C86.3921 7.6205 86.755 7.84422 87.0765 8.14915C87.398 8.45407 87.6516 8.85014 87.8372 9.33736C88.0228 9.82126 88.1156 10.4096 88.1156 11.1023V11.6293H82.0453V10.5156H86.6589C86.6589 10.1245 86.5794 9.77817 86.4203 9.47656C86.2612 9.17164 86.0375 8.93134 85.7491 8.75568C85.4641 8.58002 85.1293 8.49219 84.7449 8.49219C84.3272 8.49219 83.9627 8.59493 83.6511 8.80043C83.3429 9.0026 83.1042 9.26776 82.9352 9.59588C82.7695 9.92069 82.6866 10.2737 82.6866 10.6548V11.5249C82.6866 12.0353 82.7761 12.4695 82.9551 12.8274C83.1374 13.1854 83.3909 13.4588 83.7157 13.6477C84.0405 13.8333 84.42 13.9261 84.8542 13.9261C85.1359 13.9261 85.3928 13.8864 85.6248 13.8068C85.8568 13.724 86.0574 13.6013 86.2264 13.4389C86.3954 13.2765 86.5247 13.076 86.6142 12.8374L88.0211 13.0909C87.9084 13.5052 87.7063 13.8681 87.4146 14.1797C87.1262 14.4879 86.7633 14.7282 86.3258 14.9006C85.8916 15.0696 85.3961 15.1541 84.8393 15.1541ZM100.003 7.36364L97.2335 15H95.6426L92.8684 7.36364H94.4643L96.3983 13.2401H96.4778L98.4068 7.36364H100.003ZM104.431 15.1541C103.679 15.1541 103.031 14.9934 102.487 14.6719C101.947 14.3471 101.529 13.8913 101.234 13.3047C100.943 12.7147 100.797 12.0237 100.797 11.2315C100.797 10.4493 100.943 9.75994 101.234 9.16335C101.529 8.56676 101.94 8.10109 102.467 7.76633C102.998 7.43158 103.617 7.2642 104.327 7.2642C104.758 7.2642 105.175 7.33546 105.58 7.47798C105.984 7.6205 106.347 7.84422 106.668 8.14915C106.99 8.45407 107.243 8.85014 107.429 9.33736C107.615 9.82126 107.707 10.4096 107.707 11.1023V11.6293H101.637V10.5156H106.251C106.251 10.1245 106.171 9.77817 106.012 9.47656C105.853 9.17164 105.629 8.93134 105.341 8.75568C105.056 8.58002 104.721 8.49219 104.337 8.49219C103.919 8.49219 103.554 8.59493 103.243 8.80043C102.935 9.0026 102.696 9.26776 102.527 9.59588C102.361 9.92069 102.278 10.2737 102.278 10.6548V11.5249C102.278 12.0353 102.368 12.4695 102.547 12.8274C102.729 13.1854 102.983 13.4588 103.308 13.6477C103.632 13.8333 104.012 13.9261 104.446 13.9261C104.728 13.9261 104.985 13.8864 105.217 13.8068C105.449 13.724 105.649 13.6013 105.818 13.4389C105.987 13.2765 106.116 13.076 106.206 12.8374L107.613 13.0909C107.5 13.5052 107.298 13.8681 107.006 14.1797C106.718 14.4879 106.355 14.7282 105.918 14.9006C105.483 15.0696 104.988 15.1541 104.431 15.1541ZM109.357 15V7.36364H110.794V8.5767H110.873C111.012 8.16572 111.258 7.84257 111.609 7.60724C111.963 7.36861 112.365 7.24929 112.812 7.24929C112.905 7.24929 113.014 7.2526 113.14 7.25923C113.269 7.26586 113.37 7.27415 113.443 7.28409V8.70597C113.384 8.68939 113.278 8.67116 113.125 8.65128C112.973 8.62808 112.82 8.61648 112.668 8.61648C112.316 8.61648 112.003 8.69105 111.728 8.8402C111.456 8.98603 111.241 9.18987 111.082 9.4517C110.923 9.71023 110.843 10.0052 110.843 10.3366V15H109.357ZM120.452 9.22798L119.105 9.46662C119.048 9.29427 118.959 9.13021 118.836 8.97443C118.717 8.81865 118.555 8.69105 118.349 8.59162C118.144 8.49219 117.887 8.44247 117.578 8.44247C117.158 8.44247 116.806 8.53693 116.525 8.72585C116.243 8.91146 116.102 9.15175 116.102 9.44673C116.102 9.70194 116.196 9.90743 116.385 10.0632C116.574 10.219 116.879 10.3466 117.3 10.446L118.513 10.7244C119.216 10.8868 119.739 11.1371 120.084 11.4751C120.429 11.8132 120.601 12.2524 120.601 12.7926C120.601 13.25 120.469 13.6577 120.203 14.0156C119.942 14.3703 119.575 14.6487 119.105 14.8509C118.637 15.053 118.096 15.1541 117.479 15.1541C116.624 15.1541 115.926 14.9718 115.386 14.6072C114.846 14.2393 114.514 13.7173 114.392 13.0412L115.828 12.8224C115.918 13.197 116.102 13.4804 116.38 13.6726C116.659 13.8615 117.022 13.956 117.469 13.956C117.956 13.956 118.346 13.8549 118.637 13.6527C118.929 13.4472 119.075 13.197 119.075 12.902C119.075 12.6634 118.985 12.4628 118.806 12.3004C118.631 12.138 118.361 12.0154 117.996 11.9325L116.703 11.6491C115.991 11.4867 115.464 11.2282 115.123 10.8736C114.784 10.5189 114.615 10.0698 114.615 9.52628C114.615 9.07552 114.741 8.68111 114.993 8.34304C115.245 8.00497 115.593 7.74148 116.037 7.55256C116.481 7.36032 116.99 7.2642 117.564 7.2642C118.389 7.2642 119.038 7.44318 119.512 7.80114C119.986 8.15578 120.3 8.63139 120.452 9.22798ZM122.236 15V7.36364H123.722V15H122.236ZM122.986 6.18537C122.728 6.18537 122.506 6.09919 122.32 5.92685C122.138 5.75118 122.047 5.54238 122.047 5.30043C122.047 5.05516 122.138 4.84635 122.32 4.67401C122.506 4.49834 122.728 4.41051 122.986 4.41051C123.245 4.41051 123.465 4.49834 123.648 4.67401C123.833 4.84635 123.926 5.05516 123.926 5.30043C123.926 5.54238 123.833 5.75118 123.648 5.92685C123.465 6.09919 123.245 6.18537 122.986 6.18537ZM128.939 15.1541C128.223 15.1541 127.598 14.9901 127.064 14.6619C126.531 14.3338 126.116 13.8748 125.821 13.2848C125.526 12.6948 125.379 12.0054 125.379 11.2166C125.379 10.4245 125.526 9.73177 125.821 9.13849C126.116 8.54522 126.531 8.08452 127.064 7.75639C127.598 7.42827 128.223 7.2642 128.939 7.2642C129.654 7.2642 130.279 7.42827 130.813 7.75639C131.346 8.08452 131.761 8.54522 132.056 9.13849C132.351 9.73177 132.498 10.4245 132.498 11.2166C132.498 12.0054 132.351 12.6948 132.056 13.2848C131.761 13.8748 131.346 14.3338 130.813 14.6619C130.279 14.9901 129.654 15.1541 128.939 15.1541ZM128.944 13.9062C129.408 13.9062 129.792 13.7836 130.097 13.5384C130.402 13.2931 130.627 12.9666 130.773 12.5589C130.922 12.1513 130.997 11.7022 130.997 11.2116C130.997 10.7244 130.922 10.277 130.773 9.86932C130.627 9.45833 130.402 9.12855 130.097 8.87997C129.792 8.63139 129.408 8.5071 128.944 8.5071C128.476 8.5071 128.088 8.63139 127.78 8.87997C127.475 9.12855 127.248 9.45833 127.099 9.86932C126.953 10.277 126.88 10.7244 126.88 11.2116C126.88 11.7022 126.953 12.1513 127.099 12.5589C127.248 12.9666 127.475 13.2931 127.78 13.5384C128.088 13.7836 128.476 13.9062 128.944 13.9062ZM135.644 10.4659V15H134.157V7.36364H135.584V8.60653H135.679C135.854 8.20218 136.13 7.87737 136.504 7.6321C136.882 7.38684 137.358 7.2642 137.931 7.2642C138.451 7.2642 138.907 7.37358 139.298 7.59233C139.689 7.80777 139.992 8.12926 140.208 8.55682C140.423 8.98437 140.531 9.51302 140.531 10.1428V15H139.045V10.3217C139.045 9.76823 138.9 9.3357 138.612 9.02415C138.324 8.70928 137.928 8.55185 137.424 8.55185C137.079 8.55185 136.773 8.62642 136.504 8.77557C136.239 8.92472 136.028 9.14347 135.873 9.43182C135.72 9.71686 135.644 10.0616 135.644 10.4659ZM145.816 15.1541C145.064 15.1541 144.416 14.9934 143.872 14.6719C143.332 14.3471 142.914 13.8913 142.619 13.3047C142.327 12.7147 142.182 12.0237 142.182 11.2315C142.182 10.4493 142.327 9.75994 142.619 9.16335C142.914 8.56676 143.325 8.10109 143.852 7.76633C144.382 7.43158 145.002 7.2642 145.711 7.2642C146.142 7.2642 146.56 7.33546 146.964 7.47798C147.369 7.6205 147.732 7.84422 148.053 8.14915C148.375 8.45407 148.628 8.85014 148.814 9.33736C148.999 9.82126 149.092 10.4096 149.092 11.1023V11.6293H143.022V10.5156H147.635C147.635 10.1245 147.556 9.77817 147.397 9.47656C147.238 9.17164 147.014 8.93134 146.726 8.75568C146.441 8.58002 146.106 8.49219 145.721 8.49219C145.304 8.49219 144.939 8.59493 144.628 8.80043C144.319 9.0026 144.081 9.26776 143.912 9.59588C143.746 9.92069 143.663 10.2737 143.663 10.6548V11.5249C143.663 12.0353 143.753 12.4695 143.932 12.8274C144.114 13.1854 144.367 13.4588 144.692 13.6477C145.017 13.8333 145.397 13.9261 145.831 13.9261C146.113 13.9261 146.369 13.8864 146.601 13.8068C146.833 13.724 147.034 13.6013 147.203 13.4389C147.372 13.2765 147.501 13.076 147.591 12.8374L148.998 13.0909C148.885 13.5052 148.683 13.8681 148.391 14.1797C148.103 14.4879 147.74 14.7282 147.302 14.9006C146.868 15.0696 146.373 15.1541 145.816 15.1541ZM156.464 9.22798L155.116 9.46662C155.06 9.29427 154.971 9.13021 154.848 8.97443C154.729 8.81865 154.566 8.69105 154.361 8.59162C154.155 8.49219 153.898 8.44247 153.59 8.44247C153.169 8.44247 152.818 8.53693 152.536 8.72585C152.254 8.91146 152.114 9.15175 152.114 9.44673C152.114 9.70194 152.208 9.90743 152.397 10.0632C152.586 10.219 152.891 10.3466 153.312 10.446L154.525 10.7244C155.228 10.8868 155.751 11.1371 156.096 11.4751C156.441 11.8132 156.613 12.2524 156.613 12.7926C156.613 13.25 156.48 13.6577 156.215 14.0156C155.953 14.3703 155.587 14.6487 155.116 14.8509C154.649 15.053 154.107 15.1541 153.491 15.1541C152.636 15.1541 151.938 14.9718 151.398 14.6072C150.857 14.2393 150.526 13.7173 150.403 13.0412L151.84 12.8224C151.93 13.197 152.114 13.4804 152.392 13.6726C152.67 13.8615 153.033 13.956 153.481 13.956C153.968 13.956 154.357 13.8549 154.649 13.6527C154.941 13.4472 155.087 13.197 155.087 12.902C155.087 12.6634 154.997 12.4628 154.818 12.3004C154.643 12.138 154.372 12.0154 154.008 11.9325L152.715 11.6491C152.003 11.4867 151.476 11.2282 151.134 10.8736C150.796 10.5189 150.627 10.0698 150.627 9.52628C150.627 9.07552 150.753 8.68111 151.005 8.34304C151.257 8.00497 151.605 7.74148 152.049 7.55256C152.493 7.36032 153.002 7.2642 153.575 7.2642C154.401 7.2642 155.05 7.44318 155.524 7.80114C155.998 8.15578 156.311 8.63139 156.464 9.22798Z" fill="#40C18A"/>
<rect x="8" y="53" width="160" height="20" rx="10" fill="white"/>
<path d="M22.1948 61.0348C22.0987 60.7332 21.9694 60.4631 21.807 60.2244C21.6479 59.9825 21.4573 59.777 21.2353 59.608C21.0132 59.4356 20.7596 59.3047 20.4746 59.2152C20.1929 59.1257 19.883 59.081 19.5449 59.081C18.9715 59.081 18.4545 59.2285 17.9938 59.5234C17.5331 59.8184 17.1685 60.2509 16.9 60.821C16.6349 61.3878 16.5023 62.0821 16.5023 62.9041C16.5023 63.7294 16.6365 64.4271 16.905 64.9972C17.1735 65.5672 17.5414 65.9998 18.0087 66.2947C18.476 66.5897 19.008 66.7372 19.6046 66.7372C20.1581 66.7372 20.6403 66.6245 21.0513 66.3991C21.4656 66.1738 21.7855 65.8556 22.0108 65.4446C22.2395 65.0303 22.3539 64.5431 22.3539 63.983L22.7516 64.0575H19.8382V62.7898H23.8404V63.9482C23.8404 64.8033 23.6581 65.5457 23.2935 66.1754C22.9322 66.8018 22.4318 67.2857 21.7921 67.6271C21.1557 67.9685 20.4266 68.1392 19.6046 68.1392C18.6832 68.1392 17.8745 67.9271 17.1784 67.5028C16.4857 67.0786 15.9455 66.477 15.5577 65.6982C15.1699 64.916 14.976 63.9879 14.976 62.9141C14.976 62.102 15.0887 61.3729 15.3141 60.7266C15.5395 60.0803 15.856 59.5317 16.2637 59.081C16.6747 58.6269 17.1569 58.2805 17.7104 58.0419C18.2672 57.8 18.8754 57.679 19.535 57.679C20.0852 57.679 20.5972 57.7602 21.0712 57.9226C21.5485 58.085 21.9727 58.3153 22.3439 58.6136C22.7185 58.9119 23.0283 59.2666 23.2736 59.6776C23.5189 60.0852 23.6846 60.5376 23.7708 61.0348H22.1948ZM28.9624 68.1541C28.21 68.1541 27.562 67.9934 27.0185 67.6719C26.4782 67.3471 26.0606 66.8913 25.7656 66.3047C25.474 65.7147 25.3281 65.0237 25.3281 64.2315C25.3281 63.4493 25.474 62.7599 25.7656 62.1634C26.0606 61.5668 26.4716 61.1011 26.9986 60.7663C27.5289 60.4316 28.1487 60.2642 28.858 60.2642C29.2888 60.2642 29.7064 60.3355 30.1108 60.478C30.5152 60.6205 30.8781 60.8442 31.1996 61.1491C31.5211 61.4541 31.7746 61.8501 31.9602 62.3374C32.1458 62.8213 32.2386 63.4096 32.2386 64.1023V64.6293H26.1683V63.5156H30.782C30.782 63.1245 30.7024 62.7782 30.5433 62.4766C30.3842 62.1716 30.1605 61.9313 29.8722 61.7557C29.5871 61.58 29.2524 61.4922 28.8679 61.4922C28.4503 61.4922 28.0857 61.5949 27.7741 61.8004C27.4659 62.0026 27.2273 62.2678 27.0582 62.5959C26.8925 62.9207 26.8097 63.2737 26.8097 63.6548V64.5249C26.8097 65.0353 26.8991 65.4695 27.0781 65.8274C27.2604 66.1854 27.514 66.4588 27.8388 66.6477C28.1636 66.8333 28.5431 66.9261 28.9773 66.9261C29.259 66.9261 29.5159 66.8864 29.7479 66.8068C29.9799 66.724 30.1804 66.6013 30.3494 66.4389C30.5185 66.2765 30.6477 66.076 30.7372 65.8374L32.1442 66.0909C32.0315 66.5052 31.8293 66.8681 31.5376 67.1797C31.2493 67.4879 30.8864 67.7282 30.4489 67.9006C30.0147 68.0696 29.5192 68.1541 28.9624 68.1541ZM39.6103 62.228L38.263 62.4666C38.2066 62.2943 38.1171 62.1302 37.9945 61.9744C37.8752 61.8187 37.7128 61.6911 37.5073 61.5916C37.3018 61.4922 37.0449 61.4425 36.7367 61.4425C36.3158 61.4425 35.9644 61.5369 35.6827 61.7259C35.401 61.9115 35.2601 62.1518 35.2601 62.4467C35.2601 62.7019 35.3546 62.9074 35.5435 63.0632C35.7324 63.219 36.0373 63.3466 36.4583 63.446L37.6713 63.7244C38.374 63.8868 38.8977 64.1371 39.2424 64.4751C39.5871 64.8132 39.7594 65.2524 39.7594 65.7926C39.7594 66.25 39.6268 66.6577 39.3617 67.0156C39.0998 67.3703 38.7336 67.6487 38.263 67.8509C37.7956 68.053 37.2537 68.1541 36.6373 68.1541C35.7821 68.1541 35.0845 67.9718 34.5442 67.6072C34.004 67.2393 33.6725 66.7173 33.5499 66.0412L34.9867 65.8224C35.0762 66.197 35.2601 66.4804 35.5385 66.6726C35.8169 66.8615 36.1799 66.956 36.6273 66.956C37.1145 66.956 37.504 66.8549 37.7956 66.6527C38.0873 66.4472 38.2331 66.197 38.2331 65.902C38.2331 65.6634 38.1436 65.4628 37.9647 65.3004C37.789 65.138 37.5189 65.0154 37.1543 64.9325L35.8617 64.6491C35.1491 64.4867 34.6221 64.2282 34.2807 63.8736C33.9426 63.5189 33.7736 63.0698 33.7736 62.5263C33.7736 62.0755 33.8996 61.6811 34.1515 61.343C34.4033 61.005 34.7514 60.7415 35.1955 60.5526C35.6396 60.3603 36.1484 60.2642 36.7218 60.2642C37.5471 60.2642 38.1967 60.4432 38.6706 60.8011C39.1446 61.1558 39.4578 61.6314 39.6103 62.228ZM44.9585 60.3636V61.5568H40.7873V60.3636H44.9585ZM41.9059 58.5341H43.3924V65.7578C43.3924 66.0462 43.4355 66.2633 43.5217 66.4091C43.6078 66.5516 43.7189 66.6494 43.8548 66.7024C43.994 66.7521 44.1448 66.777 44.3072 66.777C44.4265 66.777 44.5309 66.7687 44.6204 66.7521C44.7099 66.7356 44.7795 66.7223 44.8292 66.7124L45.0977 67.9403C45.0115 67.9735 44.8888 68.0066 44.7298 68.0398C44.5707 68.0762 44.3718 68.0961 44.1332 68.0994C43.7421 68.1061 43.3775 68.0365 43.0394 67.8906C42.7013 67.7448 42.4279 67.5194 42.2191 67.2145C42.0103 66.9096 41.9059 66.5268 41.9059 66.0661V58.5341ZM49.7374 68.1541C49.0215 68.1541 48.3967 67.9901 47.8631 67.6619C47.3295 67.3338 46.9152 66.8748 46.6202 66.2848C46.3252 65.6948 46.1777 65.0054 46.1777 64.2166C46.1777 63.4245 46.3252 62.7318 46.6202 62.1385C46.9152 61.5452 47.3295 61.0845 47.8631 60.7564C48.3967 60.4283 49.0215 60.2642 49.7374 60.2642C50.4533 60.2642 51.0781 60.4283 51.6117 60.7564C52.1453 61.0845 52.5596 61.5452 52.8546 62.1385C53.1496 62.7318 53.2971 63.4245 53.2971 64.2166C53.2971 65.0054 53.1496 65.6948 52.8546 66.2848C52.5596 66.8748 52.1453 67.3338 51.6117 67.6619C51.0781 67.9901 50.4533 68.1541 49.7374 68.1541ZM49.7424 66.9062C50.2064 66.9062 50.5909 66.7836 50.8958 66.5384C51.2007 66.2931 51.4261 65.9666 51.5719 65.5589C51.7211 65.1513 51.7956 64.7022 51.7956 64.2116C51.7956 63.7244 51.7211 63.277 51.5719 62.8693C51.4261 62.4583 51.2007 62.1286 50.8958 61.88C50.5909 61.6314 50.2064 61.5071 49.7424 61.5071C49.275 61.5071 48.8873 61.6314 48.579 61.88C48.2741 62.1286 48.0471 62.4583 47.8979 62.8693C47.7521 63.277 47.6792 63.7244 47.6792 64.2116C47.6792 64.7022 47.7521 65.1513 47.8979 65.5589C48.0471 65.9666 48.2741 66.2931 48.579 66.5384C48.8873 66.7836 49.275 66.9062 49.7424 66.9062ZM54.9563 68V60.3636H56.3931V61.5767H56.4727C56.6119 61.1657 56.8571 60.8426 57.2085 60.6072C57.5631 60.3686 57.9641 60.2493 58.4116 60.2493C58.5044 60.2493 58.6138 60.2526 58.7397 60.2592C58.869 60.2659 58.9701 60.2741 59.043 60.2841V61.706C58.9833 61.6894 58.8772 61.6712 58.7248 61.6513C58.5723 61.6281 58.4199 61.6165 58.2674 61.6165C57.9161 61.6165 57.6029 61.6911 57.3278 61.8402C57.056 61.986 56.8406 62.1899 56.6815 62.4517C56.5224 62.7102 56.4428 63.0052 56.4428 63.3366V68H54.9563ZM63.3471 68.1541C62.5948 68.1541 61.9468 67.9934 61.4032 67.6719C60.863 67.3471 60.4454 66.8913 60.1504 66.3047C59.8587 65.7147 59.7129 65.0237 59.7129 64.2315C59.7129 63.4493 59.8587 62.7599 60.1504 62.1634C60.4454 61.5668 60.8564 61.1011 61.3833 60.7663C61.9136 60.4316 62.5334 60.2642 63.2427 60.2642C63.6736 60.2642 64.0912 60.3355 64.4956 60.478C64.8999 60.6205 65.2628 60.8442 65.5843 61.1491C65.9058 61.4541 66.1594 61.8501 66.345 62.3374C66.5306 62.8213 66.6234 63.4096 66.6234 64.1023V64.6293H60.5531V63.5156H65.1667C65.1667 63.1245 65.0872 62.7782 64.9281 62.4766C64.769 62.1716 64.5453 61.9313 64.2569 61.7557C63.9719 61.58 63.6371 61.4922 63.2527 61.4922C62.835 61.4922 62.4705 61.5949 62.1589 61.8004C61.8507 62.0026 61.612 62.2678 61.443 62.5959C61.2773 62.9207 61.1944 63.2737 61.1944 63.6548V64.5249C61.1944 65.0353 61.2839 65.4695 61.4629 65.8274C61.6452 66.1854 61.8987 66.4588 62.2235 66.6477C62.5484 66.8333 62.9279 66.9261 63.362 66.9261C63.6438 66.9261 63.9006 66.8864 64.1326 66.8068C64.3646 66.724 64.5652 66.6013 64.7342 66.4389C64.9032 66.2765 65.0325 66.076 65.122 65.8374L66.5289 66.0909C66.4163 66.5052 66.2141 66.8681 65.9224 67.1797C65.6341 67.4879 65.2711 67.7282 64.8336 67.9006C64.3994 68.0696 63.9039 68.1541 63.3471 68.1541ZM73.995 62.228L72.6477 62.4666C72.5914 62.2943 72.5019 62.1302 72.3793 61.9744C72.2599 61.8187 72.0975 61.6911 71.892 61.5916C71.6866 61.4922 71.4297 61.4425 71.1214 61.4425C70.7005 61.4425 70.3492 61.5369 70.0675 61.7259C69.7857 61.9115 69.6449 62.1518 69.6449 62.4467C69.6449 62.7019 69.7393 62.9074 69.9283 63.0632C70.1172 63.219 70.4221 63.3466 70.843 63.446L72.0561 63.7244C72.7588 63.8868 73.2824 64.1371 73.6271 64.4751C73.9718 64.8132 74.1442 65.2524 74.1442 65.7926C74.1442 66.25 74.0116 66.6577 73.7464 67.0156C73.4846 67.3703 73.1184 67.6487 72.6477 67.8509C72.1804 68.053 71.6385 68.1541 71.022 68.1541C70.1669 68.1541 69.4692 67.9718 68.929 67.6072C68.3887 67.2393 68.0573 66.7173 67.9347 66.0412L69.3714 65.8224C69.4609 66.197 69.6449 66.4804 69.9233 66.6726C70.2017 66.8615 70.5646 66.956 71.0121 66.956C71.4993 66.956 71.8887 66.8549 72.1804 66.6527C72.4721 66.4472 72.6179 66.197 72.6179 65.902C72.6179 65.6634 72.5284 65.4628 72.3494 65.3004C72.1738 65.138 71.9036 65.0154 71.5391 64.9325L70.2464 64.6491C69.5339 64.4867 69.0069 64.2282 68.6655 63.8736C68.3274 63.5189 68.1584 63.0698 68.1584 62.5263C68.1584 62.0755 68.2843 61.6811 68.5362 61.343C68.7881 61.005 69.1361 60.7415 69.5803 60.5526C70.0244 60.3603 70.5331 60.2642 71.1065 60.2642C71.9318 60.2642 72.5814 60.4432 73.0554 60.8011C73.5294 61.1558 73.8426 61.6314 73.995 62.228ZM82.3423 68.1491C81.7259 68.1491 81.1757 67.9917 80.6918 67.6768C80.2112 67.3587 79.8333 66.9062 79.5582 66.3196C79.2865 65.7296 79.1506 65.022 79.1506 64.1967C79.1506 63.3714 79.2881 62.6655 79.5632 62.0788C79.8416 61.4922 80.2228 61.0431 80.7067 60.7315C81.1906 60.42 81.7391 60.2642 82.3523 60.2642C82.8262 60.2642 83.2074 60.3438 83.4957 60.5028C83.7874 60.6586 84.0128 60.8409 84.1719 61.0497C84.3343 61.2585 84.4602 61.4425 84.5497 61.6016H84.6392V57.8182H86.1257V68H84.674V66.8118H84.5497C84.4602 66.9742 84.331 67.1598 84.1619 67.3686C83.9962 67.5774 83.7675 67.7597 83.4759 67.9155C83.1842 68.0713 82.8063 68.1491 82.3423 68.1491ZM82.6705 66.8814C83.098 66.8814 83.4593 66.7687 83.7543 66.5433C84.0526 66.3146 84.2779 65.9981 84.4304 65.5938C84.5862 65.1894 84.6641 64.7187 84.6641 64.1818C84.6641 63.6515 84.5878 63.1875 84.4354 62.7898C84.2829 62.392 84.0592 62.0821 83.7642 61.8601C83.4692 61.638 83.1046 61.527 82.6705 61.527C82.223 61.527 81.8501 61.643 81.5518 61.875C81.2536 62.107 81.0282 62.4235 80.8757 62.8246C80.7266 63.2256 80.652 63.678 80.652 64.1818C80.652 64.6922 80.7282 65.1513 80.8807 65.5589C81.0331 65.9666 81.2585 66.2898 81.5568 66.5284C81.8584 66.7637 82.2296 66.8814 82.6705 66.8814ZM91.5385 68.1541C90.7862 68.1541 90.1382 67.9934 89.5946 67.6719C89.0544 67.3471 88.6368 66.8913 88.3418 66.3047C88.0501 65.7147 87.9043 65.0237 87.9043 64.2315C87.9043 63.4493 88.0501 62.7599 88.3418 62.1634C88.6368 61.5668 89.0478 61.1011 89.5748 60.7663C90.1051 60.4316 90.7248 60.2642 91.4341 60.2642C91.865 60.2642 92.2826 60.3355 92.687 60.478C93.0913 60.6205 93.4542 60.8442 93.7757 61.1491C94.0972 61.4541 94.3508 61.8501 94.5364 62.3374C94.722 62.8213 94.8148 63.4096 94.8148 64.1023V64.6293H88.7445V63.5156H93.3581C93.3581 63.1245 93.2786 62.7782 93.1195 62.4766C92.9604 62.1716 92.7367 61.9313 92.4483 61.7557C92.1633 61.58 91.8285 61.4922 91.4441 61.4922C91.0265 61.4922 90.6619 61.5949 90.3503 61.8004C90.0421 62.0026 89.8034 62.2678 89.6344 62.5959C89.4687 62.9207 89.3858 63.2737 89.3858 63.6548V64.5249C89.3858 65.0353 89.4753 65.4695 89.6543 65.8274C89.8366 66.1854 90.0901 66.4588 90.415 66.6477C90.7398 66.8333 91.1193 66.9261 91.5534 66.9261C91.8352 66.9261 92.092 66.8864 92.324 66.8068C92.556 66.724 92.7566 66.6013 92.9256 66.4389C93.0946 66.2765 93.2239 66.076 93.3134 65.8374L94.7203 66.0909C94.6077 66.5052 94.4055 66.8681 94.1138 67.1797C93.8255 67.4879 93.4625 67.7282 93.025 67.9006C92.5908 68.0696 92.0953 68.1541 91.5385 68.1541ZM100.169 70.8636V60.3636H101.621V61.6016H101.745C101.831 61.4425 101.956 61.2585 102.118 61.0497C102.28 60.8409 102.506 60.6586 102.794 60.5028C103.083 60.3438 103.464 60.2642 103.938 60.2642C104.554 60.2642 105.104 60.42 105.588 60.7315C106.072 61.0431 106.452 61.4922 106.727 62.0788C107.005 62.6655 107.144 63.3714 107.144 64.1967C107.144 65.022 107.007 65.7296 106.732 66.3196C106.457 66.9062 106.079 67.3587 105.598 67.6768C105.118 67.9917 104.569 68.1491 103.953 68.1491C103.489 68.1491 103.109 68.0713 102.814 67.9155C102.522 67.7597 102.294 67.5774 102.128 67.3686C101.962 67.1598 101.835 66.9742 101.745 66.8118H101.656V70.8636H100.169ZM101.626 64.1818C101.626 64.7187 101.704 65.1894 101.86 65.5938C102.015 65.9981 102.241 66.3146 102.536 66.5433C102.831 66.7687 103.192 66.8814 103.619 66.8814C104.064 66.8814 104.435 66.7637 104.733 66.5284C105.031 66.2898 105.257 65.9666 105.409 65.5589C105.565 65.1513 105.643 64.6922 105.643 64.1818C105.643 63.678 105.567 63.2256 105.414 62.8246C105.265 62.4235 105.04 62.107 104.738 61.875C104.44 61.643 104.067 61.527 103.619 61.527C103.189 61.527 102.824 61.638 102.526 61.8601C102.231 62.0821 102.007 62.392 101.855 62.7898C101.702 63.1875 101.626 63.6515 101.626 64.1818ZM111.032 68.169C110.548 68.169 110.111 68.0795 109.72 67.9006C109.329 67.7183 109.019 67.4548 108.79 67.1101C108.565 66.7654 108.452 66.3428 108.452 65.8423C108.452 65.4115 108.535 65.0568 108.7 64.7784C108.866 64.5 109.09 64.2796 109.372 64.1172C109.653 63.9548 109.968 63.8321 110.316 63.7493C110.664 63.6664 111.019 63.6035 111.38 63.5604C111.838 63.5073 112.209 63.4643 112.494 63.4311C112.779 63.3946 112.986 63.3366 113.115 63.2571C113.244 63.1776 113.309 63.0483 113.309 62.8693V62.8345C113.309 62.4003 113.186 62.0639 112.941 61.8253C112.699 61.5866 112.338 61.4673 111.857 61.4673C111.357 61.4673 110.963 61.5784 110.674 61.8004C110.389 62.0192 110.192 62.2628 110.083 62.5312L108.686 62.2131C108.851 61.7491 109.093 61.3745 109.411 61.0895C109.733 60.8011 110.102 60.5923 110.52 60.4631C110.938 60.3305 111.377 60.2642 111.838 60.2642C112.142 60.2642 112.466 60.3007 112.807 60.3736C113.152 60.4432 113.473 60.5724 113.771 60.7614C114.073 60.9503 114.32 61.2204 114.512 61.5717C114.704 61.9197 114.801 62.3722 114.801 62.929V68H113.349V66.956H113.289C113.193 67.1482 113.049 67.3371 112.857 67.5227C112.664 67.7083 112.418 67.8625 112.116 67.9851C111.814 68.1077 111.453 68.169 111.032 68.169ZM111.355 66.9759C111.766 66.9759 112.118 66.8946 112.409 66.7322C112.704 66.5698 112.928 66.3577 113.08 66.0959C113.236 65.8307 113.314 65.5473 113.314 65.2457V64.2614C113.261 64.3144 113.158 64.3641 113.006 64.4105C112.857 64.4536 112.686 64.4917 112.494 64.5249C112.302 64.5547 112.114 64.5829 111.932 64.6094C111.75 64.6326 111.597 64.6525 111.475 64.669C111.186 64.7055 110.923 64.7668 110.684 64.853C110.449 64.9392 110.26 65.0634 110.117 65.2259C109.978 65.3849 109.909 65.5971 109.909 65.8622C109.909 66.2301 110.044 66.5085 110.316 66.6974C110.588 66.883 110.934 66.9759 111.355 66.9759ZM121.936 70.8636V66.8118H121.847C121.757 66.9742 121.628 67.1598 121.459 67.3686C121.293 67.5774 121.064 67.7597 120.773 67.9155C120.481 68.0713 120.103 68.1491 119.639 68.1491C119.023 68.1491 118.473 67.9917 117.989 67.6768C117.508 67.3587 117.13 66.9062 116.855 66.3196C116.583 65.7296 116.447 65.022 116.447 64.1967C116.447 63.3714 116.585 62.6655 116.86 62.0788C117.138 61.4922 117.52 61.0431 118.004 60.7315C118.487 60.42 119.036 60.2642 119.649 60.2642C120.123 60.2642 120.504 60.3438 120.793 60.5028C121.084 60.6586 121.31 60.8409 121.469 61.0497C121.631 61.2585 121.757 61.4425 121.847 61.6016H121.971V60.3636H123.423V70.8636H121.936ZM119.967 66.8814C120.395 66.8814 120.756 66.7687 121.051 66.5433C121.349 66.3146 121.575 65.9981 121.727 65.5938C121.883 65.1894 121.961 64.7187 121.961 64.1818C121.961 63.6515 121.885 63.1875 121.732 62.7898C121.58 62.392 121.356 62.0821 121.061 61.8601C120.766 61.638 120.402 61.527 119.967 61.527C119.52 61.527 119.147 61.643 118.849 61.875C118.55 62.107 118.325 62.4235 118.173 62.8246C118.023 63.2256 117.949 63.678 117.949 64.1818C117.949 64.6922 118.025 65.1513 118.178 65.5589C118.33 65.9666 118.555 66.2898 118.854 66.5284C119.155 66.7637 119.527 66.8814 119.967 66.8814ZM130.259 64.8331V60.3636H131.75V68H130.288V66.6776H130.209C130.033 67.0852 129.751 67.425 129.364 67.6967C128.979 67.9652 128.5 68.0994 127.927 68.0994C127.436 68.0994 127.002 67.9917 126.624 67.7763C126.25 67.5575 125.955 67.2344 125.739 66.8068C125.527 66.3793 125.421 65.8506 125.421 65.2209V60.3636H126.908V65.0419C126.908 65.5623 127.052 65.9766 127.34 66.2848C127.629 66.593 128.003 66.7472 128.464 66.7472C128.742 66.7472 129.019 66.6776 129.294 66.5384C129.572 66.3991 129.803 66.1887 129.985 65.907C130.171 65.6252 130.262 65.2673 130.259 64.8331ZM137.039 68.1541C136.286 68.1541 135.638 67.9934 135.095 67.6719C134.554 67.3471 134.137 66.8913 133.842 66.3047C133.55 65.7147 133.404 65.0237 133.404 64.2315C133.404 63.4493 133.55 62.7599 133.842 62.1634C134.137 61.5668 134.548 61.1011 135.075 60.7663C135.605 60.4316 136.225 60.2642 136.934 60.2642C137.365 60.2642 137.783 60.3355 138.187 60.478C138.591 60.6205 138.954 60.8442 139.276 61.1491C139.597 61.4541 139.851 61.8501 140.036 62.3374C140.222 62.8213 140.315 63.4096 140.315 64.1023V64.6293H134.244V63.5156H138.858C138.858 63.1245 138.779 62.7782 138.619 62.4766C138.46 62.1716 138.237 61.9313 137.948 61.7557C137.663 61.58 137.329 61.4922 136.944 61.4922C136.526 61.4922 136.162 61.5949 135.85 61.8004C135.542 62.0026 135.303 62.2678 135.134 62.5959C134.969 62.9207 134.886 63.2737 134.886 63.6548V64.5249C134.886 65.0353 134.975 65.4695 135.154 65.8274C135.337 66.1854 135.59 66.4588 135.915 66.6477C136.24 66.8333 136.619 66.9261 137.053 66.9261C137.335 66.9261 137.592 66.8864 137.824 66.8068C138.056 66.724 138.257 66.6013 138.426 66.4389C138.595 66.2765 138.724 66.076 138.813 65.8374L140.22 66.0909C140.108 66.5052 139.905 66.8681 139.614 67.1797C139.325 67.4879 138.963 67.7282 138.525 67.9006C138.091 68.0696 137.595 68.1541 137.039 68.1541ZM145.529 60.3636V61.5568H141.358V60.3636H145.529ZM142.476 58.5341H143.963V65.7578C143.963 66.0462 144.006 66.2633 144.092 66.4091C144.178 66.5516 144.289 66.6494 144.425 66.7024C144.564 66.7521 144.715 66.777 144.877 66.777C144.997 66.777 145.101 66.7687 145.191 66.7521C145.28 66.7356 145.35 66.7223 145.4 66.7124L145.668 67.9403C145.582 67.9735 145.459 68.0066 145.3 68.0398C145.141 68.0762 144.942 68.0961 144.703 68.0994C144.312 68.1061 143.948 68.0365 143.61 67.8906C143.272 67.7448 142.998 67.5194 142.789 67.2145C142.581 66.9096 142.476 66.5268 142.476 66.0661V58.5341ZM150.382 68.1541C149.63 68.1541 148.982 67.9934 148.438 67.6719C147.898 67.3471 147.481 66.8913 147.186 66.3047C146.894 65.7147 146.748 65.0237 146.748 64.2315C146.748 63.4493 146.894 62.7599 147.186 62.1634C147.481 61.5668 147.892 61.1011 148.419 60.7663C148.949 60.4316 149.569 60.2642 150.278 60.2642C150.709 60.2642 151.126 60.3355 151.531 60.478C151.935 60.6205 152.298 60.8442 152.619 61.1491C152.941 61.4541 153.195 61.8501 153.38 62.3374C153.566 62.8213 153.659 63.4096 153.659 64.1023V64.6293H147.588V63.5156H152.202C152.202 63.1245 152.122 62.7782 151.963 62.4766C151.804 62.1716 151.58 61.9313 151.292 61.7557C151.007 61.58 150.672 61.4922 150.288 61.4922C149.87 61.4922 149.506 61.5949 149.194 61.8004C148.886 62.0026 148.647 62.2678 148.478 62.5959C148.312 62.9207 148.23 63.2737 148.23 63.6548V64.5249C148.23 65.0353 148.319 65.4695 148.498 65.8274C148.68 66.1854 148.934 66.4588 149.259 66.6477C149.584 66.8333 149.963 66.9261 150.397 66.9261C150.679 66.9261 150.936 66.8864 151.168 66.8068C151.4 66.724 151.6 66.6013 151.769 66.4389C151.938 66.2765 152.068 66.076 152.157 65.8374L153.564 66.0909C153.451 66.5052 153.249 66.8681 152.958 67.1797C152.669 67.4879 152.306 67.7282 151.869 67.9006C151.435 68.0696 150.939 68.1541 150.382 68.1541ZM161.03 62.228L159.683 62.4666C159.627 62.2943 159.537 62.1302 159.414 61.9744C159.295 61.8187 159.133 61.6911 158.927 61.5916C158.722 61.4922 158.465 61.4425 158.157 61.4425C157.736 61.4425 157.384 61.5369 157.103 61.7259C156.821 61.9115 156.68 62.1518 156.68 62.4467C156.68 62.7019 156.775 62.9074 156.963 63.0632C157.152 63.219 157.457 63.3466 157.878 63.446L159.091 63.7244C159.794 63.8868 160.318 64.1371 160.662 64.4751C161.007 64.8132 161.179 65.2524 161.179 65.7926C161.179 66.25 161.047 66.6577 160.782 67.0156C160.52 67.3703 160.154 67.6487 159.683 67.8509C159.216 68.053 158.674 68.1541 158.057 68.1541C157.202 68.1541 156.504 67.9718 155.964 67.6072C155.424 67.2393 155.092 66.7173 154.97 66.0412L156.407 65.8224C156.496 66.197 156.68 66.4804 156.958 66.6726C157.237 66.8615 157.6 66.956 158.047 66.956C158.534 66.956 158.924 66.8549 159.216 66.6527C159.507 66.4472 159.653 66.197 159.653 65.902C159.653 65.6634 159.564 65.4628 159.385 65.3004C159.209 65.138 158.939 65.0154 158.574 64.9325L157.282 64.6491C156.569 64.4867 156.042 64.2282 155.701 63.8736C155.363 63.5189 155.194 63.0698 155.194 62.5263C155.194 62.0755 155.319 61.6811 155.571 61.343C155.823 61.005 156.171 60.7415 156.615 60.5526C157.06 60.3603 157.568 60.2642 158.142 60.2642C158.967 60.2642 159.617 60.4432 160.091 60.8011C160.565 61.1558 160.878 61.6314 161.03 62.228Z" fill="#40C18A"/>
<rect y="106" width="168" height="20" rx="10" fill="white"/>
<path d="M6.33132 112.141V110.818H14.2113V112.141H11.0344V121H9.5032V112.141H6.33132ZM17.0165 121.169C16.5326 121.169 16.0951 121.08 15.704 120.901C15.3129 120.718 15.003 120.455 14.7743 120.11C14.5489 119.765 14.4363 119.343 14.4363 118.842C14.4363 118.411 14.5191 118.057 14.6848 117.778C14.8506 117.5 15.0743 117.28 15.356 117.117C15.6377 116.955 15.9526 116.832 16.3006 116.749C16.6486 116.666 17.0033 116.603 17.3645 116.56C17.8219 116.507 18.1931 116.464 18.4782 116.431C18.7632 116.395 18.9703 116.337 19.0996 116.257C19.2289 116.178 19.2935 116.048 19.2935 115.869V115.835C19.2935 115.4 19.1709 115.064 18.9256 114.825C18.6837 114.587 18.3224 114.467 17.8418 114.467C17.3413 114.467 16.9469 114.578 16.6586 114.8C16.3735 115.019 16.1763 115.263 16.0669 115.531L14.6699 115.213C14.8356 114.749 15.0776 114.375 15.3958 114.089C15.7173 113.801 16.0868 113.592 16.5044 113.463C16.9221 113.33 17.3612 113.264 17.8219 113.264C18.1268 113.264 18.45 113.301 18.7914 113.374C19.1361 113.443 19.4576 113.572 19.7559 113.761C20.0575 113.95 20.3044 114.22 20.4966 114.572C20.6889 114.92 20.785 115.372 20.785 115.929V121H19.3333V119.956H19.2736C19.1775 120.148 19.0333 120.337 18.8411 120.523C18.6489 120.708 18.4019 120.862 18.1003 120.985C17.7987 121.108 17.4374 121.169 17.0165 121.169ZM17.3397 119.976C17.7507 119.976 18.102 119.895 18.3936 119.732C18.6886 119.57 18.9123 119.358 19.0648 119.096C19.2206 118.831 19.2985 118.547 19.2985 118.246V117.261C19.2454 117.314 19.1427 117.364 18.9902 117.411C18.8411 117.454 18.6704 117.492 18.4782 117.525C18.2859 117.555 18.0987 117.583 17.9164 117.609C17.7341 117.633 17.5816 117.652 17.459 117.669C17.1706 117.705 16.9071 117.767 16.6685 117.853C16.4332 117.939 16.2443 118.063 16.1017 118.226C15.9625 118.385 15.8929 118.597 15.8929 118.862C15.8929 119.23 16.0288 119.509 16.3006 119.697C16.5724 119.883 16.9187 119.976 17.3397 119.976ZM22.7649 121V113.364H24.2017V114.577H24.2812C24.4205 114.166 24.6657 113.843 25.017 113.607C25.3717 113.369 25.7727 113.249 26.2202 113.249C26.313 113.249 26.4223 113.253 26.5483 113.259C26.6776 113.266 26.7786 113.274 26.8516 113.284V114.706C26.7919 114.689 26.6858 114.671 26.5334 114.651C26.3809 114.628 26.2285 114.616 26.076 114.616C25.7247 114.616 25.4115 114.691 25.1364 114.84C24.8646 114.986 24.6491 115.19 24.4901 115.452C24.331 115.71 24.2514 116.005 24.2514 116.337V121H22.7649ZM31.1557 121.154C30.4033 121.154 29.7554 120.993 29.2118 120.672C28.6716 120.347 28.254 119.891 27.959 119.305C27.6673 118.715 27.5215 118.024 27.5215 117.232C27.5215 116.449 27.6673 115.76 27.959 115.163C28.254 114.567 28.665 114.101 29.1919 113.766C29.7222 113.432 30.342 113.264 31.0513 113.264C31.4822 113.264 31.8998 113.335 32.3042 113.478C32.7085 113.621 33.0714 113.844 33.3929 114.149C33.7144 114.454 33.968 114.85 34.1536 115.337C34.3392 115.821 34.432 116.41 34.432 117.102V117.629H28.3617V116.516H32.9753C32.9753 116.125 32.8958 115.778 32.7367 115.477C32.5776 115.172 32.3539 114.931 32.0655 114.756C31.7805 114.58 31.4457 114.492 31.0613 114.492C30.6436 114.492 30.2791 114.595 29.9675 114.8C29.6593 115.003 29.4206 115.268 29.2516 115.596C29.0859 115.921 29.003 116.274 29.003 116.655V117.525C29.003 118.035 29.0925 118.469 29.2715 118.827C29.4538 119.185 29.7073 119.459 30.0321 119.648C30.3569 119.833 30.7364 119.926 31.1706 119.926C31.4524 119.926 31.7092 119.886 31.9412 119.807C32.1732 119.724 32.3738 119.601 32.5428 119.439C32.7118 119.277 32.8411 119.076 32.9306 118.837L34.3375 119.091C34.2248 119.505 34.0227 119.868 33.731 120.18C33.4426 120.488 33.0797 120.728 32.6422 120.901C32.208 121.07 31.7125 121.154 31.1557 121.154ZM38.3036 121.169C37.8197 121.169 37.3822 121.08 36.9911 120.901C36.6 120.718 36.2901 120.455 36.0614 120.11C35.8361 119.765 35.7234 119.343 35.7234 118.842C35.7234 118.411 35.8062 118.057 35.9719 117.778C36.1377 117.5 36.3614 117.28 36.6431 117.117C36.9248 116.955 37.2397 116.832 37.5877 116.749C37.9357 116.666 38.2904 116.603 38.6516 116.56C39.109 116.507 39.4802 116.464 39.7653 116.431C40.0503 116.395 40.2575 116.337 40.3867 116.257C40.516 116.178 40.5806 116.048 40.5806 115.869V115.835C40.5806 115.4 40.458 115.064 40.2127 114.825C39.9708 114.587 39.6095 114.467 39.1289 114.467C38.6284 114.467 38.234 114.578 37.9457 114.8C37.6606 115.019 37.4634 115.263 37.354 115.531L35.957 115.213C36.1228 114.749 36.3647 114.375 36.6829 114.089C37.0044 113.801 37.3739 113.592 37.7915 113.463C38.2092 113.33 38.6483 113.264 39.109 113.264C39.4139 113.264 39.7371 113.301 40.0785 113.374C40.4232 113.443 40.7447 113.572 41.043 113.761C41.3446 113.95 41.5915 114.22 41.7837 114.572C41.976 114.92 42.0721 115.372 42.0721 115.929V121H40.6204V119.956H40.5607C40.4646 120.148 40.3204 120.337 40.1282 120.523C39.936 120.708 39.689 120.862 39.3874 120.985C39.0858 121.108 38.7246 121.169 38.3036 121.169ZM38.6268 119.976C39.0378 119.976 39.3891 119.895 39.6808 119.732C39.9757 119.57 40.1995 119.358 40.3519 119.096C40.5077 118.831 40.5856 118.547 40.5856 118.246V117.261C40.5326 117.314 40.4298 117.364 40.2773 117.411C40.1282 117.454 39.9575 117.492 39.7653 117.525C39.573 117.555 39.3858 117.583 39.2035 117.609C39.0212 117.633 38.8687 117.652 38.7461 117.669C38.4577 117.705 38.1942 117.767 37.9556 117.853C37.7203 117.939 37.5314 118.063 37.3888 118.226C37.2496 118.385 37.18 118.597 37.18 118.862C37.18 119.23 37.3159 119.509 37.5877 119.697C37.8595 119.883 38.2058 119.976 38.6268 119.976ZM49.7743 115.228L48.427 115.467C48.3707 115.294 48.2812 115.13 48.1586 114.974C48.0392 114.819 47.8768 114.691 47.6713 114.592C47.4659 114.492 47.209 114.442 46.9007 114.442C46.4798 114.442 46.1285 114.537 45.8468 114.726C45.565 114.911 45.4242 115.152 45.4242 115.447C45.4242 115.702 45.5186 115.907 45.7076 116.063C45.8965 116.219 46.2014 116.347 46.6223 116.446L47.8354 116.724C48.5381 116.887 49.0617 117.137 49.4064 117.475C49.7511 117.813 49.9235 118.252 49.9235 118.793C49.9235 119.25 49.7909 119.658 49.5257 120.016C49.2639 120.37 48.8977 120.649 48.427 120.851C47.9597 121.053 47.4178 121.154 46.8013 121.154C45.9462 121.154 45.2485 120.972 44.7083 120.607C44.168 120.239 43.8366 119.717 43.714 119.041L45.1507 118.822C45.2402 119.197 45.4242 119.48 45.7026 119.673C45.981 119.862 46.3439 119.956 46.7914 119.956C47.2786 119.956 47.668 119.855 47.9597 119.653C48.2514 119.447 48.3972 119.197 48.3972 118.902C48.3972 118.663 48.3077 118.463 48.1287 118.3C47.9531 118.138 47.6829 118.015 47.3184 117.933L46.0257 117.649C45.3132 117.487 44.7862 117.228 44.4448 116.874C44.1067 116.519 43.9377 116.07 43.9377 115.526C43.9377 115.076 44.0636 114.681 44.3155 114.343C44.5674 114.005 44.9154 113.741 45.3596 113.553C45.8037 113.36 46.3124 113.264 46.8858 113.264C47.7111 113.264 48.3607 113.443 48.8347 113.801C49.3087 114.156 49.6219 114.631 49.7743 115.228ZM58.1216 121.149C57.5051 121.149 56.955 120.992 56.4711 120.677C55.9905 120.359 55.6126 119.906 55.3375 119.32C55.0658 118.73 54.9299 118.022 54.9299 117.197C54.9299 116.371 55.0674 115.665 55.3425 115.079C55.6209 114.492 56.0021 114.043 56.486 113.732C56.9699 113.42 57.5184 113.264 58.1316 113.264C58.6055 113.264 58.9867 113.344 59.275 113.503C59.5667 113.659 59.7921 113.841 59.9512 114.05C60.1136 114.259 60.2395 114.442 60.329 114.602H60.4185V110.818H61.905V121H60.4533V119.812H60.329C60.2395 119.974 60.1103 120.16 59.9412 120.369C59.7755 120.577 59.5468 120.76 59.2551 120.915C58.9635 121.071 58.5856 121.149 58.1216 121.149ZM58.4498 119.881C58.8773 119.881 59.2386 119.769 59.5336 119.543C59.8319 119.315 60.0572 118.998 60.2097 118.594C60.3655 118.189 60.4434 117.719 60.4434 117.182C60.4434 116.652 60.3671 116.187 60.2147 115.79C60.0622 115.392 59.8385 115.082 59.5435 114.86C59.2485 114.638 58.8839 114.527 58.4498 114.527C58.0023 114.527 57.6294 114.643 57.3311 114.875C57.0328 115.107 56.8075 115.424 56.655 115.825C56.5059 116.226 56.4313 116.678 56.4313 117.182C56.4313 117.692 56.5075 118.151 56.66 118.559C56.8124 118.967 57.0378 119.29 57.3361 119.528C57.6377 119.764 58.0089 119.881 58.4498 119.881ZM67.3178 121.154C66.5655 121.154 65.9175 120.993 65.3739 120.672C64.8337 120.347 64.4161 119.891 64.1211 119.305C63.8294 118.715 63.6836 118.024 63.6836 117.232C63.6836 116.449 63.8294 115.76 64.1211 115.163C64.4161 114.567 64.8271 114.101 65.354 113.766C65.8844 113.432 66.5041 113.264 67.2134 113.264C67.6443 113.264 68.0619 113.335 68.4663 113.478C68.8706 113.621 69.2335 113.844 69.555 114.149C69.8765 114.454 70.1301 114.85 70.3157 115.337C70.5013 115.821 70.5941 116.41 70.5941 117.102V117.629H64.5238V116.516H69.1374C69.1374 116.125 69.0579 115.778 68.8988 115.477C68.7397 115.172 68.516 114.931 68.2276 114.756C67.9426 114.58 67.6078 114.492 67.2234 114.492C66.8058 114.492 66.4412 114.595 66.1296 114.8C65.8214 115.003 65.5827 115.268 65.4137 115.596C65.248 115.921 65.1651 116.274 65.1651 116.655V117.525C65.1651 118.035 65.2546 118.469 65.4336 118.827C65.6159 119.185 65.8694 119.459 66.1942 119.648C66.5191 119.833 66.8986 119.926 67.3327 119.926C67.6145 119.926 67.8713 119.886 68.1033 119.807C68.3353 119.724 68.5359 119.601 68.7049 119.439C68.8739 119.277 69.0032 119.076 69.0927 118.837L70.4996 119.091C70.387 119.505 70.1848 119.868 69.8931 120.18C69.6048 120.488 69.2418 120.728 68.8043 120.901C68.3701 121.07 67.8746 121.154 67.3178 121.154ZM79.1651 121.154C78.426 121.154 77.7897 120.987 77.256 120.652C76.7257 120.314 76.3181 119.848 76.033 119.255C75.748 118.662 75.6055 117.982 75.6055 117.217C75.6055 116.441 75.7513 115.757 76.043 115.163C76.3346 114.567 76.7456 114.101 77.2759 113.766C77.8062 113.432 78.431 113.264 79.1502 113.264C79.7302 113.264 80.2473 113.372 80.7013 113.587C81.1554 113.799 81.5217 114.098 81.8001 114.482C82.0818 114.867 82.2492 115.316 82.3022 115.83H80.8555C80.7759 115.472 80.5936 115.163 80.3086 114.905C80.0269 114.646 79.649 114.517 79.1751 114.517C78.7608 114.517 78.3978 114.626 78.0863 114.845C77.7781 115.061 77.5378 115.369 77.3654 115.77C77.1931 116.168 77.1069 116.638 77.1069 117.182C77.1069 117.739 77.1914 118.219 77.3604 118.624C77.5295 119.028 77.7681 119.341 78.0763 119.563C78.3879 119.785 78.7541 119.896 79.1751 119.896C79.4568 119.896 79.712 119.845 79.9407 119.742C80.1727 119.636 80.3666 119.485 80.5224 119.29C80.6815 119.094 80.7925 118.859 80.8555 118.584H82.3022C82.2492 119.078 82.0884 119.518 81.82 119.906C81.5515 120.294 81.1919 120.599 80.7411 120.821C80.2937 121.043 79.7683 121.154 79.1651 121.154ZM87.1085 121.154C86.3926 121.154 85.7678 120.99 85.2342 120.662C84.7006 120.334 84.2863 119.875 83.9913 119.285C83.6963 118.695 83.5488 118.005 83.5488 117.217C83.5488 116.424 83.6963 115.732 83.9913 115.138C84.2863 114.545 84.7006 114.085 85.2342 113.756C85.7678 113.428 86.3926 113.264 87.1085 113.264C87.8244 113.264 88.4492 113.428 88.9828 113.756C89.5164 114.085 89.9307 114.545 90.2257 115.138C90.5207 115.732 90.6681 116.424 90.6681 117.217C90.6681 118.005 90.5207 118.695 90.2257 119.285C89.9307 119.875 89.5164 120.334 88.9828 120.662C88.4492 120.99 87.8244 121.154 87.1085 121.154ZM87.1135 119.906C87.5775 119.906 87.9619 119.784 88.2669 119.538C88.5718 119.293 88.7972 118.967 88.943 118.559C89.0922 118.151 89.1667 117.702 89.1667 117.212C89.1667 116.724 89.0922 116.277 88.943 115.869C88.7972 115.458 88.5718 115.129 88.2669 114.88C87.9619 114.631 87.5775 114.507 87.1135 114.507C86.6461 114.507 86.2583 114.631 85.9501 114.88C85.6452 115.129 85.4181 115.458 85.269 115.869C85.1232 116.277 85.0502 116.724 85.0502 117.212C85.0502 117.702 85.1232 118.151 85.269 118.559C85.4181 118.967 85.6452 119.293 85.9501 119.538C86.2583 119.784 86.6461 119.906 87.1135 119.906ZM93.8139 116.466V121H92.3274V113.364H93.7543V114.607H93.8487C94.0244 114.202 94.2995 113.877 94.674 113.632C95.0518 113.387 95.5275 113.264 96.1009 113.264C96.6212 113.264 97.0769 113.374 97.468 113.592C97.8591 113.808 98.1624 114.129 98.3778 114.557C98.5933 114.984 98.701 115.513 98.701 116.143V121H97.2145V116.322C97.2145 115.768 97.0703 115.336 96.782 115.024C96.4936 114.709 96.0975 114.552 95.5938 114.552C95.2491 114.552 94.9425 114.626 94.674 114.776C94.4089 114.925 94.1984 115.143 94.0426 115.432C93.8902 115.717 93.8139 116.062 93.8139 116.466ZM106.417 115.228L105.07 115.467C105.013 115.294 104.924 115.13 104.801 114.974C104.682 114.819 104.519 114.691 104.314 114.592C104.108 114.492 103.852 114.442 103.543 114.442C103.122 114.442 102.771 114.537 102.489 114.726C102.208 114.911 102.067 115.152 102.067 115.447C102.067 115.702 102.161 115.907 102.35 116.063C102.539 116.219 102.844 116.347 103.265 116.446L104.478 116.724C105.181 116.887 105.704 117.137 106.049 117.475C106.394 117.813 106.566 118.252 106.566 118.793C106.566 119.25 106.433 119.658 106.168 120.016C105.906 120.37 105.54 120.649 105.07 120.851C104.602 121.053 104.06 121.154 103.444 121.154C102.589 121.154 101.891 120.972 101.351 120.607C100.811 120.239 100.479 119.717 100.357 119.041L101.793 118.822C101.883 119.197 102.067 119.48 102.345 119.673C102.624 119.862 102.987 119.956 103.434 119.956C103.921 119.956 104.311 119.855 104.602 119.653C104.894 119.447 105.04 119.197 105.04 118.902C105.04 118.663 104.95 118.463 104.771 118.3C104.596 118.138 104.326 118.015 103.961 117.933L102.668 117.649C101.956 117.487 101.429 117.228 101.087 116.874C100.749 116.519 100.58 116.07 100.58 115.526C100.58 115.076 100.706 114.681 100.958 114.343C101.21 114.005 101.558 113.741 102.002 113.553C102.446 113.36 102.955 113.264 103.528 113.264C104.354 113.264 105.003 113.443 105.477 113.801C105.951 114.156 106.264 114.631 106.417 115.228ZM111.765 113.364V114.557H107.594V113.364H111.765ZM108.713 111.534H110.199V118.758C110.199 119.046 110.242 119.263 110.328 119.409C110.414 119.552 110.526 119.649 110.661 119.702C110.801 119.752 110.951 119.777 111.114 119.777C111.233 119.777 111.338 119.769 111.427 119.752C111.517 119.736 111.586 119.722 111.636 119.712L111.904 120.94C111.818 120.973 111.695 121.007 111.536 121.04C111.377 121.076 111.178 121.096 110.94 121.099C110.549 121.106 110.184 121.036 109.846 120.891C109.508 120.745 109.235 120.519 109.026 120.214C108.817 119.91 108.713 119.527 108.713 119.066V111.534ZM113.409 121V113.364H114.846V114.577H114.926C115.065 114.166 115.31 113.843 115.662 113.607C116.016 113.369 116.417 113.249 116.865 113.249C116.958 113.249 117.067 113.253 117.193 113.259C117.322 113.266 117.423 113.274 117.496 113.284V114.706C117.436 114.689 117.33 114.671 117.178 114.651C117.025 114.628 116.873 114.616 116.721 114.616C116.369 114.616 116.056 114.691 115.781 114.84C115.509 114.986 115.294 115.19 115.135 115.452C114.975 115.71 114.896 116.005 114.896 116.337V121H113.409ZM123.62 117.833V113.364H125.111V121H123.65V119.678H123.57C123.394 120.085 123.113 120.425 122.725 120.697C122.34 120.965 121.862 121.099 121.288 121.099C120.798 121.099 120.363 120.992 119.986 120.776C119.611 120.558 119.316 120.234 119.101 119.807C118.889 119.379 118.782 118.851 118.782 118.221V113.364H120.269V118.042C120.269 118.562 120.413 118.977 120.702 119.285C120.99 119.593 121.364 119.747 121.825 119.747C122.104 119.747 122.38 119.678 122.655 119.538C122.934 119.399 123.164 119.189 123.346 118.907C123.532 118.625 123.623 118.267 123.62 117.833ZM130.325 121.154C129.586 121.154 128.95 120.987 128.416 120.652C127.886 120.314 127.478 119.848 127.193 119.255C126.908 118.662 126.766 117.982 126.766 117.217C126.766 116.441 126.911 115.757 127.203 115.163C127.495 114.567 127.906 114.101 128.436 113.766C128.966 113.432 129.591 113.264 130.31 113.264C130.89 113.264 131.407 113.372 131.862 113.587C132.316 113.799 132.682 114.098 132.96 114.482C133.242 114.867 133.409 115.316 133.462 115.83H132.016C131.936 115.472 131.754 115.163 131.469 114.905C131.187 114.646 130.809 114.517 130.335 114.517C129.921 114.517 129.558 114.626 129.246 114.845C128.938 115.061 128.698 115.369 128.526 115.77C128.353 116.168 128.267 116.638 128.267 117.182C128.267 117.739 128.352 118.219 128.521 118.624C128.69 119.028 128.928 119.341 129.237 119.563C129.548 119.785 129.914 119.896 130.335 119.896C130.617 119.896 130.872 119.845 131.101 119.742C131.333 119.636 131.527 119.485 131.683 119.29C131.842 119.094 131.953 118.859 132.016 118.584H133.462C133.409 119.078 133.249 119.518 132.98 119.906C132.712 120.294 132.352 120.599 131.901 120.821C131.454 121.043 130.929 121.154 130.325 121.154ZM138.269 121.154C137.53 121.154 136.893 120.987 136.36 120.652C135.829 120.314 135.422 119.848 135.137 119.255C134.852 118.662 134.709 117.982 134.709 117.217C134.709 116.441 134.855 115.757 135.146 115.163C135.438 114.567 135.849 114.101 136.379 113.766C136.91 113.432 137.535 113.264 138.254 113.264C138.834 113.264 139.351 113.372 139.805 113.587C140.259 113.799 140.625 114.098 140.904 114.482C141.185 114.867 141.353 115.316 141.406 115.83H139.959C139.879 115.472 139.697 115.163 139.412 114.905C139.13 114.646 138.753 114.517 138.279 114.517C137.864 114.517 137.501 114.626 137.19 114.845C136.882 115.061 136.641 115.369 136.469 115.77C136.297 116.168 136.21 116.638 136.21 117.182C136.21 117.739 136.295 118.219 136.464 118.624C136.633 119.028 136.872 119.341 137.18 119.563C137.491 119.785 137.858 119.896 138.279 119.896C138.56 119.896 138.816 119.845 139.044 119.742C139.276 119.636 139.47 119.485 139.626 119.29C139.785 119.094 139.896 118.859 139.959 118.584H141.406C141.353 119.078 141.192 119.518 140.923 119.906C140.655 120.294 140.295 120.599 139.845 120.821C139.397 121.043 138.872 121.154 138.269 121.154ZM142.995 121V113.364H144.482V121H142.995ZM143.746 112.185C143.488 112.185 143.266 112.099 143.08 111.927C142.898 111.751 142.806 111.542 142.806 111.3C142.806 111.055 142.898 110.846 143.08 110.674C143.266 110.498 143.488 110.411 143.746 110.411C144.005 110.411 144.225 110.498 144.407 110.674C144.593 110.846 144.686 111.055 144.686 111.3C144.686 111.542 144.593 111.751 144.407 111.927C144.225 112.099 144.005 112.185 143.746 112.185ZM149.698 121.154C148.982 121.154 148.358 120.99 147.824 120.662C147.29 120.334 146.876 119.875 146.581 119.285C146.286 118.695 146.139 118.005 146.139 117.217C146.139 116.424 146.286 115.732 146.581 115.138C146.876 114.545 147.29 114.085 147.824 113.756C148.358 113.428 148.982 113.264 149.698 113.264C150.414 113.264 151.039 113.428 151.573 113.756C152.106 114.085 152.521 114.545 152.816 115.138C153.11 115.732 153.258 116.424 153.258 117.217C153.258 118.005 153.11 118.695 152.816 119.285C152.521 119.875 152.106 120.334 151.573 120.662C151.039 120.99 150.414 121.154 149.698 121.154ZM149.703 119.906C150.167 119.906 150.552 119.784 150.857 119.538C151.162 119.293 151.387 118.967 151.533 118.559C151.682 118.151 151.757 117.702 151.757 117.212C151.757 116.724 151.682 116.277 151.533 115.869C151.387 115.458 151.162 115.129 150.857 114.88C150.552 114.631 150.167 114.507 149.703 114.507C149.236 114.507 148.848 114.631 148.54 114.88C148.235 115.129 148.008 115.458 147.859 115.869C147.713 116.277 147.64 116.724 147.64 117.212C147.64 117.702 147.713 118.151 147.859 118.559C148.008 118.967 148.235 119.293 148.54 119.538C148.848 119.784 149.236 119.906 149.703 119.906ZM149.087 112.344L150.25 110.053H151.816L150.275 112.344H149.087ZM156.404 116.466V121H154.917V113.364H156.344V114.607H156.439C156.614 114.202 156.889 113.877 157.264 113.632C157.642 113.387 158.117 113.264 158.691 113.264C159.211 113.264 159.667 113.374 160.058 113.592C160.449 113.808 160.752 114.129 160.968 114.557C161.183 114.984 161.291 115.513 161.291 116.143V121H159.804V116.322C159.804 115.768 159.66 115.336 159.372 115.024C159.083 114.709 158.687 114.552 158.184 114.552C157.839 114.552 157.532 114.626 157.264 114.776C156.999 114.925 156.788 115.143 156.632 115.432C156.48 115.717 156.404 116.062 156.404 116.466Z" fill="#40C18A"/>
<line x1="168" y1="62.5" x2="359" y2="62.5" stroke="#40C18A"/>
<path d="M359.5 62L231.5 62L228.063 72.7025C219.683 98.8001 195.41 116.5 168 116.5V116.5" stroke="#40C18A"/>
<path d="M359 62L230.664 62L227.468 52.9378C218.499 27.5077 194.465 10.5 167.5 10.5V10.5" stroke="#40C18A"/>
</svg>
