<svg width="266" height="126" viewBox="0 0 266 126" fill="none" xmlns="http://www.w3.org/2000/svg">
<rect x="191" width="75" height="20" rx="10" fill="white"/>
<path d="M204.495 15H202.865L206.529 4.81818H208.304L211.968 15H210.337L207.458 6.66761H207.379L204.495 15ZM204.769 11.0128H210.059V12.3054H204.769V11.0128ZM214.805 10.4659V15H213.319V7.36364H214.745V8.60653H214.84C215.016 8.20218 215.291 7.87737 215.665 7.6321C216.043 7.38684 216.519 7.2642 217.092 7.2642C217.612 7.2642 218.068 7.37358 218.459 7.59233C218.85 7.80777 219.154 8.12926 219.369 8.55682C219.584 8.98437 219.692 9.51302 219.692 10.1428V15H218.206V10.3217C218.206 9.76823 218.062 9.3357 217.773 9.02415C217.485 8.70928 217.089 8.55185 216.585 8.55185C216.24 8.55185 215.934 8.62642 215.665 8.77557C215.4 8.92472 215.19 9.14347 215.034 9.43182C214.881 9.71686 214.805 10.0616 214.805 10.4659ZM224.888 18.0227C224.281 18.0227 223.759 17.9432 223.321 17.7841C222.887 17.625 222.533 17.4145 222.258 17.1527C221.982 16.8909 221.777 16.6042 221.641 16.2926L222.919 15.7656C223.008 15.9115 223.128 16.0656 223.277 16.228C223.429 16.3937 223.635 16.5346 223.893 16.6506C224.155 16.7666 224.491 16.8246 224.902 16.8246C225.466 16.8246 225.932 16.687 226.299 16.4119C226.667 16.1402 226.851 15.706 226.851 15.1094V13.608H226.757C226.667 13.7704 226.538 13.951 226.369 14.1499C226.203 14.3487 225.975 14.5211 225.683 14.6669C225.391 14.8127 225.012 14.8857 224.544 14.8857C223.941 14.8857 223.398 14.7448 222.914 14.4631C222.433 14.178 222.052 13.7588 221.77 13.2053C221.492 12.6484 221.353 11.964 221.353 11.152C221.353 10.34 221.49 9.64394 221.765 9.06392C222.044 8.4839 222.425 8.03977 222.909 7.73153C223.393 7.41998 223.941 7.2642 224.554 7.2642C225.028 7.2642 225.411 7.34375 225.703 7.50284C225.995 7.65862 226.222 7.84091 226.384 8.04972C226.55 8.25852 226.677 8.44247 226.767 8.60156H226.876V7.36364H228.333V15.169C228.333 15.8253 228.18 16.3639 227.875 16.7848C227.571 17.2057 227.158 17.5173 226.638 17.7195C226.12 17.9216 225.537 18.0227 224.888 18.0227ZM224.873 13.6527C225.3 13.6527 225.661 13.5533 225.956 13.3544C226.255 13.1522 226.48 12.8639 226.633 12.4893C226.788 12.1115 226.866 11.6591 226.866 11.1321C226.866 10.6184 226.79 10.166 226.638 9.77486C226.485 9.38376 226.261 9.07884 225.966 8.86009C225.671 8.63802 225.307 8.52699 224.873 8.52699C224.425 8.52699 224.052 8.64299 223.754 8.875C223.456 9.10369 223.23 9.41525 223.078 9.80966C222.929 10.2041 222.854 10.6449 222.854 11.1321C222.854 11.6326 222.93 12.0717 223.083 12.4496C223.235 12.8274 223.461 13.1224 223.759 13.3345C224.061 13.5466 224.432 13.6527 224.873 13.6527ZM235.164 11.8331V7.36364H236.655V15H235.194V13.6776H235.114C234.938 14.0852 234.657 14.425 234.269 14.6967C233.884 14.9652 233.406 15.0994 232.832 15.0994C232.342 15.0994 231.907 14.9917 231.53 14.7763C231.155 14.5575 230.86 14.2344 230.645 13.8068C230.432 13.3793 230.326 12.8506 230.326 12.2209V7.36364H231.813V12.0419C231.813 12.5623 231.957 12.9766 232.245 13.2848C232.534 13.593 232.908 13.7472 233.369 13.7472C233.647 13.7472 233.924 13.6776 234.199 13.5384C234.478 13.3991 234.708 13.1887 234.89 12.907C235.076 12.6252 235.167 12.2673 235.164 11.8331ZM240.139 4.81818V15H238.653V4.81818H240.139ZM244.361 15.169C243.877 15.169 243.44 15.0795 243.049 14.9006C242.658 14.7183 242.348 14.4548 242.119 14.1101C241.894 13.7654 241.781 13.3428 241.781 12.8423C241.781 12.4115 241.864 12.0568 242.03 11.7784C242.195 11.5 242.419 11.2796 242.701 11.1172C242.982 10.9548 243.297 10.8321 243.645 10.7493C243.993 10.6664 244.348 10.6035 244.709 10.5604C245.167 10.5073 245.538 10.4643 245.823 10.4311C246.108 10.3946 246.315 10.3366 246.444 10.2571C246.574 10.1776 246.638 10.0483 246.638 9.86932V9.83452C246.638 9.40033 246.516 9.06392 246.27 8.82528C246.028 8.58665 245.667 8.46733 245.187 8.46733C244.686 8.46733 244.292 8.57836 244.003 8.80043C243.718 9.01918 243.521 9.26278 243.412 9.53125L242.015 9.21307C242.18 8.74905 242.422 8.37453 242.741 8.08949C243.062 7.80114 243.432 7.59233 243.849 7.46307C244.267 7.33049 244.706 7.2642 245.167 7.2642C245.472 7.2642 245.795 7.30066 246.136 7.37358C246.481 7.44318 246.802 7.57244 247.101 7.76136C247.402 7.95028 247.649 8.22041 247.841 8.57173C248.034 8.91974 248.13 9.37216 248.13 9.92898V15H246.678V13.956H246.618C246.522 14.1482 246.378 14.3371 246.186 14.5227C245.994 14.7083 245.747 14.8625 245.445 14.9851C245.143 15.1077 244.782 15.169 244.361 15.169ZM244.684 13.9759C245.095 13.9759 245.447 13.8946 245.738 13.7322C246.033 13.5698 246.257 13.3577 246.41 13.0959C246.565 12.8307 246.643 12.5473 246.643 12.2457V11.2614C246.59 11.3144 246.487 11.3641 246.335 11.4105C246.186 11.4536 246.015 11.4917 245.823 11.5249C245.631 11.5547 245.443 11.5829 245.261 11.6094C245.079 11.6326 244.926 11.6525 244.804 11.669C244.515 11.7055 244.252 11.7668 244.013 11.853C243.778 11.9392 243.589 12.0634 243.446 12.2259C243.307 12.3849 243.238 12.5971 243.238 12.8622C243.238 13.2301 243.374 13.5085 243.645 13.6974C243.917 13.883 244.263 13.9759 244.684 13.9759ZM250.11 15V7.36364H251.546V8.5767H251.626C251.765 8.16572 252.01 7.84257 252.362 7.60724C252.716 7.36861 253.117 7.24929 253.565 7.24929C253.658 7.24929 253.767 7.2526 253.893 7.25923C254.022 7.26586 254.123 7.27415 254.196 7.28409V8.70597C254.137 8.68939 254.031 8.67116 253.878 8.65128C253.726 8.62808 253.573 8.61648 253.421 8.61648C253.069 8.61648 252.756 8.69105 252.481 8.8402C252.209 8.98603 251.994 9.18987 251.835 9.4517C251.676 9.71023 251.596 10.0052 251.596 10.3366V15H250.11Z" fill="#40C18A"/>
<rect x="191" y="53" width="75" height="20" rx="10" fill="white"/>
<path d="M214.649 57.8182V68H213.237L208.062 60.5327H207.967V68H206.431V57.8182H207.853L213.033 65.2955H213.128V57.8182H214.649ZM220.062 68.1541C219.31 68.1541 218.662 67.9934 218.118 67.6719C217.578 67.3471 217.16 66.8913 216.865 66.3047C216.574 65.7147 216.428 65.0237 216.428 64.2315C216.428 63.4493 216.574 62.7599 216.865 62.1634C217.16 61.5668 217.571 61.1011 218.098 60.7663C218.628 60.4316 219.248 60.2642 219.958 60.2642C220.388 60.2642 220.806 60.3355 221.21 60.478C221.615 60.6205 221.978 60.8442 222.299 61.1491C222.621 61.4541 222.874 61.8501 223.06 62.3374C223.245 62.8213 223.338 63.4096 223.338 64.1023V64.6293H217.268V63.5156H221.882C221.882 63.1245 221.802 62.7782 221.643 62.4766C221.484 62.1716 221.26 61.9313 220.972 61.7557C220.687 61.58 220.352 61.4922 219.968 61.4922C219.55 61.4922 219.185 61.5949 218.874 61.8004C218.566 62.0026 218.327 62.2678 218.158 62.5959C217.992 62.9207 217.909 63.2737 217.909 63.6548V64.5249C217.909 65.0353 217.999 65.4695 218.178 65.8274C218.36 66.1854 218.614 66.4588 218.938 66.6477C219.263 66.8333 219.643 66.9261 220.077 66.9261C220.359 66.9261 220.615 66.8864 220.847 66.8068C221.079 66.724 221.28 66.6013 221.449 66.4389C221.618 66.2765 221.747 66.076 221.837 65.8374L223.244 66.0909C223.131 66.5052 222.929 66.8681 222.637 67.1797C222.349 67.4879 221.986 67.7282 221.548 67.9006C221.114 68.0696 220.619 68.1541 220.062 68.1541ZM225.983 60.3636L227.669 63.3366L229.369 60.3636H230.994L228.613 64.1818L231.014 68H229.389L227.669 65.1463L225.953 68H224.323L226.699 64.1818L224.352 60.3636H225.983ZM236.085 60.3636V61.5568H231.914V60.3636H236.085ZM233.033 58.5341H234.519V65.7578C234.519 66.0462 234.562 66.2633 234.649 66.4091C234.735 66.5516 234.846 66.6494 234.982 66.7024C235.121 66.7521 235.272 66.777 235.434 66.777C235.553 66.777 235.658 66.7687 235.747 66.7521C235.837 66.7356 235.906 66.7223 235.956 66.7124L236.225 67.9403C236.138 67.9735 236.016 68.0066 235.857 68.0398C235.698 68.0762 235.499 68.0961 235.26 68.0994C234.869 68.1061 234.504 68.0365 234.166 67.8906C233.828 67.7448 233.555 67.5194 233.346 67.2145C233.137 66.9096 233.033 66.5268 233.033 66.0661V58.5341ZM238.709 68.0945C238.437 68.0945 238.204 67.9983 238.008 67.8061C237.813 67.6106 237.715 67.3752 237.715 67.1001C237.715 66.8284 237.813 66.5964 238.008 66.4041C238.204 66.2086 238.437 66.1108 238.709 66.1108C238.981 66.1108 239.215 66.2086 239.41 66.4041C239.606 66.5964 239.703 66.8284 239.703 67.1001C239.703 67.2824 239.657 67.4498 239.564 67.6023C239.475 67.7514 239.355 67.8707 239.206 67.9602C239.057 68.0497 238.891 68.0945 238.709 68.0945ZM241.695 60.3636H243.181V68.4972C243.181 69.0076 243.088 69.4384 242.903 69.7898C242.72 70.1411 242.449 70.4079 242.087 70.5902C241.729 70.7725 241.287 70.8636 240.76 70.8636C240.707 70.8636 240.657 70.8636 240.611 70.8636C240.561 70.8636 240.51 70.862 240.457 70.8587V69.581C240.503 69.581 240.545 69.581 240.581 69.581C240.614 69.581 240.652 69.581 240.695 69.581C241.047 69.581 241.3 69.4865 241.456 69.2976C241.615 69.112 241.695 68.8419 241.695 68.4872V60.3636ZM242.43 59.1854C242.172 59.1854 241.95 59.0992 241.764 58.9268C241.582 58.7512 241.491 58.5424 241.491 58.3004C241.491 58.0552 241.582 57.8464 241.764 57.674C241.95 57.4983 242.172 57.4105 242.43 57.4105C242.689 57.4105 242.909 57.4983 243.092 57.674C243.277 57.8464 243.37 58.0552 243.37 58.3004C243.37 58.5424 243.277 58.7512 243.092 58.9268C242.909 59.0992 242.689 59.1854 242.43 59.1854ZM250.903 62.228L249.556 62.4666C249.5 62.2943 249.41 62.1302 249.287 61.9744C249.168 61.8187 249.006 61.6911 248.8 61.5916C248.595 61.4922 248.338 61.4425 248.03 61.4425C247.609 61.4425 247.257 61.5369 246.976 61.7259C246.694 61.9115 246.553 62.1518 246.553 62.4467C246.553 62.7019 246.648 62.9074 246.836 63.0632C247.025 63.219 247.33 63.3466 247.751 63.446L248.964 63.7244C249.667 63.8868 250.191 64.1371 250.535 64.4751C250.88 64.8132 251.052 65.2524 251.052 65.7926C251.052 66.25 250.92 66.6577 250.655 67.0156C250.393 67.3703 250.027 67.6487 249.556 67.8509C249.089 68.053 248.547 68.1541 247.93 68.1541C247.075 68.1541 246.377 67.9718 245.837 67.6072C245.297 67.2393 244.965 66.7173 244.843 66.0412L246.28 65.8224C246.369 66.197 246.553 66.4804 246.831 66.6726C247.11 66.8615 247.473 66.956 247.92 66.956C248.407 66.956 248.797 66.8549 249.089 66.6527C249.38 66.4472 249.526 66.197 249.526 65.902C249.526 65.6634 249.437 65.4628 249.258 65.3004C249.082 65.138 248.812 65.0154 248.447 64.9325L247.155 64.6491C246.442 64.4867 245.915 64.2282 245.574 63.8736C245.236 63.5189 245.067 63.0698 245.067 62.5263C245.067 62.0755 245.193 61.6811 245.444 61.343C245.696 61.005 246.044 60.7415 246.488 60.5526C246.933 60.3603 247.441 60.2642 248.015 60.2642C248.84 60.2642 249.49 60.4432 249.964 60.8011C250.438 61.1558 250.751 61.6314 250.903 62.228Z" fill="#40C18A"/>
<rect x="191" y="106" width="75" height="20" rx="10" fill="white"/>
<path d="M209.857 110.818L212.691 119.111H212.805L215.639 110.818H217.3L213.636 121H211.861L208.197 110.818H209.857ZM223.488 117.833V113.364H224.979V121H223.518V119.678H223.438C223.263 120.085 222.981 120.425 222.593 120.697C222.209 120.965 221.73 121.099 221.156 121.099C220.666 121.099 220.232 120.992 219.854 120.776C219.479 120.558 219.184 120.234 218.969 119.807C218.757 119.379 218.651 118.851 218.651 118.221V113.364H220.137V118.042C220.137 118.562 220.281 118.977 220.57 119.285C220.858 119.593 221.233 119.747 221.693 119.747C221.972 119.747 222.248 119.678 222.524 119.538C222.802 119.399 223.032 119.189 223.215 118.907C223.4 118.625 223.491 118.267 223.488 117.833ZM230.268 121.154C229.516 121.154 228.868 120.993 228.324 120.672C227.784 120.347 227.366 119.891 227.071 119.305C226.78 118.715 226.634 118.024 226.634 117.232C226.634 116.449 226.78 115.76 227.071 115.163C227.366 114.567 227.777 114.101 228.304 113.766C228.835 113.432 229.454 113.264 230.164 113.264C230.594 113.264 231.012 113.335 231.416 113.478C231.821 113.621 232.184 113.844 232.505 114.149C232.827 114.454 233.08 114.85 233.266 115.337C233.451 115.821 233.544 116.41 233.544 117.102V117.629H227.474V116.516H232.088C232.088 116.125 232.008 115.778 231.849 115.477C231.69 115.172 231.466 114.931 231.178 114.756C230.893 114.58 230.558 114.492 230.174 114.492C229.756 114.492 229.391 114.595 229.08 114.8C228.772 115.003 228.533 115.268 228.364 115.596C228.198 115.921 228.115 116.274 228.115 116.655V117.525C228.115 118.035 228.205 118.469 228.384 118.827C228.566 119.185 228.82 119.459 229.144 119.648C229.469 119.833 229.849 119.926 230.283 119.926C230.565 119.926 230.822 119.886 231.054 119.807C231.286 119.724 231.486 119.601 231.655 119.439C231.824 119.277 231.953 119.076 232.043 118.837L233.45 119.091C233.337 119.505 233.135 119.868 232.843 120.18C232.555 120.488 232.192 120.728 231.755 120.901C231.32 121.07 230.825 121.154 230.268 121.154ZM236.173 121.094C235.901 121.094 235.668 120.998 235.472 120.806C235.276 120.611 235.179 120.375 235.179 120.1C235.179 119.828 235.276 119.596 235.472 119.404C235.668 119.209 235.901 119.111 236.173 119.111C236.445 119.111 236.678 119.209 236.874 119.404C237.07 119.596 237.167 119.828 237.167 120.1C237.167 120.282 237.121 120.45 237.028 120.602C236.939 120.751 236.819 120.871 236.67 120.96C236.521 121.05 236.355 121.094 236.173 121.094ZM239.158 113.364H240.645V121.497C240.645 122.008 240.552 122.438 240.367 122.79C240.184 123.141 239.912 123.408 239.551 123.59C239.193 123.772 238.751 123.864 238.224 123.864C238.171 123.864 238.121 123.864 238.075 123.864C238.025 123.864 237.974 123.862 237.921 123.859V122.581C237.967 122.581 238.008 122.581 238.045 122.581C238.078 122.581 238.116 122.581 238.159 122.581C238.511 122.581 238.764 122.487 238.92 122.298C239.079 122.112 239.158 121.842 239.158 121.487V113.364ZM239.894 112.185C239.636 112.185 239.414 112.099 239.228 111.927C239.046 111.751 238.955 111.542 238.955 111.3C238.955 111.055 239.046 110.846 239.228 110.674C239.414 110.498 239.636 110.411 239.894 110.411C240.153 110.411 240.373 110.498 240.555 110.674C240.741 110.846 240.834 111.055 240.834 111.3C240.834 111.542 240.741 111.751 240.555 111.927C240.373 112.099 240.153 112.185 239.894 112.185ZM248.367 115.228L247.02 115.467C246.963 115.294 246.874 115.13 246.751 114.974C246.632 114.819 246.47 114.691 246.264 114.592C246.059 114.492 245.802 114.442 245.494 114.442C245.073 114.442 244.721 114.537 244.44 114.726C244.158 114.911 244.017 115.152 244.017 115.447C244.017 115.702 244.111 115.907 244.3 116.063C244.489 116.219 244.794 116.347 245.215 116.446L246.428 116.724C247.131 116.887 247.655 117.137 247.999 117.475C248.344 117.813 248.516 118.252 248.516 118.793C248.516 119.25 248.384 119.658 248.119 120.016C247.857 120.37 247.49 120.649 247.02 120.851C246.552 121.053 246.011 121.154 245.394 121.154C244.539 121.154 243.841 120.972 243.301 120.607C242.761 120.239 242.429 119.717 242.307 119.041L243.744 118.822C243.833 119.197 244.017 119.48 244.295 119.673C244.574 119.862 244.937 119.956 245.384 119.956C245.871 119.956 246.261 119.855 246.552 119.653C246.844 119.447 246.99 119.197 246.99 118.902C246.99 118.663 246.9 118.463 246.722 118.3C246.546 118.138 246.276 118.015 245.911 117.933L244.619 117.649C243.906 117.487 243.379 117.228 243.038 116.874C242.699 116.519 242.53 116.07 242.53 115.526C242.53 115.076 242.656 114.681 242.908 114.343C243.16 114.005 243.508 113.741 243.952 113.553C244.396 113.36 244.905 113.264 245.479 113.264C246.304 113.264 246.954 113.443 247.427 113.801C247.901 114.156 248.215 114.631 248.367 115.228Z" fill="#40C18A"/>
<line y1="62.5" x2="191" y2="62.5" stroke="#40C18A"/>
<path d="M0 62H128L132.484 50.5664C141.843 26.6998 164.864 11 190.5 11V11" stroke="#40C18A"/>
<path d="M0 63H128.336L128.96 66.3741C134.488 96.29 160.578 118 191 118V118" stroke="#40C18A"/>
</svg>
