<svg width="20" height="20" viewBox="0 0 20 20" fill="none" xmlns="http://www.w3.org/2000/svg">
<g clip-path="url(#clip0_33_169)">
<path d="M18.0469 0H1.95312C0.874444 0 0 0.874444 0 1.95312V18.0469C0 19.1256 0.874444 20 1.95312 20H18.0469C19.1256 20 20 19.1256 20 18.0469V1.95312C20 0.874444 19.1256 0 18.0469 0Z" fill="#3178C6"/>
<path d="M18.0469 0H1.95312C0.874444 0 0 0.874444 0 1.95312V18.0469C0 19.1256 0.874444 20 1.95312 20H18.0469C19.1256 20 20 19.1256 20 18.0469V1.95312C20 0.874444 19.1256 0 18.0469 0Z" fill="#3178C6"/>
<path fill-rule="evenodd" clip-rule="evenodd" d="M12.3804 15.915V17.8705C12.6983 18.0335 13.0743 18.1557 13.5084 18.2371C13.9424 18.3186 14.3999 18.3594 14.8808 18.3594C15.3495 18.3594 15.7948 18.3146 16.2166 18.2249C16.6384 18.1353 17.0083 17.9876 17.3262 17.7819C17.6441 17.5762 17.8958 17.3073 18.0812 16.9752C18.2666 16.6432 18.3594 16.2328 18.3594 15.7439C18.3594 15.3895 18.3064 15.0788 18.2004 14.812C18.0945 14.5452 17.9416 14.3079 17.7419 14.1001C17.5422 13.8923 17.3028 13.7059 17.0236 13.5409C16.7444 13.3759 16.4296 13.2201 16.0791 13.0734C15.8223 12.9675 15.592 12.8646 15.3882 12.7648C15.1845 12.665 15.0112 12.5632 14.8686 12.4593C14.7259 12.3554 14.6159 12.2454 14.5385 12.1293C14.4611 12.0132 14.4223 11.8818 14.4223 11.7351C14.4223 11.6007 14.457 11.4795 14.5263 11.3715C14.5955 11.2636 14.6934 11.1709 14.8197 11.0935C14.9461 11.0161 15.1009 10.956 15.2843 10.9132C15.4677 10.8704 15.6715 10.8491 15.8957 10.8491C16.0587 10.8491 16.2309 10.8613 16.4122 10.8857C16.5936 10.9102 16.776 10.9479 16.9594 10.9987C17.1428 11.0497 17.3211 11.1139 17.4943 11.1913C17.6675 11.2687 17.8275 11.3583 17.9742 11.4602V9.63297C17.6767 9.51891 17.3517 9.43437 16.9991 9.37937C16.6466 9.32437 16.2421 9.29688 15.7856 9.29688C15.321 9.29688 14.8808 9.3468 14.4651 9.4466C14.0494 9.54641 13.6836 9.70223 13.3677 9.91406C13.0519 10.1259 12.8023 10.3958 12.6189 10.7238C12.4355 11.0517 12.3438 11.4438 12.3438 11.9001C12.3438 12.4827 12.5119 12.9797 12.8481 13.3912C13.1843 13.8027 13.6948 14.151 14.3795 14.4362C14.6485 14.5462 14.8992 14.6541 15.1315 14.76C15.3638 14.866 15.5645 14.976 15.7336 15.09C15.9028 15.2041 16.0362 15.3284 16.1341 15.4628C16.2319 15.5972 16.2808 15.75 16.2808 15.9211C16.2808 16.0474 16.2502 16.1645 16.1891 16.2725C16.128 16.3805 16.0352 16.4741 15.9109 16.5536C15.7866 16.633 15.6318 16.6952 15.4463 16.74C15.2609 16.7848 15.0439 16.8072 14.7952 16.8072C14.3714 16.8072 13.9516 16.7329 13.5359 16.5841C13.1202 16.4355 12.735 16.2124 12.3804 15.915ZM9.09297 11.097H11.6016V9.49219H4.60938V11.097H7.1057V18.2422H9.09297V11.097Z" fill="white"/>
</g>
<defs>
<clipPath id="clip0_33_169">
<rect width="20" height="20" fill="white"/>
</clipPath>
</defs>
</svg>
