<svg width="352" height="80" viewBox="0 0 352 80" fill="none" xmlns="http://www.w3.org/2000/svg">
<path d="M8.76136 21.3636H10.5227V29.017C10.5227 29.8314 10.3314 30.553 9.94886 31.1818C9.56629 31.8068 9.02841 32.2992 8.33523 32.6591C7.64205 33.0152 6.82955 33.1932 5.89773 33.1932C4.9697 33.1932 4.15909 33.0152 3.46591 32.6591C2.77273 32.2992 2.23485 31.8068 1.85227 31.1818C1.4697 30.553 1.27841 29.8314 1.27841 29.017V21.3636H3.03409V28.875C3.03409 29.4015 3.14962 29.8693 3.38068 30.2784C3.61553 30.6875 3.94697 31.0095 4.375 31.2443C4.80303 31.4754 5.31061 31.5909 5.89773 31.5909C6.48864 31.5909 6.99811 31.4754 7.42614 31.2443C7.85795 31.0095 8.1875 30.6875 8.41477 30.2784C8.64583 29.8693 8.76136 29.4015 8.76136 28.875V21.3636ZM14.831 21.3636V33H13.0753V21.3636H14.831ZM21.6222 33V21.3636H28.8381V22.875H23.3778V26.4205H28.321V27.9261H23.3778V33H21.6222ZM30.7514 33V24.2727H32.3935V25.6591H32.4844C32.6435 25.1894 32.9238 24.8201 33.3253 24.5511C33.7306 24.2784 34.1889 24.142 34.7003 24.142C34.8063 24.142 34.9313 24.1458 35.0753 24.1534C35.223 24.161 35.3385 24.1705 35.4219 24.1818V25.8068C35.3537 25.7879 35.2325 25.767 35.0582 25.7443C34.884 25.7178 34.7098 25.7045 34.5355 25.7045C34.134 25.7045 33.776 25.7898 33.4616 25.9602C33.151 26.1269 32.9048 26.3598 32.723 26.6591C32.5412 26.9545 32.4503 27.2917 32.4503 27.6705V33H30.7514ZM39.3537 33.1932C38.8007 33.1932 38.3007 33.0909 37.8537 32.8864C37.4067 32.678 37.0526 32.3769 36.7912 31.983C36.5336 31.589 36.4048 31.1061 36.4048 30.5341C36.4048 30.0417 36.4995 29.6364 36.6889 29.3182C36.8783 29 37.134 28.7481 37.456 28.5625C37.7779 28.3769 38.1378 28.2367 38.5355 28.142C38.9332 28.0473 39.3385 27.9754 39.7514 27.9261C40.2741 27.8655 40.6984 27.8163 41.0241 27.7784C41.3499 27.7367 41.5866 27.6705 41.7344 27.5795C41.8821 27.4886 41.956 27.3409 41.956 27.1364V27.0966C41.956 26.6004 41.8158 26.2159 41.5355 25.9432C41.259 25.6705 40.8461 25.5341 40.2969 25.5341C39.7249 25.5341 39.2741 25.661 38.9446 25.9148C38.6188 26.1648 38.3935 26.4432 38.2685 26.75L36.6719 26.3864C36.8613 25.8561 37.1378 25.428 37.5014 25.1023C37.8688 24.7727 38.2912 24.5341 38.7685 24.3864C39.2457 24.2348 39.7476 24.1591 40.2741 24.1591C40.6226 24.1591 40.992 24.2008 41.3821 24.2841C41.776 24.3636 42.1435 24.5114 42.4844 24.7273C42.8291 24.9432 43.1113 25.2519 43.331 25.6534C43.5507 26.0511 43.6605 26.5682 43.6605 27.2045V33H42.0014V31.8068H41.9332C41.8234 32.0265 41.6586 32.2424 41.4389 32.4545C41.2192 32.6667 40.937 32.8428 40.5923 32.983C40.2476 33.1231 39.8348 33.1932 39.3537 33.1932ZM39.723 31.8295C40.1927 31.8295 40.5942 31.7367 40.9276 31.5511C41.2647 31.3655 41.5204 31.1231 41.6946 30.8239C41.8726 30.5208 41.9616 30.197 41.9616 29.8523V28.7273C41.901 28.7879 41.7836 28.8447 41.6094 28.8977C41.4389 28.947 41.2438 28.9905 41.0241 29.0284C40.8045 29.0625 40.5904 29.0947 40.3821 29.125C40.1738 29.1515 39.9995 29.1742 39.8594 29.1932C39.5298 29.2348 39.2287 29.3049 38.956 29.4034C38.687 29.5019 38.4711 29.6439 38.3082 29.8295C38.1491 30.0114 38.0696 30.2538 38.0696 30.5568C38.0696 30.9773 38.2249 31.2955 38.5355 31.5114C38.8461 31.7235 39.242 31.8295 39.723 31.8295ZM45.9233 33V24.2727H47.554V25.6932H47.6619C47.8438 25.2121 48.1411 24.8371 48.554 24.5682C48.9669 24.2955 49.4612 24.1591 50.0369 24.1591C50.6203 24.1591 51.1089 24.2955 51.5028 24.5682C51.9006 24.8409 52.1941 25.2159 52.3835 25.6932H52.4744C52.6828 25.2273 53.0142 24.8561 53.4688 24.5795C53.9233 24.2992 54.465 24.1591 55.0938 24.1591C55.8854 24.1591 56.5312 24.4072 57.0312 24.9034C57.535 25.3996 57.7869 26.1477 57.7869 27.1477V33H56.0881V27.3068C56.0881 26.7159 55.9271 26.2879 55.6051 26.0227C55.2831 25.7576 54.8987 25.625 54.4517 25.625C53.8987 25.625 53.4688 25.7955 53.1619 26.1364C52.8551 26.4735 52.7017 26.9072 52.7017 27.4375V33H51.0085V27.1989C51.0085 26.7254 50.8608 26.3447 50.5653 26.0568C50.2699 25.7689 49.8854 25.625 49.4119 25.625C49.09 25.625 48.7926 25.7102 48.5199 25.8807C48.2509 26.0473 48.0331 26.2803 47.8665 26.5795C47.7036 26.8788 47.6222 27.2254 47.6222 27.6193V33H45.9233ZM63.8253 33.1761C62.9654 33.1761 62.2249 32.9924 61.6037 32.625C60.9863 32.2538 60.509 31.733 60.1719 31.0625C59.8385 30.3883 59.6719 29.5985 59.6719 28.6932C59.6719 27.7992 59.8385 27.0114 60.1719 26.3295C60.509 25.6477 60.9787 25.1155 61.581 24.733C62.187 24.3504 62.8954 24.1591 63.706 24.1591C64.1984 24.1591 64.6757 24.2405 65.1378 24.4034C65.5999 24.5663 66.0147 24.822 66.3821 25.1705C66.7495 25.5189 67.0393 25.9716 67.2514 26.5284C67.4635 27.0814 67.5696 27.7538 67.5696 28.5455V29.1477H60.6321V27.875H65.9048C65.9048 27.428 65.8139 27.0322 65.6321 26.6875C65.4503 26.339 65.1946 26.0644 64.8651 25.8636C64.5393 25.6629 64.1567 25.5625 63.7173 25.5625C63.2401 25.5625 62.8234 25.6799 62.4673 25.9148C62.1151 26.1458 61.8423 26.4489 61.6491 26.8239C61.4598 27.1951 61.3651 27.5985 61.3651 28.0341V29.0284C61.3651 29.6117 61.4673 30.108 61.6719 30.517C61.8802 30.9261 62.17 31.2386 62.5412 31.4545C62.9124 31.6667 63.3461 31.7727 63.8423 31.7727C64.1643 31.7727 64.4579 31.7273 64.723 31.6364C64.9882 31.5417 65.2173 31.4015 65.4105 31.2159C65.6037 31.0303 65.7514 30.8011 65.8537 30.5284L67.4616 30.8182C67.3329 31.2917 67.1018 31.7064 66.7685 32.0625C66.4389 32.4148 66.0241 32.6894 65.5241 32.8864C65.0279 33.0795 64.4616 33.1761 63.8253 33.1761ZM71.331 33L68.7628 24.2727H70.5185L72.2287 30.6818H72.3139L74.0298 24.2727H75.7855L77.4901 30.6534H77.5753L79.2741 24.2727H81.0298L78.4673 33H76.7344L74.9616 26.6989H74.831L73.0582 33H71.331ZM86.0526 33.1761C85.2344 33.1761 84.5204 32.9886 83.9105 32.6136C83.3007 32.2386 82.8272 31.714 82.4901 31.0398C82.1529 30.3655 81.9844 29.5777 81.9844 28.6761C81.9844 27.7708 82.1529 26.9792 82.4901 26.3011C82.8272 25.6231 83.3007 25.0966 83.9105 24.7216C84.5204 24.3466 85.2344 24.1591 86.0526 24.1591C86.8707 24.1591 87.5848 24.3466 88.1946 24.7216C88.8045 25.0966 89.2779 25.6231 89.6151 26.3011C89.9522 26.9792 90.1207 27.7708 90.1207 28.6761C90.1207 29.5777 89.9522 30.3655 89.6151 31.0398C89.2779 31.714 88.8045 32.2386 88.1946 32.6136C87.5848 32.9886 86.8707 33.1761 86.0526 33.1761ZM86.0582 31.75C86.5885 31.75 87.0279 31.6098 87.3764 31.3295C87.7249 31.0492 87.9825 30.6761 88.1491 30.2102C88.3196 29.7443 88.4048 29.2311 88.4048 28.6705C88.4048 28.1136 88.3196 27.6023 88.1491 27.1364C87.9825 26.6667 87.7249 26.2898 87.3764 26.0057C87.0279 25.7216 86.5885 25.5795 86.0582 25.5795C85.5241 25.5795 85.081 25.7216 84.7287 26.0057C84.3802 26.2898 84.1207 26.6667 83.9503 27.1364C83.7836 27.6023 83.7003 28.1136 83.7003 28.6705C83.7003 29.2311 83.7836 29.7443 83.9503 30.2102C84.1207 30.6761 84.3802 31.0492 84.7287 31.3295C85.081 31.6098 85.5241 31.75 86.0582 31.75ZM92.017 33V24.2727H93.6591V25.6591H93.75C93.9091 25.1894 94.1894 24.8201 94.5909 24.5511C94.9962 24.2784 95.4545 24.142 95.9659 24.142C96.072 24.142 96.197 24.1458 96.3409 24.1534C96.4886 24.161 96.6042 24.1705 96.6875 24.1818V25.8068C96.6193 25.7879 96.4981 25.767 96.3239 25.7443C96.1496 25.7178 95.9754 25.7045 95.8011 25.7045C95.3996 25.7045 95.0417 25.7898 94.7273 25.9602C94.4167 26.1269 94.1705 26.3598 93.9886 26.6591C93.8068 26.9545 93.7159 27.2917 93.7159 27.6705V33H92.017ZM99.7202 30.0398L99.7088 27.9659H100.004L103.482 24.2727H105.516L101.55 28.4773H101.283L99.7202 30.0398ZM98.1577 33V21.3636H99.8565V33H98.1577ZM103.669 33L100.544 28.8523L101.714 27.6648L105.754 33H103.669ZM113.604 26.4034L112.064 26.6761C112 26.4792 111.897 26.2917 111.757 26.1136C111.621 25.9356 111.435 25.7898 111.2 25.6761C110.965 25.5625 110.672 25.5057 110.32 25.5057C109.839 25.5057 109.437 25.6136 109.115 25.8295C108.793 26.0417 108.632 26.3163 108.632 26.6534C108.632 26.9451 108.74 27.1799 108.956 27.358C109.172 27.536 109.52 27.6818 110.001 27.7955L111.388 28.1136C112.191 28.2992 112.789 28.5852 113.183 28.9716C113.577 29.358 113.774 29.8598 113.774 30.4773C113.774 31 113.623 31.4659 113.32 31.875C113.02 32.2803 112.602 32.5985 112.064 32.8295C111.53 33.0606 110.911 33.1761 110.206 33.1761C109.229 33.1761 108.431 32.9678 107.814 32.5511C107.196 32.1307 106.818 31.5341 106.678 30.7614L108.32 30.5114C108.422 30.9394 108.632 31.2633 108.95 31.483C109.268 31.6989 109.683 31.8068 110.195 31.8068C110.751 31.8068 111.196 31.6913 111.53 31.4602C111.863 31.2254 112.03 30.9394 112.03 30.6023C112.03 30.3295 111.928 30.1004 111.723 29.9148C111.522 29.7292 111.214 29.589 110.797 29.4943L109.32 29.1705C108.505 28.9848 107.903 28.6894 107.513 28.2841C107.126 27.8788 106.933 27.3655 106.933 26.7443C106.933 26.2292 107.077 25.7784 107.365 25.392C107.653 25.0057 108.051 24.7045 108.558 24.4886C109.066 24.2689 109.647 24.1591 110.303 24.1591C111.246 24.1591 111.988 24.3636 112.53 24.7727C113.071 25.178 113.429 25.7216 113.604 26.4034ZM120.95 36.2727C120.696 36.2727 120.465 36.2519 120.257 36.2102C120.049 36.1723 119.893 36.1307 119.791 36.0852L120.2 34.6932C120.511 34.7765 120.787 34.8125 121.03 34.8011C121.272 34.7898 121.486 34.6989 121.672 34.5284C121.861 34.358 122.028 34.0795 122.172 33.6932L122.382 33.1136L119.189 24.2727H121.007L123.217 31.0455H123.308L125.518 24.2727H127.342L123.746 34.1648C123.579 34.6193 123.367 35.0038 123.109 35.3182C122.852 35.6364 122.545 35.875 122.189 36.0341C121.833 36.1932 121.42 36.2727 120.95 36.2727ZM134.872 21.3636V33H133.173V21.3636H134.872ZM137.158 33V24.2727H138.857V33H137.158ZM138.016 22.9261C137.72 22.9261 137.466 22.8277 137.254 22.6307C137.046 22.4299 136.942 22.1913 136.942 21.9148C136.942 21.6345 137.046 21.3958 137.254 21.1989C137.466 20.9981 137.72 20.8977 138.016 20.8977C138.311 20.8977 138.563 20.9981 138.771 21.1989C138.983 21.3958 139.089 21.6345 139.089 21.9148C139.089 22.1913 138.983 22.4299 138.771 22.6307C138.563 22.8277 138.311 22.9261 138.016 22.9261ZM141.278 33V21.3636H142.977V25.6875H143.08C143.178 25.5057 143.32 25.2955 143.506 25.0568C143.691 24.8182 143.949 24.6098 144.278 24.4318C144.608 24.25 145.044 24.1591 145.585 24.1591C146.29 24.1591 146.919 24.3371 147.472 24.6932C148.025 25.0492 148.458 25.5625 148.773 26.233C149.091 26.9034 149.25 27.7102 149.25 28.6534C149.25 29.5966 149.093 30.4053 148.778 31.0795C148.464 31.75 148.032 32.267 147.483 32.6307C146.934 32.9905 146.307 33.1705 145.602 33.1705C145.072 33.1705 144.638 33.0814 144.301 32.9034C143.968 32.7254 143.706 32.517 143.517 32.2784C143.328 32.0398 143.182 31.8277 143.08 31.642H142.938V33H141.278ZM142.943 28.6364C142.943 29.25 143.032 29.7879 143.21 30.25C143.388 30.7121 143.646 31.0739 143.983 31.3352C144.32 31.5928 144.733 31.7216 145.222 31.7216C145.729 31.7216 146.153 31.5871 146.494 31.3182C146.835 31.0455 147.093 30.6761 147.267 30.2102C147.445 29.7443 147.534 29.2197 147.534 28.6364C147.534 28.0606 147.447 27.5436 147.273 27.0852C147.102 26.6269 146.845 26.2652 146.5 26C146.159 25.7348 145.733 25.6023 145.222 25.6023C144.729 25.6023 144.312 25.7292 143.972 25.983C143.634 26.2367 143.379 26.5909 143.205 27.0455C143.03 27.5 142.943 28.0303 142.943 28.6364ZM151.158 33V24.2727H152.8V25.6591H152.891C153.05 25.1894 153.33 24.8201 153.732 24.5511C154.137 24.2784 154.595 24.142 155.107 24.142C155.213 24.142 155.338 24.1458 155.482 24.1534C155.629 24.161 155.745 24.1705 155.828 24.1818V25.8068C155.76 25.7879 155.639 25.767 155.464 25.7443C155.29 25.7178 155.116 25.7045 154.942 25.7045C154.54 25.7045 154.182 25.7898 153.868 25.9602C153.557 26.1269 153.311 26.3598 153.129 26.6591C152.947 26.9545 152.857 27.2917 152.857 27.6705V33H151.158ZM160.747 33.1761C159.887 33.1761 159.147 32.9924 158.526 32.625C157.908 32.2538 157.431 31.733 157.094 31.0625C156.76 30.3883 156.594 29.5985 156.594 28.6932C156.594 27.7992 156.76 27.0114 157.094 26.3295C157.431 25.6477 157.901 25.1155 158.503 24.733C159.109 24.3504 159.817 24.1591 160.628 24.1591C161.12 24.1591 161.598 24.2405 162.06 24.4034C162.522 24.5663 162.937 24.822 163.304 25.1705C163.671 25.5189 163.961 25.9716 164.173 26.5284C164.385 27.0814 164.491 27.7538 164.491 28.5455V29.1477H157.554V27.875H162.827C162.827 27.428 162.736 27.0322 162.554 26.6875C162.372 26.339 162.116 26.0644 161.787 25.8636C161.461 25.6629 161.079 25.5625 160.639 25.5625C160.162 25.5625 159.745 25.6799 159.389 25.9148C159.037 26.1458 158.764 26.4489 158.571 26.8239C158.382 27.1951 158.287 27.5985 158.287 28.0341V29.0284C158.287 29.6117 158.389 30.108 158.594 30.517C158.802 30.9261 159.092 31.2386 159.463 31.4545C159.834 31.6667 160.268 31.7727 160.764 31.7727C161.086 31.7727 161.38 31.7273 161.645 31.6364C161.91 31.5417 162.139 31.4015 162.332 31.2159C162.526 31.0303 162.673 30.8011 162.776 30.5284L164.384 30.8182C164.255 31.2917 164.024 31.7064 163.69 32.0625C163.361 32.4148 162.946 32.6894 162.446 32.8864C161.95 33.0795 161.384 33.1761 160.747 33.1761ZM166.376 33V24.2727H168.018V25.6591H168.109C168.268 25.1894 168.549 24.8201 168.95 24.5511C169.356 24.2784 169.814 24.142 170.325 24.142C170.431 24.142 170.556 24.1458 170.7 24.1534C170.848 24.161 170.964 24.1705 171.047 24.1818V25.8068C170.979 25.7879 170.857 25.767 170.683 25.7443C170.509 25.7178 170.335 25.7045 170.161 25.7045C169.759 25.7045 169.401 25.7898 169.087 25.9602C168.776 26.1269 168.53 26.3598 168.348 26.6591C168.166 26.9545 168.075 27.2917 168.075 27.6705V33H166.376ZM172.517 33V24.2727H174.216V33H172.517ZM172.676 23.108L174.006 20.4886H175.795L174.034 23.108H172.676ZM179.041 33.1932C178.488 33.1932 177.988 33.0909 177.541 32.8864C177.094 32.678 176.74 32.3769 176.479 31.983C176.221 31.589 176.092 31.1061 176.092 30.5341C176.092 30.0417 176.187 29.6364 176.376 29.3182C176.566 29 176.821 28.7481 177.143 28.5625C177.465 28.3769 177.825 28.2367 178.223 28.142C178.621 28.0473 179.026 27.9754 179.439 27.9261C179.962 27.8655 180.386 27.8163 180.712 27.7784C181.037 27.7367 181.274 27.6705 181.422 27.5795C181.57 27.4886 181.643 27.3409 181.643 27.1364V27.0966C181.643 26.6004 181.503 26.2159 181.223 25.9432C180.946 25.6705 180.534 25.5341 179.984 25.5341C179.412 25.5341 178.962 25.661 178.632 25.9148C178.306 26.1648 178.081 26.4432 177.956 26.75L176.359 26.3864C176.549 25.8561 176.825 25.428 177.189 25.1023C177.556 24.7727 177.979 24.5341 178.456 24.3864C178.933 24.2348 179.435 24.1591 179.962 24.1591C180.31 24.1591 180.679 24.2008 181.07 24.2841C181.464 24.3636 181.831 24.5114 182.172 24.7273C182.517 24.9432 182.799 25.2519 183.018 25.6534C183.238 26.0511 183.348 26.5682 183.348 27.2045V33H181.689V31.8068H181.621C181.511 32.0265 181.346 32.2424 181.126 32.4545C180.907 32.6667 180.625 32.8428 180.28 32.983C179.935 33.1231 179.522 33.1932 179.041 33.1932ZM179.411 31.8295C179.88 31.8295 180.282 31.7367 180.615 31.5511C180.952 31.3655 181.208 31.1231 181.382 30.8239C181.56 30.5208 181.649 30.197 181.649 29.8523V28.7273C181.589 28.7879 181.471 28.8447 181.297 28.8977C181.126 28.947 180.931 28.9905 180.712 29.0284C180.492 29.0625 180.278 29.0947 180.07 29.125C179.861 29.1515 179.687 29.1742 179.547 29.1932C179.217 29.2348 178.916 29.3049 178.643 29.4034C178.375 29.5019 178.159 29.6439 177.996 29.8295C177.837 30.0114 177.757 30.2538 177.757 30.5568C177.757 30.9773 177.912 31.2955 178.223 31.5114C178.534 31.7235 178.929 31.8295 179.411 31.8295ZM192.151 26.4034L190.611 26.6761C190.546 26.4792 190.444 26.2917 190.304 26.1136C190.168 25.9356 189.982 25.7898 189.747 25.6761C189.512 25.5625 189.219 25.5057 188.866 25.5057C188.385 25.5057 187.984 25.6136 187.662 25.8295C187.34 26.0417 187.179 26.3163 187.179 26.6534C187.179 26.9451 187.287 27.1799 187.503 27.358C187.719 27.536 188.067 27.6818 188.548 27.7955L189.935 28.1136C190.738 28.2992 191.336 28.5852 191.73 28.9716C192.124 29.358 192.321 29.8598 192.321 30.4773C192.321 31 192.17 31.4659 191.866 31.875C191.567 32.2803 191.149 32.5985 190.611 32.8295C190.077 33.0606 189.457 33.1761 188.753 33.1761C187.776 33.1761 186.978 32.9678 186.361 32.5511C185.743 32.1307 185.365 31.5341 185.224 30.7614L186.866 30.5114C186.969 30.9394 187.179 31.2633 187.497 31.483C187.815 31.6989 188.23 31.8068 188.741 31.8068C189.298 31.8068 189.743 31.6913 190.077 31.4602C190.41 31.2254 190.577 30.9394 190.577 30.6023C190.577 30.3295 190.474 30.1004 190.27 29.9148C190.069 29.7292 189.76 29.589 189.344 29.4943L187.866 29.1705C187.052 28.9848 186.45 28.6894 186.06 28.2841C185.673 27.8788 185.48 27.3655 185.48 26.7443C185.48 26.2292 185.624 25.7784 185.912 25.392C186.2 25.0057 186.598 24.7045 187.105 24.4886C187.613 24.2689 188.194 24.1591 188.849 24.1591C189.793 24.1591 190.535 24.3636 191.077 24.7727C191.618 25.178 191.976 25.7216 192.151 26.4034Z" fill="white"/>
<path d="M0.880682 54V46.7273H3.4233C3.92992 46.7273 4.34777 46.8149 4.67685 46.9901C5.00592 47.1629 5.25095 47.3961 5.41193 47.6896C5.57292 47.9808 5.65341 48.304 5.65341 48.6591C5.65341 48.9716 5.59777 49.2296 5.48651 49.4332C5.3776 49.6368 5.23319 49.7978 5.05327 49.9162C4.87571 50.0346 4.68277 50.1222 4.47443 50.179V50.25C4.69697 50.2642 4.92069 50.3423 5.1456 50.4844C5.3705 50.6264 5.55871 50.83 5.71023 51.0952C5.86174 51.3603 5.9375 51.6847 5.9375 52.0682C5.9375 52.4328 5.85464 52.7607 5.68892 53.0518C5.5232 53.343 5.2616 53.5739 4.90412 53.7443C4.54664 53.9148 4.08144 54 3.50852 54H0.880682ZM1.76136 53.2188H3.50852C4.08381 53.2188 4.49219 53.1075 4.73366 52.8849C4.97751 52.66 5.09943 52.3878 5.09943 52.0682C5.09943 51.822 5.0367 51.5947 4.91122 51.3864C4.78575 51.1757 4.60701 51.0076 4.375 50.8821C4.14299 50.7543 3.86837 50.6903 3.55114 50.6903H1.76136V53.2188ZM1.76136 49.9233H3.39489C3.66004 49.9233 3.89915 49.8712 4.11222 49.767C4.32765 49.6629 4.49811 49.5161 4.62358 49.3267C4.75142 49.1373 4.81534 48.9148 4.81534 48.6591C4.81534 48.3395 4.70407 48.0684 4.48153 47.8459C4.259 47.621 3.90625 47.5085 3.4233 47.5085H1.76136V49.9233ZM9.48686 54.1136C8.99444 54.1136 8.56238 53.9964 8.1907 53.7621C7.82138 53.5277 7.53255 53.1998 7.32422 52.7784C7.11825 52.357 7.01527 51.8646 7.01527 51.3011C7.01527 50.733 7.11825 50.237 7.32422 49.8132C7.53255 49.3894 7.82138 49.0604 8.1907 48.826C8.56238 48.5916 8.99444 48.4744 9.48686 48.4744C9.97929 48.4744 10.4102 48.5916 10.7795 48.826C11.1512 49.0604 11.44 49.3894 11.646 49.8132C11.8543 50.237 11.9585 50.733 11.9585 51.3011C11.9585 51.8646 11.8543 52.357 11.646 52.7784C11.44 53.1998 11.1512 53.5277 10.7795 53.7621C10.4102 53.9964 9.97929 54.1136 9.48686 54.1136ZM9.48686 53.3608C9.86091 53.3608 10.1687 53.2649 10.4102 53.0732C10.6516 52.8814 10.8304 52.6293 10.9464 52.3168C11.0624 52.0043 11.1204 51.6657 11.1204 51.3011C11.1204 50.9366 11.0624 50.5968 10.9464 50.282C10.8304 49.9671 10.6516 49.7126 10.4102 49.5185C10.1687 49.3243 9.86091 49.2273 9.48686 49.2273C9.11281 49.2273 8.80504 49.3243 8.56357 49.5185C8.32209 49.7126 8.14335 49.9671 8.02734 50.282C7.91134 50.5968 7.85334 50.9366 7.85334 51.3011C7.85334 51.6657 7.91134 52.0043 8.02734 52.3168C8.14335 52.6293 8.32209 52.8814 8.56357 53.0732C8.80504 53.2649 9.11281 53.3608 9.48686 53.3608ZM15.4537 54.1136C14.9612 54.1136 14.5292 53.9964 14.1575 53.7621C13.7882 53.5277 13.4993 53.1998 13.291 52.7784C13.085 52.357 12.9821 51.8646 12.9821 51.3011C12.9821 50.733 13.085 50.237 13.291 49.8132C13.4993 49.3894 13.7882 49.0604 14.1575 48.826C14.5292 48.5916 14.9612 48.4744 15.4537 48.4744C15.9461 48.4744 16.377 48.5916 16.7463 48.826C17.118 49.0604 17.4068 49.3894 17.6127 49.8132C17.8211 50.237 17.9252 50.733 17.9252 51.3011C17.9252 51.8646 17.8211 52.357 17.6127 52.7784C17.4068 53.1998 17.118 53.5277 16.7463 53.7621C16.377 53.9964 15.9461 54.1136 15.4537 54.1136ZM15.4537 53.3608C15.8277 53.3608 16.1355 53.2649 16.377 53.0732C16.6184 52.8814 16.7972 52.6293 16.9132 52.3168C17.0292 52.0043 17.0872 51.6657 17.0872 51.3011C17.0872 50.9366 17.0292 50.5968 16.9132 50.282C16.7972 49.9671 16.6184 49.7126 16.377 49.5185C16.1355 49.3243 15.8277 49.2273 15.4537 49.2273C15.0796 49.2273 14.7718 49.3243 14.5304 49.5185C14.2889 49.7126 14.1101 49.9671 13.9941 50.282C13.8781 50.5968 13.8201 50.9366 13.8201 51.3011C13.8201 51.6657 13.8781 52.0043 13.9941 52.3168C14.1101 52.6293 14.2889 52.8814 14.5304 53.0732C14.7718 53.2649 15.0796 53.3608 15.4537 53.3608ZM21.5767 48.5455V49.2557H18.75V48.5455H21.5767ZM19.5739 47.2386H20.4119V52.4375C20.4119 52.6742 20.4463 52.8518 20.5149 52.9702C20.5859 53.0862 20.6759 53.1643 20.7848 53.2045C20.8961 53.2424 21.0133 53.2614 21.1364 53.2614C21.2287 53.2614 21.3045 53.2566 21.3636 53.2472C21.4228 53.2353 21.4702 53.2259 21.5057 53.2188L21.6761 53.9716C21.6193 53.9929 21.54 54.0142 21.4382 54.0355C21.3364 54.0592 21.2074 54.071 21.0511 54.071C20.8144 54.071 20.5824 54.0201 20.3551 53.9183C20.1302 53.8165 19.9432 53.6615 19.794 53.4531C19.6473 53.2448 19.5739 52.982 19.5739 52.6648V47.2386ZM26.6033 49.767L25.8505 49.9801C25.8031 49.8546 25.7333 49.7327 25.641 49.6143C25.551 49.4936 25.4279 49.3942 25.2717 49.3161C25.1154 49.2379 24.9154 49.1989 24.6715 49.1989C24.3377 49.1989 24.0595 49.2758 23.837 49.4297C23.6168 49.5812 23.5067 49.7741 23.5067 50.0085C23.5067 50.2169 23.5825 50.3814 23.734 50.5021C23.8855 50.6229 24.1223 50.7235 24.4442 50.804L25.2539 51.0028C25.7416 51.1212 26.105 51.3023 26.3441 51.5462C26.5832 51.7876 26.7028 52.099 26.7028 52.4801C26.7028 52.7926 26.6128 53.072 26.4329 53.3182C26.2553 53.5644 26.0067 53.7585 25.6871 53.9006C25.3675 54.0426 24.9959 54.1136 24.5721 54.1136C24.0157 54.1136 23.5553 53.9929 23.1907 53.7514C22.8261 53.5099 22.5953 53.1572 22.4982 52.6932L23.2937 52.4943C23.3694 52.7879 23.5127 53.008 23.7234 53.1548C23.9364 53.3016 24.2146 53.375 24.5579 53.375C24.9485 53.375 25.2586 53.2921 25.4883 53.1264C25.7203 52.9583 25.8363 52.7571 25.8363 52.5227C25.8363 52.3333 25.77 52.1747 25.6374 52.0469C25.5049 51.9167 25.3013 51.8196 25.0266 51.7557L24.1175 51.5426C23.618 51.4242 23.2511 51.2408 23.0167 50.9922C22.7847 50.7412 22.6687 50.4276 22.6687 50.0511C22.6687 49.7434 22.7551 49.4711 22.9279 49.2344C23.1031 48.9976 23.341 48.8118 23.6417 48.6768C23.9447 48.5419 24.288 48.4744 24.6715 48.4744C25.2113 48.4744 25.6351 48.5928 25.9428 48.8295C26.253 49.0663 26.4731 49.3788 26.6033 49.767ZM30.3365 48.5455V49.2557H27.5098V48.5455H30.3365ZM28.3336 47.2386H29.1717V52.4375C29.1717 52.6742 29.206 52.8518 29.2747 52.9702C29.3457 53.0862 29.4357 53.1643 29.5446 53.2045C29.6558 53.2424 29.773 53.2614 29.8961 53.2614C29.9885 53.2614 30.0642 53.2566 30.1234 53.2472C30.1826 53.2353 30.2299 53.2259 30.2654 53.2188L30.4359 53.9716C30.3791 53.9929 30.2998 54.0142 30.198 54.0355C30.0962 54.0592 29.9672 54.071 29.8109 54.071C29.5742 54.071 29.3422 54.0201 29.1149 53.9183C28.89 53.8165 28.7029 53.6615 28.5538 53.4531C28.407 53.2448 28.3336 52.982 28.3336 52.6648V47.2386ZM31.5971 54V48.5455H32.4068V49.3693H32.4636C32.563 49.0994 32.743 48.8804 33.0034 48.7124C33.2638 48.5443 33.5574 48.4602 33.8841 48.4602C33.9456 48.4602 34.0225 48.4614 34.1149 48.4638C34.2072 48.4661 34.277 48.4697 34.3244 48.4744V49.3267C34.296 49.3196 34.2309 49.3089 34.1291 49.2947C34.0297 49.2782 33.9243 49.2699 33.813 49.2699C33.5479 49.2699 33.3111 49.3255 33.1028 49.4368C32.8968 49.5457 32.7335 49.6972 32.6127 49.8913C32.4944 50.0831 32.4352 50.3021 32.4352 50.5483V54H31.5971ZM36.9229 54.1278C36.5773 54.1278 36.2636 54.0627 35.9819 53.9325C35.7002 53.8 35.4764 53.6094 35.3107 53.3608C35.145 53.1098 35.0621 52.8068 35.0621 52.4517C35.0621 52.1392 35.1237 51.8859 35.2468 51.6918C35.3699 51.4953 35.5344 51.3414 35.7404 51.2301C35.9464 51.1188 36.1737 51.036 36.4222 50.9815C36.6732 50.9247 36.9253 50.8797 37.1786 50.8466C37.5101 50.804 37.7788 50.772 37.9847 50.7507C38.1931 50.727 38.3446 50.688 38.4393 50.6335C38.5363 50.5791 38.5849 50.4844 38.5849 50.3494V50.321C38.5849 49.9706 38.489 49.6984 38.2972 49.5043C38.1078 49.3101 37.8202 49.2131 37.4343 49.2131C37.0342 49.2131 36.7205 49.3007 36.4933 49.4759C36.266 49.651 36.1062 49.8381 36.0138 50.0369L35.2184 49.7528C35.3604 49.4214 35.5498 49.1634 35.7866 48.9787C36.0257 48.7917 36.2861 48.6615 36.5678 48.5881C36.8519 48.5123 37.1313 48.4744 37.4059 48.4744C37.5811 48.4744 37.7823 48.4957 38.0096 48.5384C38.2392 48.5786 38.4606 48.6626 38.6737 48.7905C38.8891 48.9183 39.0678 49.1113 39.2099 49.3693C39.3519 49.6274 39.4229 49.973 39.4229 50.4062V54H38.5849V53.2614H38.5423C38.4854 53.3797 38.3907 53.5064 38.2582 53.6413C38.1256 53.7763 37.9492 53.8911 37.729 53.9858C37.5089 54.0805 37.2402 54.1278 36.9229 54.1278ZM37.0508 53.375C37.3822 53.375 37.6616 53.3099 37.8888 53.1797C38.1185 53.0495 38.2913 52.8814 38.4073 52.6754C38.5257 52.4695 38.5849 52.2528 38.5849 52.0256V51.2585C38.5494 51.3011 38.4712 51.3402 38.3505 51.3757C38.2321 51.4089 38.0948 51.4384 37.9386 51.4645C37.7847 51.4882 37.6344 51.5095 37.4876 51.5284C37.3432 51.545 37.226 51.5592 37.136 51.571C36.9182 51.5994 36.7146 51.6456 36.5252 51.7095C36.3382 51.7711 36.1867 51.8646 36.0707 51.9901C35.957 52.1132 35.9002 52.2812 35.9002 52.4943C35.9002 52.7855 36.0079 53.0057 36.2234 53.1548C36.4412 53.3016 36.717 53.375 37.0508 53.375ZM40.9526 56.0455V48.5455H41.7623V49.4119H41.8617C41.9232 49.3172 42.0085 49.1965 42.1174 49.0497C42.2286 48.9006 42.3873 48.768 42.5932 48.652C42.8016 48.5336 43.0833 48.4744 43.4384 48.4744C43.8977 48.4744 44.3025 48.5893 44.6529 48.8189C45.0033 49.0485 45.2767 49.3741 45.4732 49.7955C45.6697 50.2169 45.7679 50.714 45.7679 51.2869C45.7679 51.8646 45.6697 52.3653 45.4732 52.7891C45.2767 53.2105 45.0044 53.5372 44.6564 53.7692C44.3084 53.9988 43.9071 54.1136 43.4526 54.1136C43.1022 54.1136 42.8217 54.0556 42.611 53.9396C42.4003 53.8213 42.2381 53.6875 42.1245 53.5384C42.0108 53.3868 41.9232 53.2614 41.8617 53.1619H41.7907V56.0455H40.9526ZM41.7765 51.2727C41.7765 51.6847 41.8368 52.0481 41.9576 52.3629C42.0783 52.6754 42.2547 52.9205 42.4867 53.098C42.7187 53.2732 43.0028 53.3608 43.339 53.3608C43.6893 53.3608 43.9817 53.2685 44.2161 53.0838C44.4528 52.8968 44.6304 52.6458 44.7488 52.331C44.8695 52.0137 44.9299 51.661 44.9299 51.2727C44.9299 50.8892 44.8707 50.5436 44.7523 50.2358C44.6363 49.9257 44.4599 49.6806 44.2232 49.5007C43.9888 49.3184 43.6941 49.2273 43.339 49.2273C42.998 49.2273 42.7116 49.3137 42.4796 49.4865C42.2476 49.657 42.0724 49.8961 41.954 50.2038C41.8356 50.5092 41.7765 50.8655 41.7765 51.2727ZM48.2963 53.0057L48.2395 53.3892C48.1993 53.6591 48.1377 53.9479 48.0549 54.2557C47.9744 54.5634 47.8903 54.8535 47.8027 55.1257C47.7151 55.398 47.6429 55.6146 47.5861 55.7756H46.9469C46.9777 55.6241 47.0179 55.424 47.0676 55.1754C47.1174 54.9268 47.1671 54.6487 47.2168 54.3409C47.2689 54.0355 47.3115 53.723 47.3446 53.4034L47.3873 53.0057H48.2963ZM52.7752 46.7273H53.8263L56.2979 52.7642H56.3832L58.8548 46.7273H59.9059V54H59.082V48.4744H59.011L56.7383 54H55.9428L53.6701 48.4744H53.5991V54H52.7752V46.7273ZM63.1632 54.1278C62.8175 54.1278 62.5038 54.0627 62.2221 53.9325C61.9404 53.8 61.7167 53.6094 61.551 53.3608C61.3852 53.1098 61.3024 52.8068 61.3024 52.4517C61.3024 52.1392 61.3639 51.8859 61.487 51.6918C61.6101 51.4953 61.7747 51.3414 61.9806 51.2301C62.1866 51.1188 62.4139 51.036 62.6625 50.9815C62.9134 50.9247 63.1655 50.8797 63.4189 50.8466C63.7503 50.804 64.019 50.772 64.225 50.7507C64.4333 50.727 64.5848 50.688 64.6795 50.6335C64.7766 50.5791 64.8251 50.4844 64.8251 50.3494V50.321C64.8251 49.9706 64.7292 49.6984 64.5375 49.5043C64.3481 49.3101 64.0604 49.2131 63.6745 49.2131C63.2744 49.2131 62.9608 49.3007 62.7335 49.4759C62.5062 49.651 62.3464 49.8381 62.2541 50.0369L61.4586 49.7528C61.6007 49.4214 61.7901 49.1634 62.0268 48.9787C62.2659 48.7917 62.5263 48.6615 62.8081 48.5881C63.0922 48.5123 63.3715 48.4744 63.6461 48.4744C63.8213 48.4744 64.0225 48.4957 64.2498 48.5384C64.4795 48.5786 64.7008 48.6626 64.9139 48.7905C65.1293 48.9183 65.3081 49.1113 65.4501 49.3693C65.5922 49.6274 65.6632 49.973 65.6632 50.4062V54H64.8251V53.2614H64.7825C64.7257 53.3797 64.631 53.5064 64.4984 53.6413C64.3658 53.7763 64.1895 53.8911 63.9693 53.9858C63.7491 54.0805 63.4804 54.1278 63.1632 54.1278ZM63.291 53.375C63.6225 53.375 63.9018 53.3099 64.1291 53.1797C64.3587 53.0495 64.5315 52.8814 64.6475 52.6754C64.7659 52.4695 64.8251 52.2528 64.8251 52.0256V51.2585C64.7896 51.3011 64.7115 51.3402 64.5907 51.3757C64.4724 51.4089 64.335 51.4384 64.1788 51.4645C64.0249 51.4882 63.8746 51.5095 63.7278 51.5284C63.5834 51.545 63.4662 51.5592 63.3762 51.571C63.1584 51.5994 62.9548 51.6456 62.7654 51.7095C62.5784 51.7711 62.4269 51.8646 62.3109 51.9901C62.1973 52.1132 62.1404 52.2812 62.1404 52.4943C62.1404 52.7855 62.2482 53.0057 62.4636 53.1548C62.6814 53.3016 62.9572 53.375 63.291 53.375ZM69.565 48.5455V49.2557H66.7383V48.5455H69.565ZM67.5621 47.2386H68.4002V52.4375C68.4002 52.6742 68.4345 52.8518 68.5032 52.9702C68.5742 53.0862 68.6642 53.1643 68.7731 53.2045C68.8844 53.2424 69.0015 53.2614 69.1246 53.2614C69.217 53.2614 69.2927 53.2566 69.3519 53.2472C69.4111 53.2353 69.4585 53.2259 69.494 53.2188L69.6644 53.9716C69.6076 53.9929 69.5283 54.0142 69.4265 54.0355C69.3247 54.0592 69.1957 54.071 69.0394 54.071C68.8027 54.071 68.5707 54.0201 68.3434 53.9183C68.1185 53.8165 67.9315 53.6615 67.7823 53.4531C67.6355 53.2448 67.5621 52.982 67.5621 52.6648V47.2386ZM73.054 54.1136C72.5284 54.1136 72.075 53.9976 71.6939 53.7656C71.3151 53.5312 71.0227 53.2045 70.8168 52.7855C70.6132 52.3641 70.5114 51.8741 70.5114 51.3153C70.5114 50.7566 70.6132 50.2642 70.8168 49.8381C71.0227 49.4096 71.3092 49.0758 71.6761 48.8366C72.0455 48.5952 72.4763 48.4744 72.9688 48.4744C73.2528 48.4744 73.5334 48.5218 73.8104 48.6165C74.0874 48.7112 74.3395 48.8651 74.5668 49.0781C74.794 49.2888 74.9751 49.5682 75.1101 49.9162C75.245 50.2642 75.3125 50.6927 75.3125 51.2017V51.5568H71.108V50.8324H74.4602C74.4602 50.5246 74.3987 50.25 74.2756 50.0085C74.1548 49.767 73.982 49.5765 73.7571 49.4368C73.5346 49.2971 73.2718 49.2273 72.9688 49.2273C72.6349 49.2273 72.3461 49.3101 72.1023 49.4759C71.8608 49.6392 71.675 49.8523 71.5447 50.1151C71.4145 50.3778 71.3494 50.6596 71.3494 50.9602V51.4432C71.3494 51.8551 71.4205 52.2043 71.5625 52.4908C71.7069 52.7749 71.907 52.9915 72.1626 53.1406C72.4183 53.2874 72.7154 53.3608 73.054 53.3608C73.2741 53.3608 73.473 53.33 73.6506 53.2685C73.8305 53.2045 73.9856 53.1098 74.1158 52.9844C74.246 52.8565 74.3466 52.6979 74.4176 52.5085L75.2273 52.7358C75.142 53.0104 74.9988 53.2519 74.7976 53.4602C74.5964 53.6662 74.3478 53.8272 74.0518 53.9432C73.7559 54.0568 73.4233 54.1136 73.054 54.1136ZM76.5874 54V48.5455H77.397V49.3693H77.4538C77.5533 49.0994 77.7332 48.8804 77.9936 48.7124C78.254 48.5443 78.5476 48.4602 78.8743 48.4602C78.9358 48.4602 79.0128 48.4614 79.1051 48.4638C79.1974 48.4661 79.2673 48.4697 79.3146 48.4744V49.3267C79.2862 49.3196 79.2211 49.3089 79.1193 49.2947C79.0199 49.2782 78.9145 49.2699 78.8033 49.2699C78.5381 49.2699 78.3014 49.3255 78.093 49.4368C77.8871 49.5457 77.7237 49.6972 77.603 49.8913C77.4846 50.0831 77.4254 50.3021 77.4254 50.5483V54H76.5874ZM80.3081 54V48.5455H81.1461V54H80.3081ZM80.7342 47.6364C80.5708 47.6364 80.43 47.5807 80.3116 47.4695C80.1956 47.3582 80.1376 47.2244 80.1376 47.0682C80.1376 46.9119 80.1956 46.7782 80.3116 46.6669C80.43 46.5556 80.5708 46.5 80.7342 46.5C80.8975 46.5 81.0372 46.5556 81.1532 46.6669C81.2716 46.7782 81.3308 46.9119 81.3308 47.0682C81.3308 47.2244 81.2716 47.3582 81.1532 47.4695C81.0372 47.5807 80.8975 47.6364 80.7342 47.6364ZM84.2862 54.1278C83.9406 54.1278 83.6269 54.0627 83.3452 53.9325C83.0634 53.8 82.8397 53.6094 82.674 53.3608C82.5083 53.1098 82.4254 52.8068 82.4254 52.4517C82.4254 52.1392 82.487 51.8859 82.6101 51.6918C82.7332 51.4953 82.8977 51.3414 83.1037 51.2301C83.3097 51.1188 83.5369 51.036 83.7855 50.9815C84.0365 50.9247 84.2886 50.8797 84.5419 50.8466C84.8733 50.804 85.142 50.772 85.348 50.7507C85.5563 50.727 85.7079 50.688 85.8026 50.6335C85.8996 50.5791 85.9482 50.4844 85.9482 50.3494V50.321C85.9482 49.9706 85.8523 49.6984 85.6605 49.5043C85.4711 49.3101 85.1835 49.2131 84.7976 49.2131C84.3975 49.2131 84.0838 49.3007 83.8565 49.4759C83.6293 49.651 83.4695 49.8381 83.3771 50.0369L82.5817 49.7528C82.7237 49.4214 82.9131 49.1634 83.1499 48.9787C83.389 48.7917 83.6494 48.6615 83.9311 48.5881C84.2152 48.5123 84.4946 48.4744 84.7692 48.4744C84.9444 48.4744 85.1456 48.4957 85.3729 48.5384C85.6025 48.5786 85.8239 48.6626 86.0369 48.7905C86.2524 48.9183 86.4311 49.1113 86.5732 49.3693C86.7152 49.6274 86.7862 49.973 86.7862 50.4062V54H85.9482V53.2614H85.9055C85.8487 53.3797 85.754 53.5064 85.6214 53.6413C85.4889 53.7763 85.3125 53.8911 85.0923 53.9858C84.8722 54.0805 84.6035 54.1278 84.2862 54.1278ZM84.4141 53.375C84.7455 53.375 85.0249 53.3099 85.2521 53.1797C85.4818 53.0495 85.6546 52.8814 85.7706 52.6754C85.889 52.4695 85.9482 52.2528 85.9482 52.0256V51.2585C85.9126 51.3011 85.8345 51.3402 85.7138 51.3757C85.5954 51.4089 85.4581 51.4384 85.3018 51.4645C85.148 51.4882 84.9976 51.5095 84.8509 51.5284C84.7064 51.545 84.5893 51.5592 84.4993 51.571C84.2815 51.5994 84.0779 51.6456 83.8885 51.7095C83.7015 51.7711 83.55 51.8646 83.4339 51.9901C83.3203 52.1132 83.2635 52.2812 83.2635 52.4943C83.2635 52.7855 83.3712 53.0057 83.5866 53.1548C83.8045 53.3016 84.0803 53.375 84.4141 53.375ZM89.1539 46.7273V54H88.3159V46.7273H89.1539ZM93.8139 50.4915V51.2727H90.6321V50.4915H93.8139ZM100.175 46.7273H101.056V51.5426C101.056 52.0398 100.938 52.4837 100.704 52.8743C100.472 53.2625 100.144 53.5691 99.7203 53.794C99.2966 54.0166 98.7994 54.1278 98.2289 54.1278C97.6583 54.1278 97.1612 54.0166 96.7374 53.794C96.3136 53.5691 95.9846 53.2625 95.7502 52.8743C95.5182 52.4837 95.4022 52.0398 95.4022 51.5426V46.7273H96.2828V51.4716C96.2828 51.8267 96.361 52.1428 96.5172 52.4197C96.6735 52.6944 96.896 52.911 97.1848 53.0696C97.476 53.2259 97.824 53.304 98.2289 53.304C98.6337 53.304 98.9817 53.2259 99.2729 53.0696C99.5641 52.911 99.7866 52.6944 99.9405 52.4197C100.097 52.1428 100.175 51.8267 100.175 51.4716V46.7273ZM103.695 46.7273V54H102.814V46.7273H103.695ZM108.699 56.0455C108.557 56.0455 108.431 56.0336 108.319 56.0099C108.208 55.9886 108.131 55.9673 108.089 55.946L108.302 55.2074C108.505 55.2595 108.685 55.2784 108.841 55.2642C108.998 55.25 109.136 55.1802 109.257 55.0547C109.38 54.9316 109.492 54.7315 109.594 54.4545L109.751 54.0284L107.733 48.5455H108.643L110.148 52.892H110.205L111.711 48.5455H112.62L110.305 54.7955C110.2 55.0772 110.071 55.3104 109.917 55.495C109.764 55.6821 109.585 55.8205 109.381 55.9105C109.18 56.0005 108.953 56.0455 108.699 56.0455ZM116.254 47.5085V46.7273H121.709V47.5085H119.422V54H118.541V47.5085H116.254ZM123.817 54.1278C123.472 54.1278 123.158 54.0627 122.876 53.9325C122.595 53.8 122.371 53.6094 122.205 53.3608C122.04 53.1098 121.957 52.8068 121.957 52.4517C121.957 52.1392 122.018 51.8859 122.141 51.6918C122.264 51.4953 122.429 51.3414 122.635 51.2301C122.841 51.1188 123.068 51.036 123.317 50.9815C123.568 50.9247 123.82 50.8797 124.073 50.8466C124.405 50.804 124.673 50.772 124.879 50.7507C125.088 50.727 125.239 50.688 125.334 50.6335C125.431 50.5791 125.479 50.4844 125.479 50.3494V50.321C125.479 49.9706 125.384 49.6984 125.192 49.5043C125.002 49.3101 124.715 49.2131 124.329 49.2131C123.929 49.2131 123.615 49.3007 123.388 49.4759C123.161 49.651 123.001 49.8381 122.908 50.0369L122.113 49.7528C122.255 49.4214 122.444 49.1634 122.681 48.9787C122.92 48.7917 123.181 48.6615 123.462 48.5881C123.746 48.5123 124.026 48.4744 124.3 48.4744C124.476 48.4744 124.677 48.4957 124.904 48.5384C125.134 48.5786 125.355 48.6626 125.568 48.7905C125.784 48.9183 125.962 49.1113 126.104 49.3693C126.246 49.6274 126.317 49.973 126.317 50.4062V54H125.479V53.2614H125.437C125.38 53.3797 125.285 53.5064 125.153 53.6413C125.02 53.7763 124.844 53.8911 124.624 53.9858C124.403 54.0805 124.135 54.1278 123.817 54.1278ZM123.945 53.375C124.277 53.375 124.556 53.3099 124.783 53.1797C125.013 53.0495 125.186 52.8814 125.302 52.6754C125.42 52.4695 125.479 52.2528 125.479 52.0256V51.2585C125.444 51.3011 125.366 51.3402 125.245 51.3757C125.127 51.4089 124.989 51.4384 124.833 51.4645C124.679 51.4882 124.529 51.5095 124.382 51.5284C124.238 51.545 124.121 51.5592 124.031 51.571C123.813 51.5994 123.609 51.6456 123.42 51.7095C123.233 51.7711 123.081 51.8646 122.965 51.9901C122.852 52.1132 122.795 52.2812 122.795 52.4943C122.795 52.7855 122.902 53.0057 123.118 53.1548C123.336 53.3016 123.612 53.375 123.945 53.375ZM127.847 54V48.5455H128.685V54H127.847ZM128.273 47.6364C128.11 47.6364 127.969 47.5807 127.851 47.4695C127.735 47.3582 127.677 47.2244 127.677 47.0682C127.677 46.9119 127.735 46.7782 127.851 46.6669C127.969 46.5556 128.11 46.5 128.273 46.5C128.437 46.5 128.576 46.5556 128.692 46.6669C128.811 46.7782 128.87 46.9119 128.87 47.0682C128.87 47.2244 128.811 47.3582 128.692 47.4695C128.576 47.5807 128.437 47.6364 128.273 47.6364ZM131.058 46.7273V54H130.22V46.7273H131.058ZM133.829 54L132.167 48.5455H133.048L134.227 52.7216H134.284L135.448 48.5455H136.343L137.494 52.7074H137.551L138.73 48.5455H139.61L137.948 54H137.124L135.931 49.8097H135.846L134.653 54H133.829ZM140.718 54V48.5455H141.556V54H140.718ZM141.144 47.6364C140.981 47.6364 140.84 47.5807 140.722 47.4695C140.606 47.3582 140.548 47.2244 140.548 47.0682C140.548 46.9119 140.606 46.7782 140.722 46.6669C140.84 46.5556 140.981 46.5 141.144 46.5C141.308 46.5 141.447 46.5556 141.563 46.6669C141.682 46.7782 141.741 46.9119 141.741 47.0682C141.741 47.2244 141.682 47.3582 141.563 47.4695C141.447 47.5807 141.308 47.6364 141.144 47.6364ZM143.929 50.7188V54H143.091V48.5455H143.901V49.3977H143.972C144.1 49.1207 144.294 48.8982 144.554 48.7301C144.815 48.5597 145.151 48.4744 145.563 48.4744C145.932 48.4744 146.255 48.5502 146.532 48.7017C146.809 48.8509 147.025 49.0781 147.179 49.3835C147.333 49.6866 147.409 50.0701 147.409 50.5341V54H146.571V50.5909C146.571 50.1624 146.46 49.8286 146.238 49.5895C146.015 49.348 145.71 49.2273 145.321 49.2273C145.054 49.2273 144.815 49.2853 144.604 49.4013C144.396 49.5173 144.231 49.6866 144.11 49.9091C143.99 50.1316 143.929 50.4015 143.929 50.7188ZM151.001 54.1136C150.546 54.1136 150.145 53.9988 149.797 53.7692C149.449 53.5372 149.176 53.2105 148.98 52.7891C148.783 52.3653 148.685 51.8646 148.685 51.2869C148.685 50.714 148.783 50.2169 148.98 49.7955C149.176 49.3741 149.45 49.0485 149.8 48.8189C150.151 48.5893 150.555 48.4744 151.015 48.4744C151.37 48.4744 151.65 48.5336 151.856 48.652C152.065 48.768 152.223 48.9006 152.332 49.0497C152.443 49.1965 152.53 49.3172 152.591 49.4119H152.662V46.7273H153.501V54H152.691V53.1619H152.591C152.53 53.2614 152.442 53.3868 152.329 53.5384C152.215 53.6875 152.053 53.8213 151.842 53.9396C151.631 54.0556 151.351 54.1136 151.001 54.1136ZM151.114 53.3608C151.45 53.3608 151.734 53.2732 151.966 53.098C152.198 52.9205 152.375 52.6754 152.496 52.3629C152.616 52.0481 152.677 51.6847 152.677 51.2727C152.677 50.8655 152.617 50.5092 152.499 50.2038C152.381 49.8961 152.206 49.657 151.974 49.4865C151.742 49.3137 151.455 49.2273 151.114 49.2273C150.759 49.2273 150.463 49.3184 150.226 49.5007C149.992 49.6806 149.816 49.9257 149.697 50.2358C149.581 50.5436 149.523 50.8892 149.523 51.2727C149.523 51.661 149.582 52.0137 149.701 52.331C149.822 52.6458 149.999 52.8968 150.233 53.0838C150.47 53.2685 150.764 53.3608 151.114 53.3608ZM163.93 49H163.05C162.997 48.7467 162.906 48.5241 162.776 48.3324C162.648 48.1406 162.492 47.9796 162.307 47.8494C162.125 47.7169 161.923 47.6174 161.7 47.5511C161.478 47.4848 161.246 47.4517 161.004 47.4517C160.564 47.4517 160.165 47.563 159.807 47.7855C159.452 48.008 159.169 48.3359 158.959 48.7692C158.75 49.2024 158.646 49.7339 158.646 50.3636C158.646 50.9934 158.75 51.5249 158.959 51.9581C159.169 52.3913 159.452 52.7192 159.807 52.9418C160.165 53.1643 160.564 53.2756 161.004 53.2756C161.246 53.2756 161.478 53.2424 161.7 53.1761C161.923 53.1098 162.125 53.0116 162.307 52.8814C162.492 52.7488 162.648 52.5866 162.776 52.3949C162.906 52.2008 162.997 51.9782 163.05 51.7273H163.93C163.864 52.099 163.743 52.4316 163.568 52.7251C163.393 53.0187 163.175 53.2685 162.915 53.4744C162.654 53.678 162.362 53.8331 162.037 53.9396C161.715 54.0462 161.371 54.0994 161.004 54.0994C160.384 54.0994 159.832 53.9479 159.349 53.6449C158.866 53.3419 158.486 52.911 158.209 52.3523C157.932 51.7936 157.794 51.1307 157.794 50.3636C157.794 49.5966 157.932 48.9337 158.209 48.375C158.486 47.8163 158.866 47.3854 159.349 47.0824C159.832 46.7794 160.384 46.6278 161.004 46.6278C161.371 46.6278 161.715 46.6811 162.037 46.7876C162.362 46.8942 162.654 47.0504 162.915 47.2564C163.175 47.46 163.393 47.7086 163.568 48.0021C163.743 48.2933 163.864 48.6259 163.93 49ZM169.331 48.5455C169.288 48.1856 169.115 47.9062 168.812 47.7074C168.509 47.5085 168.137 47.4091 167.697 47.4091C167.375 47.4091 167.093 47.4612 166.852 47.5653C166.613 47.6695 166.426 47.8127 166.291 47.995C166.158 48.1773 166.092 48.3845 166.092 48.6165C166.092 48.8106 166.138 48.9775 166.23 49.1172C166.325 49.2545 166.446 49.3693 166.593 49.4616C166.739 49.5516 166.893 49.6262 167.054 49.6854C167.215 49.7422 167.363 49.7884 167.498 49.8239L168.237 50.0227C168.426 50.0724 168.637 50.1411 168.869 50.2287C169.103 50.3163 169.327 50.4358 169.54 50.5874C169.756 50.7365 169.933 50.9283 170.073 51.1626C170.212 51.397 170.282 51.6847 170.282 52.0256C170.282 52.4186 170.179 52.7737 169.973 53.0909C169.77 53.4081 169.471 53.6603 169.078 53.8473C168.688 54.0343 168.213 54.1278 167.654 54.1278C167.134 54.1278 166.683 54.0438 166.301 53.8757C165.923 53.7076 165.624 53.4732 165.407 53.1726C165.191 52.8719 165.069 52.5227 165.041 52.125H165.95C165.974 52.3996 166.066 52.6269 166.227 52.8068C166.39 52.9844 166.596 53.117 166.845 53.2045C167.096 53.2898 167.366 53.3324 167.654 53.3324C167.991 53.3324 168.292 53.2779 168.56 53.169C168.828 53.0578 169.039 52.9039 169.196 52.7074C169.352 52.5085 169.43 52.2765 169.43 52.0114C169.43 51.7699 169.363 51.5734 169.228 51.4219C169.093 51.2704 168.915 51.1473 168.695 51.0526C168.475 50.9579 168.237 50.875 167.981 50.804L167.086 50.5483C166.518 50.3849 166.068 50.1518 165.737 49.8487C165.405 49.5457 165.24 49.1491 165.24 48.6591C165.24 48.2519 165.35 47.8968 165.57 47.5938C165.792 47.2884 166.091 47.0516 166.465 46.8835C166.841 46.7131 167.261 46.6278 167.725 46.6278C168.194 46.6278 168.611 46.7119 168.975 46.88C169.34 47.0457 169.629 47.273 169.842 47.5618C170.057 47.8506 170.171 48.1785 170.183 48.5455H169.331ZM175.708 48.5455C175.665 48.1856 175.492 47.9062 175.189 47.7074C174.886 47.5085 174.514 47.4091 174.074 47.4091C173.752 47.4091 173.47 47.4612 173.229 47.5653C172.99 47.6695 172.803 47.8127 172.668 47.995C172.535 48.1773 172.469 48.3845 172.469 48.6165C172.469 48.8106 172.515 48.9775 172.607 49.1172C172.702 49.2545 172.823 49.3693 172.97 49.4616C173.116 49.5516 173.27 49.6262 173.431 49.6854C173.592 49.7422 173.74 49.7884 173.875 49.8239L174.614 50.0227C174.803 50.0724 175.014 50.1411 175.246 50.2287C175.48 50.3163 175.704 50.4358 175.917 50.5874C176.133 50.7365 176.31 50.9283 176.45 51.1626C176.589 51.397 176.659 51.6847 176.659 52.0256C176.659 52.4186 176.556 52.7737 176.35 53.0909C176.147 53.4081 175.848 53.6603 175.455 53.8473C175.065 54.0343 174.59 54.1278 174.031 54.1278C173.511 54.1278 173.06 54.0438 172.678 53.8757C172.3 53.7076 172.001 53.4732 171.784 53.1726C171.568 52.8719 171.446 52.5227 171.418 52.125H172.327C172.351 52.3996 172.443 52.6269 172.604 52.8068C172.767 52.9844 172.973 53.117 173.222 53.2045C173.473 53.2898 173.743 53.3324 174.031 53.3324C174.368 53.3324 174.669 53.2779 174.937 53.169C175.204 53.0578 175.416 52.9039 175.573 52.7074C175.729 52.5085 175.807 52.2765 175.807 52.0114C175.807 51.7699 175.74 51.5734 175.605 51.4219C175.47 51.2704 175.292 51.1473 175.072 51.0526C174.852 50.9579 174.614 50.875 174.358 50.804L173.463 50.5483C172.895 50.3849 172.445 50.1518 172.114 49.8487C171.782 49.5457 171.617 49.1491 171.617 48.6591C171.617 48.2519 171.727 47.8968 171.947 47.5938C172.169 47.2884 172.468 47.0516 172.842 46.8835C173.218 46.7131 173.638 46.6278 174.102 46.6278C174.571 46.6278 174.988 46.7119 175.352 46.88C175.717 47.0457 176.006 47.273 176.219 47.5618C176.434 47.8506 176.548 48.1785 176.56 48.5455H175.708ZM183.022 54.1136C182.53 54.1136 182.098 53.9964 181.726 53.7621C181.357 53.5277 181.068 53.1998 180.859 52.7784C180.653 52.357 180.55 51.8646 180.55 51.3011C180.55 50.733 180.653 50.237 180.859 49.8132C181.068 49.3894 181.357 49.0604 181.726 48.826C182.098 48.5916 182.53 48.4744 183.022 48.4744C183.514 48.4744 183.945 48.5916 184.315 48.826C184.686 49.0604 184.975 49.3894 185.181 49.8132C185.389 50.237 185.494 50.733 185.494 51.3011C185.494 51.8646 185.389 52.357 185.181 52.7784C184.975 53.1998 184.686 53.5277 184.315 53.7621C183.945 53.9964 183.514 54.1136 183.022 54.1136ZM183.022 53.3608C183.396 53.3608 183.704 53.2649 183.945 53.0732C184.187 52.8814 184.366 52.6293 184.482 52.3168C184.598 52.0043 184.656 51.6657 184.656 51.3011C184.656 50.9366 184.598 50.5968 184.482 50.282C184.366 49.9671 184.187 49.7126 183.945 49.5185C183.704 49.3243 183.396 49.2273 183.022 49.2273C182.648 49.2273 182.34 49.3243 182.099 49.5185C181.857 49.7126 181.679 49.9671 181.562 50.282C181.446 50.5968 181.388 50.9366 181.388 51.3011C181.388 51.6657 181.446 52.0043 181.562 52.3168C181.679 52.6293 181.857 52.8814 182.099 53.0732C182.34 53.2649 182.648 53.3608 183.022 53.3608ZM189.202 48.5455V49.2557H186.262V48.5455H189.202ZM187.142 54V47.7926C187.142 47.4801 187.216 47.2197 187.362 47.0114C187.509 46.803 187.7 46.6468 187.934 46.5426C188.169 46.4384 188.416 46.3864 188.676 46.3864C188.882 46.3864 189.05 46.4029 189.181 46.4361C189.311 46.4692 189.408 46.5 189.472 46.5284L189.23 47.2528C189.188 47.2386 189.128 47.2209 189.053 47.1996C188.979 47.1783 188.882 47.1676 188.762 47.1676C188.485 47.1676 188.285 47.2375 188.161 47.3771C188.041 47.5168 187.98 47.7216 187.98 47.9915V54H187.142ZM190.376 54V48.5455H191.186V49.3693H191.243C191.342 49.0994 191.522 48.8804 191.783 48.7124C192.043 48.5443 192.337 48.4602 192.663 48.4602C192.725 48.4602 192.802 48.4614 192.894 48.4638C192.987 48.4661 193.056 48.4697 193.104 48.4744V49.3267C193.075 49.3196 193.01 49.3089 192.908 49.2947C192.809 49.2782 192.704 49.2699 192.592 49.2699C192.327 49.2699 192.09 49.3255 191.882 49.4368C191.676 49.5457 191.513 49.6972 191.392 49.8913C191.274 50.0831 191.214 50.3021 191.214 50.5483V54H190.376ZM196.218 54.1136C195.692 54.1136 195.239 53.9976 194.858 53.7656C194.479 53.5312 194.187 53.2045 193.981 52.7855C193.777 52.3641 193.675 51.8741 193.675 51.3153C193.675 50.7566 193.777 50.2642 193.981 49.8381C194.187 49.4096 194.473 49.0758 194.84 48.8366C195.21 48.5952 195.64 48.4744 196.133 48.4744C196.417 48.4744 196.697 48.5218 196.974 48.6165C197.251 48.7112 197.504 48.8651 197.731 49.0781C197.958 49.2888 198.139 49.5682 198.274 49.9162C198.409 50.2642 198.477 50.6927 198.477 51.2017V51.5568H194.272V50.8324H197.624C197.624 50.5246 197.563 50.25 197.44 50.0085C197.319 49.767 197.146 49.5765 196.921 49.4368C196.699 49.2971 196.436 49.2273 196.133 49.2273C195.799 49.2273 195.51 49.3101 195.266 49.4759C195.025 49.6392 194.839 49.8523 194.709 50.1151C194.579 50.3778 194.513 50.6596 194.513 50.9602V51.4432C194.513 51.8551 194.585 52.2043 194.727 52.4908C194.871 52.7749 195.071 52.9915 195.327 53.1406C195.582 53.2874 195.879 53.3608 196.218 53.3608C196.438 53.3608 196.637 53.33 196.815 53.2685C196.995 53.2045 197.15 53.1098 197.28 52.9844C197.41 52.8565 197.511 52.6979 197.582 52.5085L198.391 52.7358C198.306 53.0104 198.163 53.2519 197.962 53.4602C197.76 53.6662 197.512 53.8272 197.216 53.9432C196.92 54.0568 196.587 54.1136 196.218 54.1136ZM201.967 54.1136C201.456 54.1136 201.016 53.9929 200.646 53.7514C200.277 53.5099 199.993 53.1773 199.794 52.7536C199.595 52.3298 199.496 51.8456 199.496 51.3011C199.496 50.7472 199.598 50.2583 199.801 49.8345C200.007 49.4084 200.294 49.0758 200.661 48.8366C201.03 48.5952 201.461 48.4744 201.953 48.4744C202.337 48.4744 202.682 48.5455 202.99 48.6875C203.298 48.8295 203.55 49.0284 203.746 49.2841C203.943 49.5398 204.065 49.8381 204.112 50.179H203.274C203.21 49.9304 203.068 49.7102 202.848 49.5185C202.63 49.3243 202.337 49.2273 201.967 49.2273C201.641 49.2273 201.354 49.3125 201.108 49.483C200.864 49.651 200.674 49.889 200.536 50.1967C200.401 50.5021 200.334 50.8608 200.334 51.2727C200.334 51.6941 200.4 52.0611 200.533 52.3736C200.668 52.6861 200.857 52.9287 201.101 53.1016C201.347 53.2744 201.636 53.3608 201.967 53.3608C202.185 53.3608 202.383 53.3229 202.56 53.2472C202.738 53.1714 202.888 53.0625 203.011 52.9205C203.134 52.7784 203.222 52.608 203.274 52.4091H204.112C204.065 52.7311 203.948 53.0211 203.761 53.2791C203.576 53.5348 203.331 53.7384 203.026 53.8899C202.723 54.0391 202.37 54.1136 201.967 54.1136ZM207.624 54.1136C207.099 54.1136 206.645 53.9976 206.264 53.7656C205.885 53.5312 205.593 53.2045 205.387 52.7855C205.183 52.3641 205.082 51.8741 205.082 51.3153C205.082 50.7566 205.183 50.2642 205.387 49.8381C205.593 49.4096 205.879 49.0758 206.246 48.8366C206.616 48.5952 207.047 48.4744 207.539 48.4744C207.823 48.4744 208.104 48.5218 208.381 48.6165C208.658 48.7112 208.91 48.8651 209.137 49.0781C209.364 49.2888 209.545 49.5682 209.68 49.9162C209.815 50.2642 209.883 50.6927 209.883 51.2017V51.5568H205.678V50.8324H209.031C209.031 50.5246 208.969 50.25 208.846 50.0085C208.725 49.767 208.552 49.5765 208.327 49.4368C208.105 49.2971 207.842 49.2273 207.539 49.2273C207.205 49.2273 206.916 49.3101 206.673 49.4759C206.431 49.6392 206.245 49.8523 206.115 50.1151C205.985 50.3778 205.92 50.6596 205.92 50.9602V51.4432C205.92 51.8551 205.991 52.2043 206.133 52.4908C206.277 52.7749 206.477 52.9915 206.733 53.1406C206.989 53.2874 207.286 53.3608 207.624 53.3608C207.844 53.3608 208.043 53.33 208.221 53.2685C208.401 53.2045 208.556 53.1098 208.686 52.9844C208.816 52.8565 208.917 52.6979 208.988 52.5085L209.798 52.7358C209.712 53.0104 209.569 53.2519 209.368 53.4602C209.167 53.6662 208.918 53.8272 208.622 53.9432C208.326 54.0568 207.994 54.1136 207.624 54.1136ZM211.996 50.7188V54H211.158V48.5455H211.967V49.3977H212.038C212.166 49.1207 212.36 48.8982 212.621 48.7301C212.881 48.5597 213.217 48.4744 213.629 48.4744C213.999 48.4744 214.322 48.5502 214.599 48.7017C214.876 48.8509 215.091 49.0781 215.245 49.3835C215.399 49.6866 215.476 50.0701 215.476 50.5341V54H214.638V50.5909C214.638 50.1624 214.527 49.8286 214.304 49.5895C214.081 49.348 213.776 49.2273 213.388 49.2273C213.12 49.2273 212.881 49.2853 212.67 49.4013C212.462 49.5173 212.298 49.6866 212.177 49.9091C212.056 50.1316 211.996 50.4015 211.996 50.7188ZM2.98295 66.1136C2.47159 66.1136 2.03125 65.9929 1.66193 65.7514C1.29261 65.5099 1.00852 65.1773 0.809659 64.7536C0.610795 64.3298 0.511364 63.8456 0.511364 63.3011C0.511364 62.7472 0.613163 62.2583 0.816761 61.8345C1.02273 61.4084 1.30919 61.0758 1.67614 60.8366C2.04545 60.5952 2.47633 60.4744 2.96875 60.4744C3.35227 60.4744 3.69792 60.5455 4.00568 60.6875C4.31345 60.8295 4.56558 61.0284 4.76207 61.2841C4.95857 61.5398 5.08049 61.8381 5.12784 62.179H4.28977C4.22585 61.9304 4.08381 61.7102 3.86364 61.5185C3.64583 61.3243 3.35227 61.2273 2.98295 61.2273C2.65625 61.2273 2.36979 61.3125 2.12358 61.483C1.87973 61.651 1.68916 61.889 1.55185 62.1967C1.4169 62.5021 1.34943 62.8608 1.34943 63.2727C1.34943 63.6941 1.41572 64.0611 1.5483 64.3736C1.68324 64.6861 1.87263 64.9287 2.11648 65.1016C2.36269 65.2744 2.65152 65.3608 2.98295 65.3608C3.20076 65.3608 3.39844 65.3229 3.57599 65.2472C3.75355 65.1714 3.90388 65.0625 4.02699 64.9205C4.15009 64.7784 4.23769 64.608 4.28977 64.4091H5.12784C5.08049 64.7311 4.9633 65.0211 4.77628 65.2791C4.59162 65.5348 4.34659 65.7384 4.04119 65.8899C3.73816 66.0391 3.38542 66.1136 2.98295 66.1136ZM8.56889 66.1136C8.07647 66.1136 7.64441 65.9964 7.27273 65.7621C6.90341 65.5277 6.61458 65.1998 6.40625 64.7784C6.20028 64.357 6.0973 63.8646 6.0973 63.3011C6.0973 62.733 6.20028 62.237 6.40625 61.8132C6.61458 61.3894 6.90341 61.0604 7.27273 60.826C7.64441 60.5916 8.07647 60.4744 8.56889 60.4744C9.06132 60.4744 9.49219 60.5916 9.86151 60.826C10.2332 61.0604 10.522 61.3894 10.728 61.8132C10.9363 62.237 11.0405 62.733 11.0405 63.3011C11.0405 63.8646 10.9363 64.357 10.728 64.7784C10.522 65.1998 10.2332 65.5277 9.86151 65.7621C9.49219 65.9964 9.06132 66.1136 8.56889 66.1136ZM8.56889 65.3608C8.94295 65.3608 9.25071 65.2649 9.49219 65.0732C9.73366 64.8814 9.91241 64.6293 10.0284 64.3168C10.1444 64.0043 10.2024 63.6657 10.2024 63.3011C10.2024 62.9366 10.1444 62.5968 10.0284 62.282C9.91241 61.9671 9.73366 61.7126 9.49219 61.5185C9.25071 61.3243 8.94295 61.2273 8.56889 61.2273C8.19484 61.2273 7.88707 61.3243 7.6456 61.5185C7.40412 61.7126 7.22538 61.9671 7.10938 62.282C6.99337 62.5968 6.93537 62.9366 6.93537 63.3011C6.93537 63.6657 6.99337 64.0043 7.10938 64.3168C7.22538 64.6293 7.40412 64.8814 7.6456 65.0732C7.88707 65.2649 8.19484 65.3608 8.56889 65.3608ZM12.3198 66V60.5455H13.1294V61.3977H13.2005C13.3141 61.1065 13.4976 60.8804 13.7509 60.7195C14.0042 60.5561 14.3084 60.4744 14.6635 60.4744C15.0234 60.4744 15.3229 60.5561 15.562 60.7195C15.8034 60.8804 15.9917 61.1065 16.1266 61.3977H16.1834C16.3231 61.116 16.5326 60.8923 16.812 60.7266C17.0913 60.5585 17.4263 60.4744 17.8169 60.4744C18.3046 60.4744 18.7035 60.6271 19.0137 60.9325C19.3238 61.2356 19.4789 61.7079 19.4789 62.3494V66H18.6408V62.3494C18.6408 61.947 18.5307 61.6593 18.3105 61.4865C18.0904 61.3137 17.8311 61.2273 17.5328 61.2273C17.1493 61.2273 16.8522 61.3433 16.6415 61.5753C16.4308 61.8049 16.3255 62.0961 16.3255 62.4489V66H15.4732V62.2642C15.4732 61.9541 15.3726 61.7043 15.1713 61.5149C14.9701 61.3232 14.7109 61.2273 14.3936 61.2273C14.1758 61.2273 13.9722 61.2853 13.7828 61.4013C13.5958 61.5173 13.4443 61.6783 13.3283 61.8842C13.2147 62.0878 13.1578 62.3234 13.1578 62.5909V66H12.3198ZM21.0112 68.0455V60.5455H21.8208V61.4119H21.9203C21.9818 61.3172 22.0671 61.1965 22.176 61.0497C22.2872 60.9006 22.4458 60.768 22.6518 60.652C22.8601 60.5336 23.1419 60.4744 23.497 60.4744C23.9563 60.4744 24.3611 60.5893 24.7115 60.8189C25.0618 61.0485 25.3353 61.3741 25.5318 61.7955C25.7283 62.2169 25.8265 62.714 25.8265 63.2869C25.8265 63.8646 25.7283 64.3653 25.5318 64.7891C25.3353 65.2105 25.063 65.5372 24.715 65.7692C24.367 65.9988 23.9657 66.1136 23.5112 66.1136C23.1608 66.1136 22.8803 66.0556 22.6696 65.9396C22.4589 65.8213 22.2967 65.6875 22.1831 65.5384C22.0694 65.3868 21.9818 65.2614 21.9203 65.1619H21.8493V68.0455H21.0112ZM21.835 63.2727C21.835 63.6847 21.8954 64.0481 22.0162 64.3629C22.1369 64.6754 22.3133 64.9205 22.5453 65.098C22.7773 65.2732 23.0614 65.3608 23.3975 65.3608C23.7479 65.3608 24.0403 65.2685 24.2747 65.0838C24.5114 64.8968 24.689 64.6458 24.8074 64.331C24.9281 64.0137 24.9885 63.661 24.9885 63.2727C24.9885 62.8892 24.9293 62.5436 24.8109 62.2358C24.6949 61.9257 24.5185 61.6806 24.2818 61.5007C24.0474 61.3184 23.7527 61.2273 23.3975 61.2273C23.0566 61.2273 22.7702 61.3137 22.5382 61.4865C22.3062 61.657 22.131 61.8961 22.0126 62.2038C21.8942 62.5092 21.835 62.8655 21.835 63.2727ZM29.3208 66.1136C28.8284 66.1136 28.3964 65.9964 28.0247 65.7621C27.6554 65.5277 27.3665 65.1998 27.1582 64.7784C26.9522 64.357 26.8493 63.8646 26.8493 63.3011C26.8493 62.733 26.9522 62.237 27.1582 61.8132C27.3665 61.3894 27.6554 61.0604 28.0247 60.826C28.3964 60.5916 28.8284 60.4744 29.3208 60.4744C29.8133 60.4744 30.2441 60.5916 30.6135 60.826C30.9851 61.0604 31.274 61.3894 31.4799 61.8132C31.6883 62.237 31.7924 62.733 31.7924 63.3011C31.7924 63.8646 31.6883 64.357 31.4799 64.7784C31.274 65.1998 30.9851 65.5277 30.6135 65.7621C30.2441 65.9964 29.8133 66.1136 29.3208 66.1136ZM29.3208 65.3608C29.6949 65.3608 30.0027 65.2649 30.2441 65.0732C30.4856 64.8814 30.6644 64.6293 30.7804 64.3168C30.8964 64.0043 30.9544 63.6657 30.9544 63.3011C30.9544 62.9366 30.8964 62.5968 30.7804 62.282C30.6644 61.9671 30.4856 61.7126 30.2441 61.5185C30.0027 61.3243 29.6949 61.2273 29.3208 61.2273C28.9468 61.2273 28.639 61.3243 28.3975 61.5185C28.1561 61.7126 27.9773 61.9671 27.8613 62.282C27.7453 62.5968 27.6873 62.9366 27.6873 63.3011C27.6873 63.6657 27.7453 64.0043 27.8613 64.3168C27.9773 64.6293 28.1561 64.8814 28.3975 65.0732C28.639 65.2649 28.9468 65.3608 29.3208 65.3608ZM33.9098 62.7188V66H33.0717V60.5455H33.8814V61.3977H33.9524C34.0803 61.1207 34.2744 60.8982 34.5348 60.7301C34.7952 60.5597 35.1314 60.4744 35.5433 60.4744C35.9126 60.4744 36.2358 60.5502 36.5128 60.7017C36.7898 60.8509 37.0052 61.0781 37.1591 61.3835C37.313 61.6866 37.3899 62.0701 37.3899 62.5341V66H36.5518V62.5909C36.5518 62.1624 36.4406 61.8286 36.218 61.5895C35.9955 61.348 35.6901 61.2273 35.3018 61.2273C35.0343 61.2273 34.7952 61.2853 34.5845 61.4013C34.3762 61.5173 34.2116 61.6866 34.0909 61.9091C33.9702 62.1316 33.9098 62.4015 33.9098 62.7188ZM41.2083 66.1136C40.6827 66.1136 40.2293 65.9976 39.8482 65.7656C39.4694 65.5312 39.177 65.2045 38.9711 64.7855C38.7675 64.3641 38.6657 63.8741 38.6657 63.3153C38.6657 62.7566 38.7675 62.2642 38.9711 61.8381C39.177 61.4096 39.4635 61.0758 39.8304 60.8366C40.1998 60.5952 40.6306 60.4744 41.123 60.4744C41.4071 60.4744 41.6877 60.5218 41.9647 60.6165C42.2417 60.7112 42.4938 60.8651 42.7211 61.0781C42.9483 61.2888 43.1294 61.5682 43.2644 61.9162C43.3993 62.2642 43.4668 62.6927 43.4668 63.2017V63.5568H39.2623V62.8324H42.6145C42.6145 62.5246 42.553 62.25 42.4299 62.0085C42.3091 61.767 42.1363 61.5765 41.9114 61.4368C41.6889 61.2971 41.4261 61.2273 41.123 61.2273C40.7892 61.2273 40.5004 61.3101 40.2566 61.4759C40.0151 61.6392 39.8292 61.8523 39.699 62.1151C39.5688 62.3778 39.5037 62.6596 39.5037 62.9602V63.4432C39.5037 63.8551 39.5748 64.2043 39.7168 64.4908C39.8612 64.7749 40.0613 64.9915 40.3169 65.1406C40.5726 65.2874 40.8697 65.3608 41.2083 65.3608C41.4284 65.3608 41.6273 65.33 41.8049 65.2685C41.9848 65.2045 42.1399 65.1098 42.2701 64.9844C42.4003 64.8565 42.5009 64.6979 42.5719 64.5085L43.3816 64.7358C43.2963 65.0104 43.1531 65.2519 42.9519 65.4602C42.7507 65.6662 42.5021 65.8272 42.2061 65.9432C41.9102 66.0568 41.5776 66.1136 41.2083 66.1136ZM45.5797 62.7188V66H44.7417V60.5455H45.5513V61.3977H45.6223C45.7502 61.1207 45.9443 60.8982 46.2047 60.7301C46.4651 60.5597 46.8013 60.4744 47.2132 60.4744C47.5826 60.4744 47.9057 60.5502 48.1827 60.7017C48.4597 60.8509 48.6751 61.0781 48.829 61.3835C48.9829 61.6866 49.0598 62.0701 49.0598 62.5341V66H48.2218V62.5909C48.2218 62.1624 48.1105 61.8286 47.888 61.5895C47.6654 61.348 47.36 61.2273 46.9718 61.2273C46.7042 61.2273 46.4651 61.2853 46.2544 61.4013C46.0461 61.5173 45.8816 61.6866 45.7608 61.9091C45.6401 62.1316 45.5797 62.4015 45.5797 62.7188ZM52.9634 60.5455V61.2557H50.1367V60.5455H52.9634ZM50.9606 59.2386H51.7987V64.4375C51.7987 64.6742 51.833 64.8518 51.9016 64.9702C51.9727 65.0862 52.0626 65.1643 52.1715 65.2045C52.2828 65.2424 52.4 65.2614 52.5231 65.2614C52.6154 65.2614 52.6912 65.2566 52.7504 65.2472C52.8095 65.2353 52.8569 65.2259 52.8924 65.2188L53.0629 65.9716C53.006 65.9929 52.9267 66.0142 52.8249 66.0355C52.7231 66.0592 52.5941 66.071 52.4379 66.071C52.2011 66.071 51.9691 66.0201 51.7418 65.9183C51.5169 65.8165 51.3299 65.6615 51.1808 65.4531C51.034 65.2448 50.9606 64.982 50.9606 64.6648V59.2386ZM56.4524 66.1136C55.9268 66.1136 55.4735 65.9976 55.0923 65.7656C54.7135 65.5312 54.4212 65.2045 54.2152 64.7855C54.0116 64.3641 53.9098 63.8741 53.9098 63.3153C53.9098 62.7566 54.0116 62.2642 54.2152 61.8381C54.4212 61.4096 54.7076 61.0758 55.0746 60.8366C55.4439 60.5952 55.8748 60.4744 56.3672 60.4744C56.6513 60.4744 56.9318 60.5218 57.2088 60.6165C57.4858 60.7112 57.7379 60.8651 57.9652 61.0781C58.1925 61.2888 58.3736 61.5682 58.5085 61.9162C58.6435 62.2642 58.7109 62.6927 58.7109 63.2017V63.5568H54.5064V62.8324H57.8587C57.8587 62.5246 57.7971 62.25 57.674 62.0085C57.5533 61.767 57.3804 61.5765 57.1555 61.4368C56.933 61.2971 56.6702 61.2273 56.3672 61.2273C56.0334 61.2273 55.7446 61.3101 55.5007 61.4759C55.2592 61.6392 55.0734 61.8523 54.9432 62.1151C54.813 62.3778 54.7479 62.6596 54.7479 62.9602V63.4432C54.7479 63.8551 54.8189 64.2043 54.9609 64.4908C55.1054 64.7749 55.3054 64.9915 55.5611 65.1406C55.8168 65.2874 56.1139 65.3608 56.4524 65.3608C56.6726 65.3608 56.8714 65.33 57.049 65.2685C57.2289 65.2045 57.384 65.1098 57.5142 64.9844C57.6444 64.8565 57.745 64.6979 57.8161 64.5085L58.6257 64.7358C58.5405 65.0104 58.3973 65.2519 58.196 65.4602C57.9948 65.6662 57.7462 65.8272 57.4503 65.9432C57.1544 66.0568 56.8217 66.1136 56.4524 66.1136ZM63.8494 61.767L63.0966 61.9801C63.0492 61.8546 62.9794 61.7327 62.8871 61.6143C62.7971 61.4936 62.674 61.3942 62.5178 61.3161C62.3615 61.2379 62.1615 61.1989 61.9176 61.1989C61.5838 61.1989 61.3056 61.2758 61.0831 61.4297C60.8629 61.5812 60.7528 61.7741 60.7528 62.0085C60.7528 62.2169 60.8286 62.3814 60.9801 62.5021C61.1316 62.6229 61.3684 62.7235 61.6903 62.804L62.5 63.0028C62.9877 63.1212 63.3511 63.3023 63.5902 63.5462C63.8293 63.7876 63.9489 64.099 63.9489 64.4801C63.9489 64.7926 63.8589 65.072 63.679 65.3182C63.5014 65.5644 63.2528 65.7585 62.9332 65.9006C62.6136 66.0426 62.242 66.1136 61.8182 66.1136C61.2618 66.1136 60.8014 65.9929 60.4368 65.7514C60.0722 65.5099 59.8414 65.1572 59.7443 64.6932L60.5398 64.4943C60.6155 64.7879 60.7588 65.008 60.9695 65.1548C61.1825 65.3016 61.4607 65.375 61.804 65.375C62.1946 65.375 62.5047 65.2921 62.7344 65.1264C62.9664 64.9583 63.0824 64.7571 63.0824 64.5227C63.0824 64.3333 63.0161 64.1747 62.8835 64.0469C62.7509 63.9167 62.5473 63.8196 62.2727 63.7557L61.3636 63.5426C60.8641 63.4242 60.4972 63.2408 60.2628 62.9922C60.0308 62.7412 59.9148 62.4276 59.9148 62.0511C59.9148 61.7434 60.0012 61.4711 60.174 61.2344C60.3492 60.9976 60.5871 60.8118 60.8878 60.6768C61.1908 60.5419 61.5341 60.4744 61.9176 60.4744C62.4574 60.4744 62.8812 60.5928 63.1889 60.8295C63.4991 61.0663 63.7192 61.3788 63.8494 61.767ZM68.5627 68.0455C68.4206 68.0455 68.294 68.0336 68.1827 68.0099C68.0714 67.9886 67.9945 67.9673 67.9519 67.946L68.165 67.2074C68.3685 67.2595 68.5485 67.2784 68.7047 67.2642C68.861 67.25 68.9995 67.1802 69.1202 67.0547C69.2433 66.9316 69.3558 66.7315 69.4576 66.4545L69.6138 66.0284L67.5968 60.5455H68.5059L70.0115 64.892H70.0684L71.574 60.5455H72.4831L70.1678 66.7955C70.0636 67.0772 69.9346 67.3104 69.7807 67.495C69.6268 67.6821 69.4481 67.8205 69.2445 67.9105C69.0433 68.0005 68.816 68.0455 68.5627 68.0455ZM78.6887 66.1136C78.1632 66.1136 77.7098 65.9976 77.3287 65.7656C76.9499 65.5312 76.6575 65.2045 76.4515 64.7855C76.2479 64.3641 76.1461 63.8741 76.1461 63.3153C76.1461 62.7566 76.2479 62.2642 76.4515 61.8381C76.6575 61.4096 76.944 61.0758 77.3109 60.8366C77.6802 60.5952 78.1111 60.4744 78.6035 60.4744C78.8876 60.4744 79.1681 60.5218 79.4451 60.6165C79.7221 60.7112 79.9743 60.8651 80.2015 61.0781C80.4288 61.2888 80.6099 61.5682 80.7449 61.9162C80.8798 62.2642 80.9473 62.6927 80.9473 63.2017V63.5568H76.7427V62.8324H80.095C80.095 62.5246 80.0334 62.25 79.9103 62.0085C79.7896 61.767 79.6168 61.5765 79.3919 61.4368C79.1693 61.2971 78.9065 61.2273 78.6035 61.2273C78.2697 61.2273 77.9809 61.3101 77.737 61.4759C77.4956 61.6392 77.3097 61.8523 77.1795 62.1151C77.0493 62.3778 76.9842 62.6596 76.9842 62.9602V63.4432C76.9842 63.8551 77.0552 64.2043 77.1973 64.4908C77.3417 64.7749 77.5417 64.9915 77.7974 65.1406C78.0531 65.2874 78.3502 65.3608 78.6887 65.3608C78.9089 65.3608 79.1078 65.33 79.2853 65.2685C79.4653 65.2045 79.6203 65.1098 79.7505 64.9844C79.8807 64.8565 79.9814 64.6979 80.0524 64.5085L80.862 64.7358C80.7768 65.0104 80.6336 65.2519 80.4324 65.4602C80.2311 65.6662 79.9825 65.8272 79.6866 65.9432C79.3907 66.0568 79.0581 66.1136 78.6887 66.1136ZM86.0858 61.767L85.3329 61.9801C85.2856 61.8546 85.2157 61.7327 85.1234 61.6143C85.0334 61.4936 84.9103 61.3942 84.7541 61.3161C84.5978 61.2379 84.3978 61.1989 84.1539 61.1989C83.8201 61.1989 83.542 61.2758 83.3194 61.4297C83.0993 61.5812 82.9892 61.7741 82.9892 62.0085C82.9892 62.2169 83.0649 62.3814 83.2164 62.5021C83.368 62.6229 83.6047 62.7235 83.9267 62.804L84.7363 63.0028C85.224 63.1212 85.5874 63.3023 85.8265 63.5462C86.0656 63.7876 86.1852 64.099 86.1852 64.4801C86.1852 64.7926 86.0952 65.072 85.9153 65.3182C85.7377 65.5644 85.4892 65.7585 85.1696 65.9006C84.85 66.0426 84.4783 66.1136 84.0545 66.1136C83.4982 66.1136 83.0377 65.9929 82.6731 65.7514C82.3085 65.5099 82.0777 65.1572 81.9806 64.6932L82.7761 64.4943C82.8519 64.7879 82.9951 65.008 83.2058 65.1548C83.4189 65.3016 83.697 65.375 84.0403 65.375C84.4309 65.375 84.7411 65.2921 84.9707 65.1264C85.2027 64.9583 85.3187 64.7571 85.3187 64.5227C85.3187 64.3333 85.2524 64.1747 85.1199 64.0469C84.9873 63.9167 84.7837 63.8196 84.5091 63.7557L83.6 63.5426C83.1004 63.4242 82.7335 63.2408 82.4991 62.9922C82.2671 62.7412 82.1511 62.4276 82.1511 62.0511C82.1511 61.7434 82.2375 61.4711 82.4103 61.2344C82.5855 60.9976 82.8234 60.8118 83.1241 60.6768C83.4271 60.5419 83.7704 60.4744 84.1539 60.4744C84.6937 60.4744 85.1175 60.5928 85.4252 60.8295C85.7354 61.0663 85.9556 61.3788 86.0858 61.767ZM89.8189 60.5455V61.2557H86.9922V60.5455H89.8189ZM87.8161 59.2386H88.6541V64.4375C88.6541 64.6742 88.6884 64.8518 88.7571 64.9702C88.8281 65.0862 88.9181 65.1643 89.027 65.2045C89.1383 65.2424 89.2554 65.2614 89.3786 65.2614C89.4709 65.2614 89.5466 65.2566 89.6058 65.2472C89.665 65.2353 89.7124 65.2259 89.7479 65.2188L89.9183 65.9716C89.8615 65.9929 89.7822 66.0142 89.6804 66.0355C89.5786 66.0592 89.4496 66.071 89.2933 66.071C89.0566 66.071 88.8246 66.0201 88.5973 65.9183C88.3724 65.8165 88.1854 65.6615 88.0362 65.4531C87.8894 65.2448 87.8161 64.982 87.8161 64.6648V59.2386ZM91.0795 66V60.5455H91.9176V66H91.0795ZM91.5057 59.6364C91.3423 59.6364 91.2015 59.5807 91.0831 59.4695C90.9671 59.3582 90.9091 59.2244 90.9091 59.0682C90.9091 58.9119 90.9671 58.7782 91.0831 58.6669C91.2015 58.5556 91.3423 58.5 91.5057 58.5C91.669 58.5 91.8087 58.5556 91.9247 58.6669C92.0431 58.7782 92.1023 58.9119 92.1023 59.0682C92.1023 59.2244 92.0431 59.3582 91.9247 59.4695C91.8087 59.5807 91.669 59.6364 91.5057 59.6364ZM94.2907 58.7273V66H93.4526V58.7273H94.2907ZM98.0415 66.1136C97.5491 66.1136 97.1171 65.9964 96.7454 65.7621C96.3761 65.5277 96.0872 65.1998 95.8789 64.7784C95.6729 64.357 95.57 63.8646 95.57 63.3011C95.57 62.733 95.6729 62.237 95.8789 61.8132C96.0872 61.3894 96.3761 61.0604 96.7454 60.826C97.1171 60.5916 97.5491 60.4744 98.0415 60.4744C98.534 60.4744 98.9648 60.5916 99.3342 60.826C99.7058 61.0604 99.9947 61.3894 100.201 61.8132C100.409 62.237 100.513 62.733 100.513 63.3011C100.513 63.8646 100.409 64.357 100.201 64.7784C99.9947 65.1998 99.7058 65.5277 99.3342 65.7621C98.9648 65.9964 98.534 66.1136 98.0415 66.1136ZM98.0415 65.3608C98.4156 65.3608 98.7234 65.2649 98.9648 65.0732C99.2063 64.8814 99.3851 64.6293 99.5011 64.3168C99.6171 64.0043 99.6751 63.6657 99.6751 63.3011C99.6751 62.9366 99.6171 62.5968 99.5011 62.282C99.3851 61.9671 99.2063 61.7126 98.9648 61.5185C98.7234 61.3243 98.4156 61.2273 98.0415 61.2273C97.6675 61.2273 97.3597 61.3243 97.1183 61.5185C96.8768 61.7126 96.698 61.9671 96.582 62.282C96.466 62.5968 96.408 62.9366 96.408 63.3011C96.408 63.6657 96.466 64.0043 96.582 64.3168C96.698 64.6293 96.8768 64.8814 97.1183 65.0732C97.3597 65.2649 97.6675 65.3608 98.0415 65.3608ZM105.656 61.767L104.903 61.9801C104.856 61.8546 104.786 61.7327 104.694 61.6143C104.604 61.4936 104.481 61.3942 104.324 61.3161C104.168 61.2379 103.968 61.1989 103.724 61.1989C103.39 61.1989 103.112 61.2758 102.89 61.4297C102.67 61.5812 102.559 61.7741 102.559 62.0085C102.559 62.2169 102.635 62.3814 102.787 62.5021C102.938 62.6229 103.175 62.7235 103.497 62.804L104.307 63.0028C104.794 63.1212 105.158 63.3023 105.397 63.5462C105.636 63.7876 105.756 64.099 105.756 64.4801C105.756 64.7926 105.666 65.072 105.486 65.3182C105.308 65.5644 105.059 65.7585 104.74 65.9006C104.42 66.0426 104.049 66.1136 103.625 66.1136C103.068 66.1136 102.608 65.9929 102.243 65.7514C101.879 65.5099 101.648 65.1572 101.551 64.6932L102.346 64.4943C102.422 64.7879 102.565 65.008 102.776 65.1548C102.989 65.3016 103.267 65.375 103.611 65.375C104.001 65.375 104.311 65.2921 104.541 65.1264C104.773 64.9583 104.889 64.7571 104.889 64.5227C104.889 64.3333 104.823 64.1747 104.69 64.0469C104.558 63.9167 104.354 63.8196 104.079 63.7557L103.17 63.5426C102.671 63.4242 102.304 63.2408 102.069 62.9922C101.837 62.7412 101.721 62.4276 101.721 62.0511C101.721 61.7434 101.808 61.4711 101.981 61.2344C102.156 60.9976 102.394 60.8118 102.694 60.6768C102.997 60.5419 103.341 60.4744 103.724 60.4744C104.264 60.4744 104.688 60.5928 104.996 60.8295C105.306 61.0663 105.526 61.3788 105.656 61.767ZM109.83 68.0455V60.5455H110.639V61.4119H110.739C110.8 61.3172 110.885 61.1965 110.994 61.0497C111.106 60.9006 111.264 60.768 111.47 60.652C111.679 60.5336 111.96 60.4744 112.315 60.4744C112.775 60.4744 113.179 60.5893 113.53 60.8189C113.88 61.0485 114.154 61.3741 114.35 61.7955C114.547 62.2169 114.645 62.714 114.645 63.2869C114.645 63.8646 114.547 64.3653 114.35 64.7891C114.154 65.2105 113.881 65.5372 113.533 65.7692C113.185 65.9988 112.784 66.1136 112.33 66.1136C111.979 66.1136 111.699 66.0556 111.488 65.9396C111.277 65.8213 111.115 65.6875 111.001 65.5384C110.888 65.3868 110.8 65.2614 110.739 65.1619H110.668V68.0455H109.83ZM110.653 63.2727C110.653 63.6847 110.714 64.0481 110.835 64.3629C110.955 64.6754 111.132 64.9205 111.364 65.098C111.596 65.2732 111.88 65.3608 112.216 65.3608C112.566 65.3608 112.859 65.2685 113.093 65.0838C113.33 64.8968 113.507 64.6458 113.626 64.331C113.746 64.0137 113.807 63.661 113.807 63.2727C113.807 62.8892 113.748 62.5436 113.629 62.2358C113.513 61.9257 113.337 61.6806 113.1 61.5007C112.866 61.3184 112.571 61.2273 112.216 61.2273C111.875 61.2273 111.589 61.3137 111.357 61.4865C111.125 61.657 110.949 61.8961 110.831 62.2038C110.713 62.5092 110.653 62.8655 110.653 63.2727ZM115.923 66V60.5455H116.733V61.3693H116.79C116.889 61.0994 117.069 60.8804 117.33 60.7124C117.59 60.5443 117.884 60.4602 118.21 60.4602C118.272 60.4602 118.349 60.4614 118.441 60.4638C118.533 60.4661 118.603 60.4697 118.651 60.4744V61.3267C118.622 61.3196 118.557 61.3089 118.455 61.2947C118.356 61.2782 118.25 61.2699 118.139 61.2699C117.874 61.2699 117.637 61.3255 117.429 61.4368C117.223 61.5457 117.06 61.6972 116.939 61.8913C116.821 62.0831 116.761 62.3021 116.761 62.5483V66H115.923ZM121.765 66.1136C121.239 66.1136 120.786 65.9976 120.405 65.7656C120.026 65.5312 119.734 65.2045 119.528 64.7855C119.324 64.3641 119.222 63.8741 119.222 63.3153C119.222 62.7566 119.324 62.2642 119.528 61.8381C119.734 61.4096 120.02 61.0758 120.387 60.8366C120.756 60.5952 121.187 60.4744 121.68 60.4744C121.964 60.4744 122.244 60.5218 122.521 60.6165C122.798 60.7112 123.05 60.8651 123.278 61.0781C123.505 61.2888 123.686 61.5682 123.821 61.9162C123.956 62.2642 124.023 62.6927 124.023 63.2017V63.5568H119.819V62.8324H123.171C123.171 62.5246 123.11 62.25 122.987 62.0085C122.866 61.767 122.693 61.5765 122.468 61.4368C122.246 61.2971 121.983 61.2273 121.68 61.2273C121.346 61.2273 121.057 61.3101 120.813 61.4759C120.572 61.6392 120.386 61.8523 120.256 62.1151C120.125 62.3778 120.06 62.6596 120.06 62.9602V63.4432C120.06 63.8551 120.131 64.2043 120.273 64.4908C120.418 64.7749 120.618 64.9915 120.874 65.1406C121.129 65.2874 121.426 65.3608 121.765 65.3608C121.985 65.3608 122.184 65.33 122.362 65.2685C122.541 65.2045 122.696 65.1098 122.827 64.9844C122.957 64.8565 123.058 64.6979 123.129 64.5085L123.938 64.7358C123.853 65.0104 123.71 65.2519 123.509 65.4602C123.307 65.6662 123.059 65.8272 122.763 65.9432C122.467 66.0568 122.134 66.1136 121.765 66.1136ZM127.358 66.1136C126.903 66.1136 126.502 65.9988 126.154 65.7692C125.806 65.5372 125.534 65.2105 125.337 64.7891C125.141 64.3653 125.043 63.8646 125.043 63.2869C125.043 62.714 125.141 62.2169 125.337 61.7955C125.534 61.3741 125.807 61.0485 126.158 60.8189C126.508 60.5893 126.913 60.4744 127.372 60.4744C127.727 60.4744 128.008 60.5336 128.214 60.652C128.422 60.768 128.581 60.9006 128.69 61.0497C128.801 61.1965 128.887 61.3172 128.949 61.4119H129.02V58.7273H129.858V66H129.048V65.1619H128.949C128.887 65.2614 128.8 65.3868 128.686 65.5384C128.572 65.6875 128.41 65.8213 128.2 65.9396C127.989 66.0556 127.708 66.1136 127.358 66.1136ZM127.472 65.3608C127.808 65.3608 128.092 65.2732 128.324 65.098C128.556 64.9205 128.732 64.6754 128.853 64.3629C128.974 64.0481 129.034 63.6847 129.034 63.2727C129.034 62.8655 128.975 62.5092 128.857 62.2038C128.738 61.8961 128.563 61.657 128.331 61.4865C128.099 61.3137 127.813 61.2273 127.472 61.2273C127.116 61.2273 126.821 61.3184 126.584 61.5007C126.349 61.6806 126.173 61.9257 126.055 62.2358C125.939 62.5436 125.881 62.8892 125.881 63.2727C125.881 63.661 125.94 64.0137 126.058 64.331C126.179 64.6458 126.357 64.8968 126.591 65.0838C126.828 65.2685 127.121 65.3608 127.472 65.3608ZM133.796 66.1136C133.271 66.1136 132.817 65.9976 132.436 65.7656C132.057 65.5312 131.765 65.2045 131.559 64.7855C131.355 64.3641 131.254 63.8741 131.254 63.3153C131.254 62.7566 131.355 62.2642 131.559 61.8381C131.765 61.4096 132.051 61.0758 132.418 60.8366C132.788 60.5952 133.219 60.4744 133.711 60.4744C133.995 60.4744 134.276 60.5218 134.553 60.6165C134.83 60.7112 135.082 60.8651 135.309 61.0781C135.536 61.2888 135.717 61.5682 135.852 61.9162C135.987 62.2642 136.055 62.6927 136.055 63.2017V63.5568H131.85V62.8324H135.202C135.202 62.5246 135.141 62.25 135.018 62.0085C134.897 61.767 134.724 61.5765 134.499 61.4368C134.277 61.2971 134.014 61.2273 133.711 61.2273C133.377 61.2273 133.088 61.3101 132.844 61.4759C132.603 61.6392 132.417 61.8523 132.287 62.1151C132.157 62.3778 132.092 62.6596 132.092 62.9602V63.4432C132.092 63.8551 132.163 64.2043 132.305 64.4908C132.449 64.7749 132.649 64.9915 132.905 65.1406C133.161 65.2874 133.458 65.3608 133.796 65.3608C134.016 65.3608 134.215 65.33 134.393 65.2685C134.573 65.2045 134.728 65.1098 134.858 64.9844C134.988 64.8565 135.089 64.6979 135.16 64.5085L135.969 64.7358C135.884 65.0104 135.741 65.2519 135.54 65.4602C135.339 65.6662 135.09 65.8272 134.794 65.9432C134.498 66.0568 134.165 66.1136 133.796 66.1136ZM139.759 60.5455V61.2557H136.818V60.5455H139.759ZM137.699 66V59.7926C137.699 59.4801 137.772 59.2197 137.919 59.0114C138.066 58.803 138.256 58.6468 138.491 58.5426C138.725 58.4384 138.973 58.3864 139.233 58.3864C139.439 58.3864 139.607 58.4029 139.737 58.4361C139.867 58.4692 139.964 58.5 140.028 58.5284L139.787 59.2528C139.744 59.2386 139.685 59.2209 139.609 59.1996C139.536 59.1783 139.439 59.1676 139.318 59.1676C139.041 59.1676 138.841 59.2375 138.718 59.3771C138.597 59.5168 138.537 59.7216 138.537 59.9915V66H137.699ZM140.933 66V60.5455H141.771V66H140.933ZM141.359 59.6364C141.196 59.6364 141.055 59.5807 140.937 59.4695C140.821 59.3582 140.763 59.2244 140.763 59.0682C140.763 58.9119 140.821 58.7782 140.937 58.6669C141.055 58.5556 141.196 58.5 141.359 58.5C141.523 58.5 141.662 58.5556 141.778 58.6669C141.897 58.7782 141.956 58.9119 141.956 59.0682C141.956 59.2244 141.897 59.3582 141.778 59.4695C141.662 59.5807 141.523 59.6364 141.359 59.6364ZM144.144 62.7188V66H143.306V60.5455H144.116V61.3977H144.187C144.315 61.1207 144.509 60.8982 144.769 60.7301C145.03 60.5597 145.366 60.4744 145.778 60.4744C146.147 60.4744 146.47 60.5502 146.747 60.7017C147.024 60.8509 147.24 61.0781 147.393 61.3835C147.547 61.6866 147.624 62.0701 147.624 62.5341V66H146.786V62.5909C146.786 62.1624 146.675 61.8286 146.452 61.5895C146.23 61.348 145.924 61.2273 145.536 61.2273C145.269 61.2273 145.03 61.2853 144.819 61.4013C144.611 61.5173 144.446 61.6866 144.325 61.9091C144.205 62.1316 144.144 62.4015 144.144 62.7188ZM149.156 66V60.5455H149.994V66H149.156ZM149.582 59.6364C149.419 59.6364 149.278 59.5807 149.159 59.4695C149.043 59.3582 148.985 59.2244 148.985 59.0682C148.985 58.9119 149.043 58.7782 149.159 58.6669C149.278 58.5556 149.419 58.5 149.582 58.5C149.745 58.5 149.885 58.5556 150.001 58.6669C150.119 58.7782 150.178 58.9119 150.178 59.0682C150.178 59.2244 150.119 59.3582 150.001 59.4695C149.885 59.5807 149.745 59.6364 149.582 59.6364ZM153.588 66.1136C153.134 66.1136 152.733 65.9988 152.385 65.7692C152.037 65.5372 151.764 65.2105 151.568 64.7891C151.371 64.3653 151.273 63.8646 151.273 63.2869C151.273 62.714 151.371 62.2169 151.568 61.7955C151.764 61.3741 152.038 61.0485 152.388 60.8189C152.739 60.5893 153.143 60.4744 153.603 60.4744C153.958 60.4744 154.238 60.5336 154.444 60.652C154.653 60.768 154.811 60.9006 154.92 61.0497C155.031 61.1965 155.118 61.3172 155.179 61.4119H155.25V58.7273H156.088V66H155.279V65.1619H155.179C155.118 65.2614 155.03 65.3868 154.917 65.5384C154.803 65.6875 154.641 65.8213 154.43 65.9396C154.219 66.0556 153.939 66.1136 153.588 66.1136ZM153.702 65.3608C154.038 65.3608 154.322 65.2732 154.554 65.098C154.786 64.9205 154.963 64.6754 155.083 64.3629C155.204 64.0481 155.265 63.6847 155.265 63.2727C155.265 62.8655 155.205 62.5092 155.087 62.2038C154.969 61.8961 154.793 61.657 154.561 61.4865C154.329 61.3137 154.043 61.2273 153.702 61.2273C153.347 61.2273 153.051 61.3184 152.814 61.5007C152.58 61.6806 152.404 61.9257 152.285 62.2358C152.169 62.5436 152.111 62.8892 152.111 63.2727C152.111 63.661 152.17 64.0137 152.289 64.331C152.409 64.6458 152.587 64.8968 152.821 65.0838C153.058 65.2685 153.352 65.3608 153.702 65.3608ZM159.956 66.1136C159.463 66.1136 159.031 65.9964 158.659 65.7621C158.29 65.5277 158.001 65.1998 157.793 64.7784C157.587 64.357 157.484 63.8646 157.484 63.3011C157.484 62.733 157.587 62.237 157.793 61.8132C158.001 61.3894 158.29 61.0604 158.659 60.826C159.031 60.5916 159.463 60.4744 159.956 60.4744C160.448 60.4744 160.879 60.5916 161.248 60.826C161.62 61.0604 161.909 61.3894 162.115 61.8132C162.323 62.237 162.427 62.733 162.427 63.3011C162.427 63.8646 162.323 64.357 162.115 64.7784C161.909 65.1998 161.62 65.5277 161.248 65.7621C160.879 65.9964 160.448 66.1136 159.956 66.1136ZM159.956 65.3608C160.33 65.3608 160.637 65.2649 160.879 65.0732C161.12 64.8814 161.299 64.6293 161.415 64.3168C161.531 64.0043 161.589 63.6657 161.589 63.3011C161.589 62.9366 161.531 62.5968 161.415 62.282C161.299 61.9671 161.12 61.7126 160.879 61.5185C160.637 61.3243 160.33 61.2273 159.956 61.2273C159.582 61.2273 159.274 61.3243 159.032 61.5185C158.791 61.7126 158.612 61.9671 158.496 62.282C158.38 62.5968 158.322 62.9366 158.322 63.3011C158.322 63.6657 158.38 64.0043 158.496 64.3168C158.612 64.6293 158.791 64.8814 159.032 65.0732C159.274 65.2649 159.582 65.3608 159.956 65.3608ZM167.57 61.767L166.817 61.9801C166.77 61.8546 166.7 61.7327 166.608 61.6143C166.518 61.4936 166.395 61.3942 166.238 61.3161C166.082 61.2379 165.882 61.1989 165.638 61.1989C165.305 61.1989 165.026 61.2758 164.804 61.4297C164.584 61.5812 164.474 61.7741 164.474 62.0085C164.474 62.2169 164.549 62.3814 164.701 62.5021C164.852 62.6229 165.089 62.7235 165.411 62.804L166.221 63.0028C166.708 63.1212 167.072 63.3023 167.311 63.5462C167.55 63.7876 167.67 64.099 167.67 64.4801C167.67 64.7926 167.58 65.072 167.4 65.3182C167.222 65.5644 166.974 65.7585 166.654 65.9006C166.334 66.0426 165.963 66.1136 165.539 66.1136C164.983 66.1136 164.522 65.9929 164.157 65.7514C163.793 65.5099 163.562 65.1572 163.465 64.6932L164.26 64.4943C164.336 64.7879 164.479 65.008 164.69 65.1548C164.903 65.3016 165.181 65.375 165.525 65.375C165.915 65.375 166.225 65.2921 166.455 65.1264C166.687 64.9583 166.803 64.7571 166.803 64.5227C166.803 64.3333 166.737 64.1747 166.604 64.0469C166.472 63.9167 166.268 63.8196 165.993 63.7557L165.084 63.5426C164.585 63.4242 164.218 63.2408 163.983 62.9922C163.751 62.7412 163.635 62.4276 163.635 62.0511C163.635 61.7434 163.722 61.4711 163.895 61.2344C164.07 60.9976 164.308 60.8118 164.608 60.6768C164.912 60.5419 165.255 60.4744 165.638 60.4744C166.178 60.4744 166.602 60.5928 166.91 60.8295C167.22 61.0663 167.44 61.3788 167.57 61.767ZM169.542 66.0568C169.367 66.0568 169.216 65.9941 169.091 65.8686C168.965 65.7431 168.903 65.5928 168.903 65.4176C168.903 65.2424 168.965 65.0921 169.091 64.9666C169.216 64.8411 169.367 64.7784 169.542 64.7784C169.717 64.7784 169.867 64.8411 169.993 64.9666C170.118 65.0921 170.181 65.2424 170.181 65.4176C170.181 65.5336 170.152 65.6402 170.092 65.7372C170.036 65.8343 169.959 65.9124 169.862 65.9716C169.767 66.0284 169.66 66.0568 169.542 66.0568Z" fill="white"/>
<circle cx="312" cy="40" r="40" fill="white"/>
<path d="M293.25 62.875H291.688C290.859 62.875 290.064 62.5458 289.478 61.9597C288.892 61.3737 288.562 60.5788 288.562 59.75V26.9375C288.562 26.1087 288.892 25.3138 289.478 24.7278C290.064 24.1417 290.859 23.8125 291.688 23.8125H293.25C294.079 23.8125 294.874 24.1417 295.46 24.7278C296.046 25.3138 296.375 26.1087 296.375 26.9375V59.75C296.375 60.5788 296.046 61.3737 295.46 61.9597C294.874 62.5458 294.079 62.875 293.25 62.875ZM310.438 33.1875C310.438 32.3587 310.108 31.5638 309.522 30.9778C308.936 30.3917 308.141 30.0625 307.312 30.0625H301.062C300.234 30.0625 299.439 30.3917 298.853 30.9778C298.267 31.5638 297.938 32.3587 297.938 33.1875V35.9219C297.938 36.0255 297.979 36.1248 298.052 36.1981C298.125 36.2713 298.225 36.3125 298.328 36.3125H310.047C310.15 36.3125 310.25 36.2713 310.323 36.1981C310.396 36.1248 310.438 36.0255 310.438 35.9219V33.1875ZM297.938 59.75C297.938 60.5788 298.267 61.3737 298.853 61.9597C299.439 62.5458 300.234 62.875 301.062 62.875H307.312C308.141 62.875 308.936 62.5458 309.522 61.9597C310.108 61.3737 310.438 60.5788 310.438 59.75V56.8203C310.438 56.7685 310.417 56.7188 310.38 56.6822C310.344 56.6456 310.294 56.625 310.242 56.625H298.133C298.081 56.625 298.031 56.6456 297.995 56.6822C297.958 56.7188 297.938 56.7685 297.938 56.8203V59.75Z" fill="#40C18A"/>
<path d="M310.242 39.4375H298.133C298.025 39.4375 297.938 39.5249 297.938 39.6328V53.3047C297.938 53.4126 298.025 53.5 298.133 53.5H310.242C310.35 53.5 310.438 53.4126 310.438 53.3047V39.6328C310.438 39.5249 310.35 39.4375 310.242 39.4375Z" fill="#40C18A"/>
<path d="M318.25 62.875H315.125C314.296 62.875 313.501 62.5458 312.915 61.9597C312.329 61.3737 312 60.5788 312 59.75V22.25C312 21.4212 312.329 20.6263 312.915 20.0403C313.501 19.4542 314.296 19.125 315.125 19.125H318.25C319.079 19.125 319.874 19.4542 320.46 20.0403C321.046 20.6263 321.375 21.4212 321.375 22.25V59.75C321.375 60.5788 321.046 61.3737 320.46 61.9597C319.874 62.5458 319.079 62.875 318.25 62.875ZM335.427 59.501L332.279 26.2979C332.135 24.7695 330.625 23.6611 328.907 23.8262L325.797 24.1191C324.079 24.2822 322.804 25.6533 322.948 27.1816L326.096 60.3848C326.24 61.9131 327.75 63.0215 329.468 62.8564L332.578 62.5635C334.296 62.4004 335.571 61.0293 335.427 59.501Z" fill="#40C18A"/>
</svg>
