<svg width="685" height="473" viewBox="0 0 685 473" fill="none" xmlns="http://www.w3.org/2000/svg">
<rect x="193" y="30.0708" width="30" height="270" fill="url(#paint0_linear_65_91)"/>
<rect x="463" y="30.0708" width="30" height="270" fill="url(#paint1_linear_65_91)"/>
<rect x="493" y="30.0708" width="30" height="300" fill="url(#paint2_linear_65_91)"/>
<rect x="163" y="30.0708" width="30" height="300" fill="url(#paint3_linear_65_91)"/>
<rect x="193" y="330.071" width="30" height="300" transform="rotate(-90 193 330.071)" fill="url(#paint4_linear_65_91)"/>
<rect x="193" y="30.0708" width="30" height="300" transform="rotate(-90 193 30.0708)" fill="url(#paint5_linear_65_91)"/>
<rect x="223" y="60.0708" width="30" height="270" transform="rotate(-90 223 60.0708)" fill="white"/>
<rect x="193" y="360.071" width="30" height="300" transform="rotate(-90 193 360.071)" fill="url(#paint6_linear_65_91)"/>
<path d="M193.214 30.573L193.214 1.0736L163 30.0708L193.214 30.573Z" fill="#E4E4E4"/>
<path d="M492.858 30.0707L523 30.0708L492.859 0.0706176L492.858 30.0707Z" fill="#F8F8F8"/>
<path d="M493 330.071L493 360.071L523 330.071L493 330.071Z" fill="#D9D9D9"/>
<path d="M193 330.071L163 330.071L193 360.071L193 330.071Z" fill="#D2D2D2"/>
<path d="M42.2218 471L16.0138 408.888H30.1258L52.3018 463.896L48.1738 463.992L69.2938 408.888H83.9818L105.102 463.992L100.974 463.896L123.15 408.888H136.974L111.054 471H95.4058L74.6698 417.144H78.7018L57.8698 471H42.2218ZM181.842 455.16H193.938C193.426 458.424 192.05 461.336 189.81 463.896C187.634 466.456 184.658 468.472 180.882 469.944C177.106 471.416 172.498 472.152 167.058 472.152C160.978 472.152 155.602 471.192 150.93 469.272C146.258 467.288 142.61 464.44 139.986 460.728C137.362 457.016 136.05 452.536 136.05 447.288C136.05 442.04 137.33 437.56 139.89 433.848C142.45 430.072 146.002 427.192 150.546 425.208C155.154 423.224 160.53 422.232 166.674 422.232C172.946 422.232 178.162 423.224 182.322 425.208C186.482 427.192 189.554 430.2 191.538 434.232C193.586 438.2 194.45 443.288 194.13 449.496H148.626C148.946 451.928 149.842 454.136 151.314 456.12C152.85 458.104 154.898 459.672 157.458 460.824C160.082 461.976 163.186 462.552 166.77 462.552C170.738 462.552 174.034 461.88 176.658 460.536C179.346 459.128 181.074 457.336 181.842 455.16ZM166.098 431.736C161.49 431.736 157.746 432.76 154.866 434.808C151.986 436.792 150.13 439.256 149.298 442.2H181.746C181.426 439 179.89 436.472 177.138 434.616C174.45 432.696 170.77 431.736 166.098 431.736ZM240.184 472.056C235.96 472.056 232.344 471.32 229.336 469.848C226.328 468.312 223.896 466.328 222.04 463.896C220.184 461.4 218.808 458.712 217.912 455.832C217.016 452.888 216.568 450.008 216.568 447.192C216.568 443.672 216.984 440.408 217.816 437.4C218.712 434.392 220.088 431.768 221.944 429.528C223.8 427.224 226.232 425.432 229.24 424.152C232.248 422.872 235.896 422.232 240.184 422.232C245.112 422.232 249.464 423.288 253.24 425.4C257.08 427.448 260.088 430.328 262.264 434.04C264.504 437.752 265.624 442.136 265.624 447.192C265.624 452.12 264.504 456.472 262.264 460.248C260.024 463.96 256.984 466.872 253.144 468.984C249.304 471.032 244.984 472.056 240.184 472.056ZM236.152 462.456C239.544 462.456 242.488 461.816 244.984 460.536C247.48 459.256 249.4 457.496 250.744 455.256C252.152 452.952 252.856 450.264 252.856 447.192C252.856 442.584 251.384 438.872 248.44 436.056C245.56 433.24 241.464 431.832 236.152 431.832C232.44 431.832 229.208 432.44 226.456 433.656C223.704 434.872 221.56 436.632 220.024 438.936C218.552 441.176 217.816 443.928 217.816 447.192C217.816 450.2 218.552 452.856 220.024 455.16C221.496 457.464 223.608 459.256 226.36 460.536C229.112 461.816 232.376 462.456 236.152 462.456ZM217.816 404.088V458.712C217.816 460.76 217.72 462.968 217.528 465.336C217.336 467.64 217.144 469.528 216.952 471H205.336V404.088H217.816ZM312.006 408.888C318.982 408.888 324.806 409.72 329.478 411.384C334.15 413.048 337.862 415.32 340.614 418.2C343.43 421.016 345.414 424.28 346.566 427.992C347.782 431.704 348.39 435.608 348.39 439.704C348.39 443.8 347.718 447.736 346.374 451.512C345.094 455.288 343.014 458.648 340.134 461.592C337.318 464.472 333.574 466.776 328.902 468.504C324.294 470.168 318.662 471 312.006 471H276.486V408.888H312.006ZM289.254 460.056H311.718C316.326 460.056 320.134 459.512 323.142 458.424C326.214 457.272 328.646 455.736 330.438 453.816C332.23 451.896 333.51 449.72 334.278 447.288C335.046 444.856 335.43 442.328 335.43 439.704C335.43 437.08 335.046 434.584 334.278 432.216C333.51 429.848 332.23 427.736 330.438 425.88C328.646 424.024 326.214 422.552 323.142 421.464C320.134 420.376 316.326 419.832 311.718 419.832H289.254V460.056ZM402.717 455.16H414.813C414.301 458.424 412.925 461.336 410.685 463.896C408.509 466.456 405.533 468.472 401.757 469.944C397.981 471.416 393.373 472.152 387.933 472.152C381.853 472.152 376.477 471.192 371.805 469.272C367.133 467.288 363.485 464.44 360.861 460.728C358.237 457.016 356.925 452.536 356.925 447.288C356.925 442.04 358.205 437.56 360.765 433.848C363.325 430.072 366.877 427.192 371.421 425.208C376.029 423.224 381.405 422.232 387.549 422.232C393.821 422.232 399.037 423.224 403.197 425.208C407.357 427.192 410.429 430.2 412.413 434.232C414.461 438.2 415.325 443.288 415.005 449.496H369.501C369.821 451.928 370.717 454.136 372.189 456.12C373.725 458.104 375.773 459.672 378.333 460.824C380.957 461.976 384.061 462.552 387.645 462.552C391.613 462.552 394.909 461.88 397.533 460.536C400.221 459.128 401.949 457.336 402.717 455.16ZM386.973 431.736C382.365 431.736 378.621 432.76 375.741 434.808C372.861 436.792 371.005 439.256 370.173 442.2H402.621C402.301 439 400.765 436.472 398.013 434.616C395.325 432.696 391.645 431.736 386.973 431.736ZM448.72 462.84H444.208L461.68 423.288H475.312L452.368 471H440.56L418.096 423.288H431.824L448.72 462.84ZM495.468 434.52H544.716V445.176H495.468V434.52ZM542.604 408.888H555.372V471H542.604V408.888ZM484.236 408.888H497.004V471H484.236V408.888ZM623.679 471H611.199V423.288H623.679V471ZM611.871 448.056L611.967 451.32C611.839 452.216 611.519 453.528 611.007 455.256C610.495 456.92 609.695 458.712 608.607 460.632C607.583 462.552 606.239 464.408 604.575 466.2C602.911 467.928 600.863 469.368 598.431 470.52C595.999 471.608 593.119 472.152 589.791 472.152C587.167 472.152 584.575 471.832 582.015 471.192C579.519 470.552 577.247 469.496 575.199 468.024C573.151 466.488 571.519 464.44 570.303 461.88C569.087 459.32 568.479 456.088 568.479 452.184V423.288H580.959V450.072C580.959 453.144 581.439 455.576 582.399 457.368C583.423 459.096 584.895 460.312 586.815 461.016C588.735 461.72 591.007 462.072 593.631 462.072C597.087 462.072 600.063 461.336 602.559 459.864C605.055 458.328 607.071 456.472 608.607 454.296C610.207 452.12 611.295 450.04 611.871 448.056ZM631.681 423.288H668.737V432.984H631.681V423.288ZM643.969 410.232H656.449V471H643.969V410.232Z" fill="white"/>
<g filter="url(#filter0_di_65_91)">
<path d="M247.705 188.455V178.273L308.068 149V162.864L263.523 183.182L263.932 182.364V184.318L263.523 183.545L308.068 203.818V217.727L247.705 188.455ZM365.091 122.545L335.091 234H322.955L352.955 122.545H365.091ZM440.318 188.455L379.955 217.727V203.818L424.5 183.545L424.045 184.318V182.364L424.5 183.182L379.955 162.864V149L440.318 178.273V188.455Z" fill="white"/>
</g>
<defs>
<filter id="filter0_di_65_91" x="247.705" y="122.545" width="196.614" height="116.455" filterUnits="userSpaceOnUse" color-interpolation-filters="sRGB">
<feFlood flood-opacity="0" result="BackgroundImageFix"/>
<feColorMatrix in="SourceAlpha" type="matrix" values="0 0 0 0 0 0 0 0 0 0 0 0 0 0 0 0 0 0 127 0" result="hardAlpha"/>
<feOffset dx="4" dy="5"/>
<feComposite in2="hardAlpha" operator="out"/>
<feColorMatrix type="matrix" values="0 0 0 0 0.920833 0 0 0 0 0.920833 0 0 0 0 0.920833 0 0 0 0.5 0"/>
<feBlend mode="normal" in2="BackgroundImageFix" result="effect1_dropShadow_65_91"/>
<feBlend mode="normal" in="SourceGraphic" in2="effect1_dropShadow_65_91" result="shape"/>
<feColorMatrix in="SourceAlpha" type="matrix" values="0 0 0 0 0 0 0 0 0 0 0 0 0 0 0 0 0 0 127 0" result="hardAlpha"/>
<feOffset dx="2" dy="5"/>
<feComposite in2="hardAlpha" operator="arithmetic" k2="-1" k3="1"/>
<feColorMatrix type="matrix" values="0 0 0 0 0 0 0 0 0 0 0 0 0 0 0 0 0 0 0.25 0"/>
<feBlend mode="normal" in2="shape" result="effect2_innerShadow_65_91"/>
</filter>
<linearGradient id="paint0_linear_65_91" x1="208" y1="30.0708" x2="208" y2="300.071" gradientUnits="userSpaceOnUse">
<stop stop-color="#CDCDCD"/>
<stop offset="1" stop-color="#B8B8B8"/>
</linearGradient>
<linearGradient id="paint1_linear_65_91" x1="478" y1="30.0708" x2="478" y2="300.071" gradientUnits="userSpaceOnUse">
<stop stop-color="#C4C4C4"/>
<stop offset="1" stop-color="white"/>
</linearGradient>
<linearGradient id="paint2_linear_65_91" x1="508" y1="88.5708" x2="508" y2="330.071" gradientUnits="userSpaceOnUse">
<stop stop-color="white"/>
<stop offset="1" stop-color="#C0C0C0"/>
</linearGradient>
<linearGradient id="paint3_linear_65_91" x1="178" y1="78.0708" x2="178" y2="330.071" gradientUnits="userSpaceOnUse">
<stop stop-color="#F5F5F5"/>
<stop offset="1" stop-color="#B8B8B8"/>
</linearGradient>
<linearGradient id="paint4_linear_65_91" x1="208" y1="330.071" x2="208" y2="630.071" gradientUnits="userSpaceOnUse">
<stop stop-color="#B8B8B8"/>
<stop offset="1" stop-color="white"/>
</linearGradient>
<linearGradient id="paint5_linear_65_91" x1="208" y1="30.0708" x2="208" y2="267.571" gradientUnits="userSpaceOnUse">
<stop stop-color="#B8B8B8"/>
<stop offset="1" stop-color="#F1F1F1" stop-opacity="0.99"/>
</linearGradient>
<linearGradient id="paint6_linear_65_91" x1="208" y1="360.071" x2="208" y2="660.071" gradientUnits="userSpaceOnUse">
<stop stop-color="#E2E2E2"/>
<stop offset="1" stop-color="white"/>
</linearGradient>
</defs>
</svg>
