<svg width="1085" height="709" viewBox="0 0 1085 709" fill="none" xmlns="http://www.w3.org/2000/svg">
<path fill-rule="evenodd" clip-rule="evenodd" d="M517.643 225.512C517.889 221.998 518.947 189.209 520.818 127.146C521.286 111.612 510.526 97.988 495.306 94.844C494.286 94.633 493.775 94.528 493.775 94.528C475.406 93.243 459.056 106.099 455.971 124.253L440.22 216.928" fill="white"/>
<path d="M493.953 95.241L495.434 95.547C510.297 98.617 520.805 111.922 520.348 127.092C518.478 189.113 517.419 221.93 517.174 225.428C517.145 225.841 517.457 226.199 517.87 226.228C518.283 226.257 518.642 225.946 518.671 225.532C518.918 222.002 519.975 189.243 521.847 127.137C522.326 111.239 511.314 97.295 495.737 94.078L494.206 93.762L494.107 93.748C475.353 92.436 458.66 105.561 455.511 124.096L439.76 216.771C439.691 217.18 439.966 217.567 440.374 217.636C440.783 217.706 441.17 217.431 441.239 217.023L456.989 124.347C460.007 106.589 475.988 94.01 493.953 95.241Z" fill="#F56843"/>
<path fill-rule="evenodd" clip-rule="evenodd" d="M529.858 217.355L537.905 154.794C538.68 148.771 534.425 143.261 528.402 142.486C527.937 142.426 527.469 142.396 527 142.396C519.544 142.396 512.933 147.191 510.618 154.279L490 217.396L529.858 217.355Z" fill="white"/>
<path d="M530.505 217.647C530.882 217.647 531.2 217.366 531.248 216.993L539.295 154.432C540.122 147.998 535.578 142.112 529.144 141.284C528.647 141.221 528.147 141.188 527.646 141.188C519.865 141.188 512.967 146.192 510.551 153.588L489.933 216.706C489.774 217.191 490.136 217.688 490.646 217.688L530.505 217.647ZM529.844 216.148L491.68 216.187L511.977 154.053C514.191 147.275 520.514 142.688 527.646 142.688C528.083 142.688 528.519 142.716 528.953 142.772C534.565 143.494 538.529 148.629 537.807 154.241L529.844 216.148Z" fill="#F56843"/>
<path fill-rule="evenodd" clip-rule="evenodd" d="M331.5 370.896L407.872 346.002C416.528 343.18 422.843 335.703 424.176 326.697L440.5 216.396H529L513.341 356.544C510.583 381.23 497.285 403.518 476.871 417.671L390 477.896L331.5 370.896Z" fill="#FFD1D1"/>
<path fill-rule="evenodd" clip-rule="evenodd" d="M515 343.896C497.333 353.563 484.5 364.563 476.5 376.896C468.5 389.23 461.667 407.73 456 432.396C460.893 428.828 465.06 425.828 468.5 423.396C482.586 413.442 493.413 404.387 500 393.896C509 379.563 514 362.896 515 343.896Z" fill="#FFAFAF"/>
<path d="M418.871 337.489C418.877 337.479 418.884 337.469 418.891 337.46C418.91 337.433 418.931 337.408 418.953 337.384C421.362 334.282 422.993 330.563 423.591 326.526L439.9 216.329C439.954 215.961 440.27 215.688 440.642 215.688H529.142C529.589 215.688 529.937 216.077 529.887 216.522L523.086 277.388C523.203 277.533 523.265 277.722 523.247 277.922C523.228 278.134 523.123 278.318 522.969 278.441L514.238 356.583C511.45 381.535 497.988 404.055 477.331 418.325L390.926 478.014C390.649 478.205 390.279 478.189 390.02 477.973C378.129 468.055 368.233 455.476 360.334 440.242C352.455 425.046 343.608 401.509 333.783 369.618C333.662 369.225 333.88 368.807 334.272 368.682L407.657 345.272C412.178 343.83 416.049 341.079 418.871 337.489ZM358.917 362.395L335.436 369.886C345.148 401.338 353.895 424.564 361.666 439.552C369.379 454.426 379.004 466.725 390.544 476.455L412.564 461.244L358.917 362.395ZM360.372 361.931L413.805 460.386L476.478 417.091C496.779 403.068 510.007 380.937 512.747 356.416L521.451 278.514L433.433 270.602C433.417 270.601 433.401 270.599 433.385 270.596L425.075 326.745C424.474 330.8 422.895 334.553 420.565 337.737L472.937 375.287C473.274 375.529 473.351 375.997 473.11 376.334C472.868 376.671 472.4 376.748 472.063 376.506L419.642 338.921C416.678 342.496 412.711 345.234 408.113 346.701L360.372 361.931ZM433.604 269.112L521.618 277.023L528.303 217.188H441.289L433.604 269.112Z" fill="#F56843"/>
<path fill-rule="evenodd" clip-rule="evenodd" d="M194 386.396C194 386.396 170.667 398.563 124 422.896L143.858 459.355L204 418.855C197.333 397.216 194 386.396 194 386.396Z" fill="#FFAFAF"/>
<path fill-rule="evenodd" clip-rule="evenodd" d="M658 551.897L643.5 433.897L651 430.397L682 384.397L687.5 382.897C689.49 382.421 690.99 382.421 692 382.897C693.01 383.372 694.34 384.705 696 386.897V526.897C694.9 529.544 693.9 531.377 693 532.397C692.1 533.416 690.6 534.416 688.5 535.397L658 551.897ZM524.5 655.9L619.5 620.897L624 633.897L686 649.897L688.5 654.397C687.94 657.7 687.27 660.04 686.5 661.4C685.73 662.76 684.23 664.26 682 665.9L552.5 696.4C549.821 696.67 547.654 696.33 546 695.4C544.346 694.46 542.679 692.63 541 689.9L524.5 655.9Z" fill="white"/>
<path d="M193.295 385.774L123.295 422.274C122.923 422.468 122.782 422.929 122.983 423.298L142.841 459.756C143.053 460.144 143.552 460.266 143.919 460.019L204.06 419.519C204.335 419.335 204.456 418.992 204.358 418.676L194.358 386.218C194.22 385.77 193.71 385.557 193.295 385.774ZM202.761 418.586L143.764 458.315L124.665 423.251L193.19 387.52L202.761 418.586Z" fill="#F56843"/>
<path fill-rule="evenodd" clip-rule="evenodd" d="M408.5 510.396V511.938L340 379.396L243 420.396C244.808 479.591 253.094 518.925 267.858 538.396C282.623 557.868 308.837 564.035 346.5 556.896H401L408.5 510.396Z" fill="#FFD1D1"/>
<path d="M409.391 510.397V511.938C409.391 512.227 409.249 512.444 409.051 512.569L401.882 557.016C401.823 557.379 401.51 557.647 401.141 557.647H346.712C308.834 564.812 282.358 558.574 267.402 538.85C252.517 519.218 244.204 479.76 242.391 420.42C242.382 420.11 242.564 419.826 242.85 419.706L339.85 378.706C340.21 378.553 340.628 378.704 340.808 379.052L408.332 509.706C408.776 509.52 409.391 509.772 409.391 510.397ZM409.198 511.651L409.232 511.447L409.118 511.227C409.186 511.358 409.213 511.505 409.198 511.651ZM339.794 380.358L243.907 420.887C245.743 479.65 253.997 518.688 268.598 537.943C283.161 557.151 309.09 563.251 346.502 556.16L346.641 556.147H400.503L407.672 511.696L339.794 380.358Z" fill="#F56843"/>
<path fill-rule="evenodd" clip-rule="evenodd" d="M390.5 477.896L395.5 487.396C380.136 499.516 367.969 508.016 359 512.896C350.031 517.777 340.198 522.277 329.5 526.396L323.5 515.896C333.251 511.686 342.585 507.02 351.5 501.896C360.415 496.773 373.415 488.773 390.5 477.896Z" fill="#FFAFAF"/>
<path fill-rule="evenodd" clip-rule="evenodd" d="M420 681.4L657 552.896L644 434.396L409 549.896" fill="#FFAFAF"/>
<path d="M390.081 476.775C372.502 488.624 358.85 497.281 349.133 502.743C339.434 508.194 330.31 512.341 321.763 515.185C321.37 515.316 321.158 515.74 321.289 516.133C321.419 516.526 321.844 516.739 322.237 516.608C330.879 513.733 340.089 509.546 349.868 504.05C359.627 498.565 373.309 489.889 390.919 478.018C391.263 477.787 391.354 477.321 391.122 476.977C390.891 476.634 390.424 476.543 390.081 476.775Z" fill="#F56843"/>
<path d="M395.405 486.799C379.085 499.175 364.829 508.655 352.644 515.237C340.511 521.79 332.239 525.264 327.933 525.65C327.521 525.686 327.216 526.051 327.253 526.463C327.29 526.876 327.654 527.18 328.067 527.144C332.648 526.734 341.042 523.208 353.356 516.556C365.617 509.934 379.934 500.413 396.312 487.994C396.642 487.744 396.706 487.273 396.456 486.943C396.206 486.613 395.735 486.549 395.405 486.799Z" fill="#F56843"/>
<path d="M656.45 552.219C656.42 552.156 656.4 552.088 656.4 552.016L643.4 435.055L408.973 550.57C408.602 550.753 408.152 550.6 407.969 550.229C407.786 549.857 407.939 549.408 408.31 549.225L649.63 430.312L680.5 384.8C681.59 383.199 683.41 382.251 685.34 382.278C686.03 382.288 686.69 382.418 687.29 382.647C687.33 382.578 687.4 382.495 687.5 382.397C687.83 382.064 688.22 381.853 688.67 381.764C689.12 381.674 689.58 381.629 690.04 381.628C693.92 381.622 697.07 384.765 697.08 388.647L697.29 522.952C697.3 528.726 694.42 534.41 688.89 535.806V535.908C688.89 536.179 688.74 536.427 688.5 536.557L419.999 682.06C419.635 682.25 419.18 682.12 418.982 681.75C418.785 681.39 418.92 680.94 419.284 680.74L656.45 552.219ZM657.84 551.463L687.4 535.447L689.51 388.089C689.54 385.742 687.67 383.812 685.32 383.779C683.89 383.758 682.55 384.459 681.74 385.642L650.76 431.318C650.69 431.426 650.59 431.513 650.47 431.57L644.69 434.42C644.8 434.534 644.87 434.683 644.89 434.851L657.84 551.463ZM688.84 383.524C690.18 384.596 691.04 386.257 691.01 388.111L688.92 534.244C693.52 532.849 695.8 527.901 695.79 522.954L695.58 388.65C695.57 385.595 693.09 383.123 690.04 383.128C689.68 383.129 689.32 383.164 688.96 383.235C688.92 383.345 688.88 383.442 688.84 383.524Z" fill="#F56843"/>
<path fill-rule="evenodd" clip-rule="evenodd" d="M231 534.433L238.642 575.933L295.636 676.53C310.632 703 342.597 714.71 371.142 704.18L391.118 696.82C410.336 689.73 426.915 676.92 438.612 660.1L490.24 585.896L524.5 655.9L619.5 620.896L552.714 462.949C545.397 445.643 528.431 434.396 509.642 434.396C489.788 434.396 470.743 442.262 456.676 456.271L367.142 545.433" fill="#FFD1D1"/>
<path fill-rule="evenodd" clip-rule="evenodd" d="M453 459.897C469 472.231 485.667 481.064 503 486.397C520.333 491.731 539.5 490.564 560.5 482.897C555.813 467.368 550.646 456.535 545 450.397C538.274 443.086 525.732 436.576 518.5 434.897C509.011 432.694 491.485 435.243 477.5 441.897C470.772 445.098 462.605 451.098 453 459.897Z" fill="#FFAFAF"/>
<path d="M688.26 652.785L688.53 652.719L688.54 652.765C690.1 659.22 686.13 665.72 679.67 667.28L554.76 697.39C549.124 698.75 543.297 696.16 540.524 691.1C540.287 691.06 540.075 690.91 539.966 690.69L490.122 587.344L439.228 660.5C427.443 677.44 410.739 690.35 391.377 697.49L371.401 704.85C342.512 715.5 310.161 703.65 294.983 676.87L237.989 576.267C237.948 576.194 237.919 576.115 237.904 576.033L230.263 534.533C230.188 534.126 230.457 533.735 230.864 533.66C231.272 533.585 231.663 533.854 231.738 534.262L239.356 575.638L296.288 676.13C311.103 702.28 342.683 713.84 370.882 703.44L390.858 696.08C409.932 689.05 426.387 676.33 437.997 659.64L489.624 585.433C489.952 584.962 490.666 585.018 490.916 585.535L524.472 655.11L618.4 620.503L562.032 486.965C528.677 503.224 491.393 495.426 450.273 463.67L367.671 545.929C367.377 546.221 366.903 546.22 366.61 545.927C366.318 545.633 366.319 545.158 366.612 544.866L456.146 455.704C470.355 441.555 489.59 433.611 509.642 433.611C528.731 433.611 545.965 445.043 553.388 462.63L619.937 620.288C620.055 620.372 620.15 620.492 620.204 620.638C620.249 620.761 620.26 620.888 620.242 621.009L625.187 632.726L683.93 647.556C686.03 648.086 687.65 649.751 688.13 651.862C688.2 652.171 688.24 652.479 688.26 652.785ZM687.36 656.24C686.57 657.46 685.32 658.39 683.79 658.74L542.084 690.8C544.618 694.99 549.592 697.1 554.409 695.93L679.31 665.82C683.92 664.71 687.08 660.73 687.36 656.24ZM525.126 656.47L541.058 689.5L683.46 657.28C685.75 656.76 687.18 654.483 686.67 652.193C686.31 650.632 685.11 649.402 683.56 649.011L624.458 634.088C624.23 634.031 624.042 633.87 623.951 633.653L618.984 621.887L525.126 656.47ZM561.448 485.581L552.006 463.213C544.817 446.182 528.128 435.111 509.642 435.111C489.987 435.111 471.132 442.898 457.205 456.767L451.345 462.603C492.019 493.961 528.689 501.587 561.448 485.581Z" fill="#F56843"/>
<path fill-rule="evenodd" clip-rule="evenodd" d="M280 369.396L92.9834 488.83C50.4434 515.997 34.8184 570.606 56.5484 616.162L69.9594 644.279C93.7374 694.13 153.422 715.26 203.27 691.48C205.932 690.21 208.537 688.83 211.076 687.33L296.631 636.791C312.564 627.38 325.573 613.731 334.211 597.366L335.25 595.396C344.201 578.436 344.481 558.214 336.003 541.012L315 498.396C283.824 521.64 266.991 537.64 264.5 546.396C262.279 554.204 236.859 570.29 188.24 594.654C177.695 599.938 164.86 596.235 158.75 586.146C153.842 578.043 156.433 567.495 164.536 562.588C165.463 562.027 166.44 561.554 167.455 561.178L258.5 527.396" fill="#FFD1D1"/>
<path fill-rule="evenodd" clip-rule="evenodd" d="M53.9999 611.397C56.4999 618.397 67.3549 640.312 71.4999 647.397C75.8599 654.852 80.4999 661.9 86.4999 668.9C92.4419 675.83 100.436 682.68 112.5 688.9C116.536 690.98 120.87 693.14 125.5 695.4C122.386 669.12 118.886 650.785 115 640.397C111.85 631.976 108.646 623.534 104 616.897C92.3329 600.231 73.4759 583.384 47.4299 566.357C45.1429 577.717 47.3329 592.731 53.9999 611.397Z" fill="#FFAFAF"/>
<path fill-rule="evenodd" clip-rule="evenodd" d="M268 536.897L269 549.897C281.032 572.671 288.429 586.42 291.192 591.144C294.099 596.114 299.868 608.365 308.5 627.897C318.173 619.518 325.84 610.852 331.5 601.897C337.16 592.942 340.66 583.942 342 574.897C343.333 562.897 340 549.397 332 534.397C328.01 526.915 322.176 514.415 314.5 496.897C292.742 508.418 277.575 517.918 269 525.397C260.425 532.875 260.092 536.708 268 536.897Z" fill="white"/>
<path d="M334.972 540.885C343.344 557.871 343.068 577.841 334.229 594.588L333.19 596.557C324.617 612.8 311.705 626.346 295.891 635.687L210.031 686.4C207.603 687.84 205.115 689.17 202.574 690.39C153.177 714.15 93.8715 693.37 70.1115 643.969L57.1975 617.118C35.6045 572.227 50.6345 518.285 92.3285 491.026L277.41 370.024C277.757 369.798 277.854 369.333 277.628 368.986C277.401 368.639 276.937 368.542 276.591 368.769L91.5075 489.77C49.1835 517.441 33.9265 572.199 55.8455 617.769L68.7605 644.619C92.8785 694.76 153.081 715.86 203.225 691.74C205.804 690.5 208.33 689.15 210.794 687.7L296.654 636.978C312.707 627.496 325.813 613.746 334.516 597.258L335.555 595.288C344.618 578.116 344.902 557.639 336.318 540.222L315.315 497.607C315.137 497.245 314.704 497.089 314.336 497.254C289.468 508.404 274.209 516.748 268.475 522.361C265.854 524.927 264.4 528.171 263.805 532.104C263.434 534.556 263.409 536.674 263.56 540.463C263.693 543.792 263.682 544.813 263.42 545.733C261.291 553.219 235.841 569.324 187.547 593.525C177.351 598.634 164.942 595.054 159.034 585.3C154.414 577.67 156.853 567.74 164.482 563.119C165.422 562.55 166.416 562.078 167.451 561.711L262.251 528.103C262.641 527.965 262.845 527.536 262.707 527.146C262.569 526.756 262.141 526.551 261.75 526.69L166.951 560.297C165.819 560.698 164.731 561.214 163.704 561.836C155.366 566.886 152.7 577.739 157.75 586.077C164.063 596.5 177.324 600.325 188.219 594.866C237.162 570.339 262.55 554.273 264.863 546.143C265.189 544.996 265.2 543.954 265.058 540.404C264.91 536.705 264.937 534.659 265.289 532.328C265.839 528.695 267.159 525.749 269.526 523.432C275.035 518.039 289.982 509.843 314.289 498.919L334.972 540.885Z" fill="#F56843"/>
<path fill-rule="evenodd" clip-rule="evenodd" d="M340.142 379.296C322.67 340.481 312.17 314.695 308.642 301.938C297.204 260.586 289.222 224.516 246.499 224.516C203.776 224.516 169.142 259.15 169.142 301.874C169.142 314.044 179.642 353.065 200.642 418.938C231.613 418.814 256.67 417.271 275.813 414.311C294.956 411.351 316.399 399.679 340.142 379.296Z" fill="#FFD1D1" stroke="#F56843" stroke-width="1.5" stroke-linecap="round" stroke-linejoin="round"/>
<path fill-rule="evenodd" clip-rule="evenodd" d="M340 379.177C322.529 340.362 312.029 314.576 308.5 301.819C297.062 260.467 289.08 224.396 246.357 224.396C203.634 224.396 169 259.031 169 301.755C169 313.925 179.5 352.946 200.5 418.819C231.472 418.695 256.529 417.152 275.671 414.192C294.814 411.232 316.257 399.56 340 379.177Z" fill="#FFD1D1"/>
<path fill-rule="evenodd" clip-rule="evenodd" d="M340 379.177C322.529 340.362 312.029 314.576 308.5 301.819C297.062 260.467 289.08 224.396 246.357 224.396C203.634 224.396 169 259.031 169 301.755C169 313.925 179.5 352.946 200.5 418.819C231.472 418.695 256.529 417.152 275.671 414.192C294.814 411.232 316.257 399.56 340 379.177Z" stroke="#F56843" stroke-width="1.5" stroke-linecap="round" stroke-linejoin="round"/>
<path d="M340.684 378.869C323.229 340.09 312.738 314.326 309.223 301.619C308.763 299.955 306.724 292.529 306.175 290.548C299.445 266.262 294.788 253.861 287.291 243.442C277.823 230.284 264.872 223.646 246.357 223.646C203.22 223.646 168.25 258.617 168.25 301.755C168.25 314.041 178.751 353.065 199.785 419.047C199.885 419.359 200.175 419.569 200.503 419.569C231.509 419.444 256.601 417.9 275.786 414.933C295.088 411.948 316.649 400.212 340.489 379.746C340.741 379.529 340.82 379.172 340.684 378.869ZM275.557 413.451C256.569 416.387 231.731 417.926 201.047 418.066C180.193 352.619 169.75 313.776 169.75 301.755C169.75 259.445 204.048 225.146 246.357 225.146C264.39 225.146 276.888 231.552 286.073 244.318C293.432 254.546 298.046 266.832 304.73 290.949C305.278 292.927 307.316 300.353 307.777 302.019C311.304 314.77 321.736 340.407 339.086 378.973C315.609 399.047 294.427 410.533 275.557 413.451Z" fill="#F56843"/>
<path d="M210.174 337.355C210.174 337.355 251.943 353.756 315.409 331.452C316.5 331.069 317.696 330.384 319 329.396C315.718 322.831 313.718 318.331 313 315.896C310.075 305.983 309.804 299.688 306.5 293.396C304.364 289.33 303.617 282.392 301.5 275.896C300.358 272.392 298.191 266.892 295 259.396C291.829 253.102 289.662 248.935 288.5 246.896C286.72 243.774 286.719 240.726 284.399 241.064C271.855 242.89 258.329 251.025 243.819 265.471C210.101 299.041 210.174 337.355 210.174 337.355Z" fill="#F56843"/>
<path fill-rule="evenodd" clip-rule="evenodd" d="M237 272.896C240.5 268.896 242.437 266.392 245.5 263.396C248.563 260.401 252.5 256.896 259.5 251.896C263.167 261.563 266.833 272.063 271.5 286.396C278.5 307.896 267.416 311.287 254 296.896C245.056 287.303 239.722 279.636 237 272.896ZM276.66 271.654C279.154 271.828 280.512 282.649 281.274 284.507C281.699 285.543 281.204 286.726 280.169 287.151C279.223 287.539 278.136 287.161 277.634 286.271C274.712 281.084 273.262 277.971 273.283 276.931C273.338 274.303 274.166 271.479 276.66 271.654Z" fill="white"/>
<path d="M262.642 525.396C296.331 525.396 323.642 498.086 323.642 464.396C323.642 430.707 296.331 403.396 262.642 403.396C228.952 403.396 201.642 430.707 201.642 464.396C201.642 498.086 228.952 525.396 262.642 525.396Z" fill="#F56843"/>
<path d="M210.873 332.232C205.6 308.832 213.345 286.585 234.176 265.423C255.012 244.257 269.732 234.003 278.084 234.645C278.497 234.677 277.968 234.81 278 234.397C278.032 233.984 277.913 233.929 277.5 233.897C277.261 233.879 277.717 233.121 277.47 233.118C268.418 233.021 253.709 243.443 233.107 264.371C211.938 285.876 204.017 308.629 209.41 332.562C209.501 332.966 209.902 333.22 210.307 333.129C210.711 333.038 210.964 332.636 210.873 332.232Z" fill="#F56843"/>
<path fill-rule="evenodd" clip-rule="evenodd" d="M223.142 511.897L245.642 454.361L302.073 438.004C304.194 437.389 306.413 438.61 307.028 440.732C307.398 442.01 307.11 443.387 306.257 444.408L274.142 482.897L271.5 525.397L223.142 511.897Z" fill="white"/>
<path fill-rule="evenodd" clip-rule="evenodd" d="M245.516 454.396C237.84 462.781 232.96 468.293 230.875 470.933C219.928 484.789 220.331 490.026 225.516 493.396C235.516 499.896 245.875 512.933 252.875 500.933C257.541 492.933 255.088 477.421 245.516 454.396Z" fill="#FFD1D1"/>
<path d="M245.088 453.854C245.459 453.45 246.124 453.566 246.334 454.073C255.992 477.304 258.474 493 253.648 501.275C250.895 505.994 247.39 507.413 243.094 506.046C239.991 505.058 237.642 503.453 231.402 498.547C229.908 497.373 229.033 496.696 228.094 495.997C227.057 495.226 226.122 494.568 225.233 493.989C218.947 489.904 220.094 483.491 230.412 470.432C232.512 467.773 237.399 462.253 245.088 453.854ZM252.352 500.519C256.787 492.916 254.511 477.954 245.399 455.737C238.193 463.62 233.586 468.834 231.589 471.362C221.744 483.822 220.765 489.296 226.05 492.732C226.969 493.329 227.929 494.005 228.989 494.793C229.942 495.503 230.825 496.186 232.329 497.368C238.399 502.14 240.693 503.707 243.549 504.616C247.165 505.767 249.948 504.64 252.352 500.519ZM275.884 480.969C276.12 480.629 276.588 480.544 276.928 480.781C277.268 481.017 277.352 481.484 277.116 481.824C274.211 486.008 271.537 488.147 269 488.147C268.586 488.147 268.25 487.811 268.25 487.397C268.25 486.982 268.586 486.647 269 486.647C270.907 486.647 273.234 484.785 275.884 480.969Z" fill="#F56843"/>
<path d="M207.5 346.396C211.642 346.396 215 343.039 215 338.896C215 334.754 211.642 331.396 207.5 331.396C203.358 331.396 200 334.754 200 338.896C200 343.039 203.358 346.396 207.5 346.396Z" fill="white"/>
<path d="M207.142 347.146C211.698 347.146 215.392 343.453 215.392 338.896C215.392 334.34 211.698 330.646 207.142 330.646C202.585 330.646 198.892 334.34 198.892 338.896C198.892 343.453 202.585 347.146 207.142 347.146ZM207.142 345.646C203.414 345.646 200.392 342.624 200.392 338.896C200.392 335.169 203.414 332.146 207.142 332.146C210.87 332.146 213.892 335.169 213.892 338.896C213.892 342.624 210.87 345.646 207.142 345.646Z" fill="#F56843"/>
<path d="M207.142 343.146C209.744 343.146 211.892 341.268 211.892 338.896C211.892 336.525 209.744 334.646 207.142 334.646C204.539 334.646 202.392 336.525 202.392 338.896C202.392 341.268 204.539 343.146 207.142 343.146ZM207.142 341.646C205.326 341.646 203.892 340.391 203.892 338.896C203.892 337.402 205.326 336.146 207.142 336.146C208.957 336.146 210.392 337.402 210.392 338.896C210.392 340.391 208.957 341.646 207.142 341.646Z" fill="#F56843"/>
<path fill-rule="evenodd" clip-rule="evenodd" d="M271.5 521.896L268.642 549.896L226.142 574.896L192.5 592.396L176 570.396C189.796 569.597 197.629 567.43 199.5 563.896C205.037 553.437 212.87 536.27 223 512.396L271.5 521.896Z" fill="white"/>
<path d="M271.644 520.661C272.025 520.735 272.286 521.087 272.246 521.473L269.388 549.473C269.364 549.71 269.228 549.922 269.022 550.043L226.488 575.062L192.846 592.562C192.521 592.731 192.12 592.64 191.9 592.347L175.4 570.347C175.041 569.868 175.36 569.182 175.957 569.148C189.474 568.365 197.145 566.243 198.837 563.046C204.362 552.609 212.188 535.459 222.31 511.604C222.448 511.277 222.796 511.092 223.144 511.161L271.644 520.661ZM223.453 512.749C213.43 536.35 205.669 553.346 200.163 563.747C198.182 567.489 190.646 569.68 177.434 570.559L192.718 590.938L225.761 573.75L267.934 548.943L270.685 522.001L223.453 512.749ZM268.261 548.75L267.896 549.32L267.934 548.943L268.261 548.75Z" fill="#F56843"/>
<path fill-rule="evenodd" clip-rule="evenodd" d="M89 317.396C84.029 317.396 80 313.367 80 308.396C80 303.426 84.029 299.396 89 299.396C93.971 299.396 98 303.426 98 308.396C98 313.367 93.971 317.396 89 317.396ZM177 339.896L179.358 348.896C178.793 349.088 178.233 349.296 177.679 349.52C161.868 355.92 154.239 373.925 160.638 389.735L165.358 401.396L156.358 406.396L151.034 389.063C145.291 370.366 154.285 350.307 172.066 342.158L177 339.896Z" fill="white"/>
<path d="M109.742 350.507C109.765 350.353 109.739 350.196 109.669 350.057L92.6692 316.557C92.4812 316.188 92.0302 316.04 91.6612 316.228C91.2912 316.415 91.1441 316.867 91.3311 317.236L108.223 350.523L106.258 363.787C106.208 364.126 106.394 364.456 106.71 364.589L120.423 370.328L142.839 411.984C143.036 412.349 143.491 412.485 143.855 412.289C144.22 412.093 144.357 411.638 144.16 411.273L121.618 369.383C121.537 369.231 121.406 369.113 121.247 369.046L107.827 363.43L109.742 350.507Z" fill="#F56843"/>
<path d="M88.6416 318.146C83.2566 318.146 78.8916 313.781 78.8916 308.396C78.8916 303.012 83.2566 298.646 88.6416 298.646C94.0256 298.646 98.3916 303.012 98.3916 308.396C98.3916 313.781 94.0256 318.146 88.6416 318.146ZM88.6416 316.646C93.1976 316.646 96.8916 312.953 96.8916 308.396C96.8916 303.84 93.1976 300.146 88.6416 300.146C84.0846 300.146 80.3916 303.84 80.3916 308.396C80.3916 312.953 84.0846 316.646 88.6416 316.646ZM176.329 339.215C176.753 339.021 177.249 339.256 177.367 339.706L179.726 348.706C179.825 349.087 179.614 349.481 179.241 349.607C178.689 349.794 178.142 349.997 177.602 350.215C162.175 356.46 154.731 374.027 160.975 389.454L165.695 401.115C165.837 401.466 165.695 401.868 165.364 402.052L156.364 407.052C155.947 407.284 155.423 407.073 155.283 406.617L149.959 389.283C144.105 370.227 153.272 349.782 171.395 341.476L176.329 339.215ZM172.02 342.84C154.581 350.833 145.76 370.506 151.393 388.843L156.445 405.291L164.056 401.063L159.585 390.017C153.03 373.822 160.844 355.38 177.039 348.825C177.39 348.683 177.743 348.547 178.099 348.418L176.142 340.95L172.02 342.84Z" fill="#F56843"/>
<path d="M107.681 611.728C120.779 629.583 129.122 658.11 132.747 697.33L131.253 697.47C127.598 657.93 119.135 629.383 105.901 611.848C95.0842 597.515 83.4692 585.71 71.5092 576.192C62.7322 569.206 54.5192 564.028 47.3242 560.418L47.9972 559.078C55.2812 562.733 63.5822 567.966 72.4442 575.018C84.3802 584.518 95.9702 596.272 106.773 610.514L157.143 583.237C157.507 583.04 157.962 583.175 158.16 583.54C158.357 583.904 158.222 584.359 157.857 584.556L107.681 611.728ZM179.233 597.548C179.035 597.184 179.169 596.728 179.532 596.53C179.896 596.331 180.351 596.465 180.55 596.829L225.158 678.54C225.357 678.9 225.223 679.36 224.86 679.55C224.496 679.75 224.04 679.62 223.842 679.26L179.233 597.548ZM162.866 563.066C163.049 563.438 162.895 563.887 162.523 564.07C162.152 564.252 161.702 564.099 161.52 563.727L117.327 473.727C117.144 473.355 117.298 472.906 117.67 472.723C118.041 472.541 118.491 472.694 118.673 473.066L162.866 563.066Z" fill="#F56843"/>
<path d="M201 419.396L223.142 464.396" stroke="#F56843" stroke-width="1.5" stroke-linecap="round" stroke-linejoin="round"/>
<path d="M268.892 549.646L308.5 627.549" stroke="#F56843" stroke-width="1.5" stroke-linecap="round" stroke-linejoin="round"/>
<path d="M894.3 193.175C894.7 193.062 895.11 193.294 895.22 193.693C895.33 194.092 895.1 194.506 894.7 194.618L831.06 212.546C815.51 216.926 806.46 233.082 810.84 248.631C811.86 252.255 813.57 255.648 815.88 258.624L825.21 270.659C834.26 282.327 832.13 299.12 820.46 308.168C815.22 312.23 808.66 314.201 802.05 313.697L769.96 311.253C753.67 310.013 737.76 316.615 727.14 329.027L711.57 347.21C711.3 347.525 710.83 347.562 710.51 347.292C710.2 347.023 710.16 346.55 710.43 346.235L726 328.052C736.93 315.276 753.31 308.481 770.07 309.758L802.17 312.202C808.41 312.677 814.6 310.817 819.54 306.982C830.56 298.442 832.56 282.592 824.02 271.578L814.69 259.543C812.27 256.415 810.47 252.848 809.39 249.038C804.79 232.691 814.31 215.707 830.65 211.102L894.3 193.175ZM784 410.396V397.396C784 396.844 784.45 396.396 785 396.396C785.55 396.396 786 396.844 786 397.396V410.396H799C799.55 410.396 800 410.844 800 411.396C800 411.949 799.55 412.396 799 412.396H786V425.396C786 425.949 785.55 426.396 785 426.396C784.45 426.396 784 425.949 784 425.396V412.396H771C770.45 412.396 770 411.949 770 411.396C770 410.844 770.45 410.396 771 410.396H784ZM316 90.396V77.396C316 76.844 316.448 76.396 317 76.396C317.552 76.396 318 76.844 318 77.396V90.396H331C331.552 90.396 332 90.844 332 91.396C332 91.949 331.552 92.396 331 92.396H318V105.396C318 105.949 317.552 106.396 317 106.396C316.448 106.396 316 105.949 316 105.396V92.396H303C302.448 92.396 302 91.949 302 91.396C302 90.844 302.448 90.396 303 90.396H316ZM740 148.396V135.396C740 134.844 740.45 134.396 741 134.396C741.55 134.396 742 134.844 742 135.396V148.396H755C755.55 148.396 756 148.844 756 149.396C756 149.949 755.55 150.396 755 150.396H742V163.396C742 163.949 741.55 164.396 741 164.396C740.45 164.396 740 163.949 740 163.396V150.396H727C726.45 150.396 726 149.949 726 149.396C726 148.844 726.45 148.396 727 148.396H740ZM11 410.396V400.396C11 399.844 11.448 399.396 12 399.396C12.552 399.396 13 399.844 13 400.396V410.396H23C23.552 410.396 24 410.844 24 411.396C24 411.949 23.552 412.396 23 412.396H13V422.396C13 422.949 12.552 423.396 12 423.396C11.448 423.396 11 422.949 11 422.396V412.396H1C0.448 412.396 0 411.949 0 411.396C0 410.844 0.448 410.396 1 410.396H11ZM624.5 265.396V255.896C624.5 255.344 624.948 254.896 625.5 254.896C626.052 254.896 626.5 255.344 626.5 255.896V265.396H636C636.55 265.396 637 265.844 637 266.396C637 266.949 636.55 267.396 636 267.396H626.5V276.896C626.5 277.449 626.052 277.896 625.5 277.896C624.948 277.896 624.5 277.449 624.5 276.896V267.396H615C614.448 267.396 614 266.949 614 266.396C614 265.844 614.448 265.396 615 265.396H624.5ZM370.5 235.896V226.396C370.5 225.844 370.948 225.396 371.5 225.396C372.052 225.396 372.5 225.844 372.5 226.396V235.896H382C382.552 235.896 383 236.344 383 236.896C383 237.449 382.552 237.896 382 237.896H372.5V247.396C372.5 247.949 372.052 248.396 371.5 248.396C370.948 248.396 370.5 247.949 370.5 247.396V237.896H361C360.448 237.896 360 237.449 360 236.896C360 236.344 360.448 235.896 361 235.896H370.5Z" fill="#F56843"/>
<path fill-rule="evenodd" clip-rule="evenodd" d="M272.168 453.878C267.31 450.396 263.336 449.526 260.245 451.267C255.609 453.878 249.647 459.101 252.959 465.63C256.271 472.158 258.92 477.381 262.232 477.381C265.544 477.381 271.505 478.034 274.817 470.852C277.025 466.065 276.142 460.407 272.168 453.878Z" fill="#FFD1D1"/>
<path fill-rule="evenodd" clip-rule="evenodd" d="M271.896 456.881C271.554 460.422 270.374 462.704 268.359 463.726C266.596 464.621 263.838 465.141 260.086 465.289C258.43 465.354 257.036 464.064 256.971 462.409C256.948 461.841 257.087 461.28 257.372 460.788C259.435 457.223 261.264 455.036 262.859 454.226C264.532 453.377 266.716 453.18 269.409 453.634C270.962 453.895 272.048 455.313 271.896 456.881Z" fill="white"/>
<path d="M270.653 458.067C270.149 458.858 269.15 459.397 268 459.397C266.343 459.397 265 458.278 265 456.897C265 455.55 266.28 454.451 267.882 454.399C265.819 454.178 264.141 454.406 262.839 455.066C261.409 455.792 259.658 457.886 257.662 461.335C257.449 461.703 257.345 462.125 257.362 462.55C257.41 463.792 258.456 464.759 259.698 464.71C263.352 464.567 266.014 464.064 267.661 463.229C269.211 462.442 270.219 460.744 270.653 458.067ZM269.243 454.621C269.492 454.701 269.721 454.823 269.922 454.978C269.717 454.835 269.489 454.715 269.243 454.621ZM272.285 457.124C271.919 460.896 270.621 463.409 268.339 464.566C266.461 465.519 263.608 466.058 259.757 466.209C257.687 466.29 255.944 464.678 255.863 462.609C255.835 461.9 256.009 461.198 256.364 460.584C258.494 456.902 260.402 454.621 262.161 453.729C263.994 452.798 266.336 452.586 269.175 453.065C271.116 453.392 272.474 455.165 272.285 457.124Z" fill="#F56843"/>
<path fill-rule="evenodd" clip-rule="evenodd" d="M303.5 437.656C301.16 437.071 298.692 437.474 296.095 438.863C295.608 439.124 295.425 439.73 295.685 440.216C295.74 440.319 295.813 440.412 295.9 440.489C296.891 441.378 298.091 441.882 299.5 442.003C301.367 442.162 303.533 442.162 306 442.003C307 439.772 306.167 438.323 303.5 437.656Z" fill="#FFD1D1"/>
<path d="M304.182 436.824C301.65 436.191 298.994 436.624 296.241 438.096C295.389 438.552 295.068 439.613 295.524 440.465C295.62 440.645 295.747 440.806 295.899 440.943C297.013 441.941 298.367 442.511 299.936 442.645C301.843 442.808 304.046 442.808 306.548 442.646C306.826 442.628 307.07 442.458 307.184 442.204C308.386 439.523 307.279 437.598 304.182 436.824ZM300.064 441.15C298.814 441.043 297.768 440.603 296.9 439.826C296.878 439.806 296.86 439.783 296.846 439.757C296.781 439.636 296.827 439.484 296.949 439.419C299.389 438.113 301.669 437.742 303.818 438.279C305.875 438.793 306.513 439.657 305.981 441.178C303.744 441.305 301.771 441.296 300.064 441.15Z" fill="#F56843"/>
<path fill-rule="evenodd" clip-rule="evenodd" d="M925 148.396L915 150.896L940.5 175.896L943.5 165.896" fill="white"/>
<path d="M541.5 657.4C545.642 657.4 549 654.039 549 649.896C549 645.754 545.642 642.396 541.5 642.396C537.358 642.396 534 645.754 534 649.896C534 654.039 537.358 657.4 541.5 657.4Z" fill="white"/>
<path d="M541.142 658.15C545.698 658.15 549.392 654.453 549.392 649.896C549.392 645.34 545.698 641.646 541.142 641.646C536.585 641.646 532.892 645.34 532.892 649.896C532.892 654.453 536.585 658.15 541.142 658.15ZM541.142 656.65C537.414 656.65 534.392 653.624 534.392 649.896C534.392 646.169 537.414 643.146 541.142 643.146C544.87 643.146 547.892 646.169 547.892 649.896C547.892 653.624 544.87 656.65 541.142 656.65Z" fill="#F56843"/>
<path d="M654.5 538.396C658.64 538.396 662 535.039 662 530.896C662 526.754 658.64 523.396 654.5 523.396C650.36 523.396 647 526.754 647 530.896C647 535.039 650.36 538.396 654.5 538.396Z" fill="white"/>
<path d="M654.5 539.146C659.06 539.146 662.75 535.453 662.75 530.896C662.75 526.34 659.06 522.646 654.5 522.646C649.94 522.646 646.25 526.34 646.25 530.896C646.25 535.453 649.94 539.146 654.5 539.146ZM654.5 537.646C650.77 537.646 647.75 534.624 647.75 530.896C647.75 527.169 650.77 524.146 654.5 524.146C658.23 524.146 661.25 527.169 661.25 530.896C661.25 534.624 658.23 537.646 654.5 537.646Z" fill="#F56843"/>
<path d="M541.142 654.146C543.744 654.146 545.892 652.268 545.892 649.896C545.892 647.525 543.744 645.646 541.142 645.646C538.539 645.646 536.392 647.525 536.392 649.896C536.392 652.268 538.539 654.146 541.142 654.146ZM541.142 652.646C539.326 652.646 537.892 651.391 537.892 649.896C537.892 648.402 539.326 647.146 541.142 647.146C542.957 647.146 544.392 648.402 544.392 649.896C544.392 651.391 542.957 652.646 541.142 652.646Z" fill="#F56843"/>
<path d="M654.5 535.146C657.1 535.146 659.25 533.268 659.25 530.896C659.25 528.525 657.1 526.646 654.5 526.646C651.9 526.646 649.75 528.525 649.75 530.896C649.75 533.268 651.9 535.146 654.5 535.146ZM654.5 533.646C652.68 533.646 651.25 532.391 651.25 530.896C651.25 529.402 652.68 528.146 654.5 528.146C656.32 528.146 657.75 529.402 657.75 530.896C657.75 532.391 656.32 533.646 654.5 533.646Z" fill="#F56843"/>
<path d="M214.136 339.45C221.991 346.622 239.145 349.818 265.661 349.146C292.123 348.476 310.914 344.45 322.058 337.021C322.402 336.791 322.495 336.325 322.266 335.981C322.036 335.636 321.57 335.543 321.226 335.773C310.369 343.01 291.827 346.983 265.623 347.647C239.472 348.309 222.626 345.171 215.147 338.343C214.841 338.063 214.367 338.085 214.088 338.391C213.808 338.697 213.83 339.171 214.136 339.45Z" fill="#F56843"/>
<path fill-rule="evenodd" clip-rule="evenodd" d="M1078.27 1.49603C1053.44 10.04 1028.12 25.198 1002.33 46.969C975.72 69.426 947.02 100.255 916.23 139.457L950.84 172.874C989.17 140.307 1018.98 110.55 1040.26 83.603C1060.91 57.468 1075.28 31.754 1083.4 6.46102C1083.86 5.02602 1083.46 3.45303 1082.38 2.40603C1081.29 1.35503 1079.7 1.00403 1078.27 1.49603Z" fill="#FFD1D1"/>
<path fill-rule="evenodd" clip-rule="evenodd" d="M1039 20.397L1065.5 44.897C1079.83 18.897 1085.5 4.56297 1082.5 1.89697C1079.5 -0.770027 1065 5.39697 1039 20.397Z" fill="#FFAFAF"/>
<path fill-rule="evenodd" clip-rule="evenodd" d="M936.26 172.292L920.5 191.397L922 176.897L909.5 179.897L914.5 168.897H900L918.17 154.553L913.52 149.994L924.82 147.169L925.18 148.624L916.48 150.799L940.14 173.992L942.78 165.181L944.22 165.612L940.86 176.801L936.26 172.292Z" fill="#F56843"/>
<path d="M1001.83 46.06C975.18 68.553 946.45 99.419 915.63 138.658C915.39 138.96 915.42 139.394 915.7 139.661L950.3 173.078C950.58 173.346 951.01 173.359 951.31 173.11C989.68 140.513 1019.52 110.722 1040.84 83.732C1061.53 57.53 1075.95 31.738 1084.1 6.35499C1084.64 4.64699 1084.17 2.77598 1082.88 1.52998C1081.59 0.283982 1079.71 -0.133004 1078.02 0.449996C1053.08 9.028 1027.69 24.233 1001.83 46.06ZM917.23 139.052C947.83 100.141 976.36 69.525 1002.8 47.207C1028.52 25.492 1053.76 10.381 1078.5 1.86897C1079.67 1.46897 1080.96 1.75499 1081.84 2.60899C1082.72 3.45799 1083.04 4.73298 1082.67 5.89598C1074.58 31.098 1060.25 56.734 1039.66 82.802C1018.51 109.585 988.9 139.161 950.85 171.526L917.23 139.052Z" fill="#F56843"/>
<path fill-rule="evenodd" clip-rule="evenodd" d="M967.69 86.396L963.23 94.338L916.74 139.155L881.95 141.224L879 138.374L967.69 86.396ZM1002.79 120.002L952.37 209.587L949.46 206.686L950.93 171.864L994.93 124.601L1002.79 120.002Z" fill="white"/>
<path d="M966.82 86.106C967.48 85.719 968.23 86.454 967.86 87.121L963.4 95.0621L963.26 95.235L916.78 140.052C916.65 140.176 916.48 140.25 916.3 140.261L881.51 142.33C881.3 142.342 881.09 142.266 880.94 142.121L877.99 139.271C877.63 138.926 877.7 138.335 878.13 138.084L966.82 86.106ZM879.74 138.879L881.75 140.813L915.93 138.78L962.14 94.231L965.19 88.801L879.74 138.879ZM962.22 94.155L962.09 94.328L962.14 94.231L962.22 94.155ZM1001.92 119.712C1002.58 119.325 1003.33 120.06 1002.95 120.727L952.53 210.312C952.29 210.745 951.7 210.826 951.35 210.474L948.45 207.574C948.3 207.425 948.22 207.221 948.23 207.012L949.69 172.189C949.7 172.01 949.77 171.84 949.89 171.709L993.89 124.447L994.06 124.311L1001.92 119.712ZM994.91 125.55L951.18 172.529L949.74 206.746L951.71 208.715L1000.29 122.405L994.91 125.55Z" fill="#F56843"/>
<path d="M1024 78.396C1032.28 78.396 1039 71.681 1039 63.396C1039 55.112 1032.28 48.396 1024 48.396C1015.72 48.396 1009 55.112 1009 63.396C1009 71.681 1015.72 78.396 1024 78.396Z" fill="white"/>
<path d="M1024.2 78.797C1032.9 78.797 1039.95 71.745 1039.95 63.047C1039.95 54.348 1032.9 47.297 1024.2 47.297C1015.5 47.297 1008.45 54.348 1008.45 63.047C1008.45 71.745 1015.5 78.797 1024.2 78.797ZM1024.2 77.297C1016.33 77.297 1009.95 70.917 1009.95 63.047C1009.95 55.177 1016.33 48.797 1024.2 48.797C1032.07 48.797 1038.45 55.177 1038.45 63.047C1038.45 70.917 1032.07 77.297 1024.2 77.297Z" fill="#F56843"/>
<path d="M1024 71.147C1019.72 71.147 1016.25 67.678 1016.25 63.397C1016.25 59.117 1019.72 55.647 1024 55.647C1028.28 55.647 1031.75 59.117 1031.75 63.397C1031.75 67.678 1028.28 71.147 1024 71.147ZM1024 69.647C1027.45 69.647 1030.25 66.849 1030.25 63.397C1030.25 59.946 1027.45 57.147 1024 57.147C1020.55 57.147 1017.75 59.946 1017.75 63.397C1017.75 66.849 1020.55 69.647 1024 69.647ZM1038.49 20.445L1039.51 19.35L1066.24 44.35L1065.22 45.445L1038.49 20.445Z" fill="#F56843"/>
<path d="M514.6 338.263C493.925 351.28 479.683 363.678 471.874 375.484C464.073 387.278 457.046 407.187 450.768 435.234L452.232 435.561C458.474 407.678 465.447 387.92 473.125 376.311C480.797 364.713 494.888 352.445 515.4 339.532L514.6 338.263Z" fill="#F56843"/>
<path fill-rule="evenodd" clip-rule="evenodd" d="M224.891 507.945C232.952 510.812 240.41 512.991 247.265 514.481C253.972 515.939 261.853 517.199 270.907 518.26C272.827 518.485 274.202 520.224 273.977 522.144C273.959 522.292 273.933 522.439 273.897 522.584L273.799 522.977C273.303 524.966 271.384 526.258 269.354 525.969C260.936 524.772 253.073 523.443 245.765 521.981C238.351 520.498 230.868 517.938 223.315 514.301C221.67 513.508 220.807 511.669 221.25 509.897C221.624 508.402 223.138 507.494 224.633 507.867C224.72 507.889 224.806 507.915 224.891 507.945Z" fill="white"/>
<path d="M254.523 517.295C251.961 516.843 249.534 516.368 247.242 515.87C244.448 515.262 241.538 514.478 238.511 513.518L237.43 518.2C240.457 519.104 243.432 519.848 246.354 520.433C248.675 520.897 251.053 521.348 253.487 521.786L254.523 517.295ZM256.003 517.551L254.965 522.048C259.719 522.885 264.684 523.671 269.861 524.407C271.129 524.587 272.329 523.78 272.639 522.537L272.737 522.144C272.757 522.061 272.773 521.977 272.783 521.892C272.911 520.795 272.126 519.801 271.028 519.672C265.604 519.037 260.595 518.33 256.003 517.551ZM237.079 513.053C233.179 511.76 229.09 510.182 224.811 508.318C224.717 508.277 224.619 508.244 224.52 508.219C223.53 507.972 222.528 508.574 222.281 509.564L222.124 510.196C221.828 511.381 222.433 512.607 223.554 513.094C227.792 514.933 231.939 516.488 235.993 517.76L237.079 513.053ZM225.41 506.942C233.494 510.464 240.877 512.951 247.56 514.404C254.268 515.862 262.148 517.122 271.203 518.182C273.123 518.407 274.497 520.147 274.272 522.067C274.255 522.215 274.228 522.362 274.192 522.507L274.094 522.9C273.598 524.888 271.679 526.181 269.65 525.892C261.232 524.695 253.369 523.366 246.06 521.904C238.674 520.427 230.973 517.949 222.957 514.47C221.163 513.691 220.195 511.73 220.668 509.833L220.826 509.201C221.273 507.408 223.089 506.316 224.883 506.763C225.063 506.808 225.239 506.868 225.41 506.942Z" fill="#F56843"/>
<path fill-rule="evenodd" clip-rule="evenodd" d="M136 425.896L143 422.896L150 437.396L143 441.896L136 425.896ZM159.5 431.396C157.633 431.396 155.755 431.088 154.5 429.896C153.157 428.621 152.5 426.395 152.5 424.396C152.5 422.797 153.097 420.575 154 419.396C155.279 417.727 157.234 417.396 159.5 417.396C161.518 417.396 163.223 417.531 164.5 418.896C165.67 420.148 166.5 422.548 166.5 424.396C166.5 426.704 165.723 429.121 164 430.396C162.837 431.257 161.058 431.396 159.5 431.396Z" fill="#FFD1D1"/>
<path d="M135.51 425.505L143.864 421.925L151.464 437.668L143.166 443.003L135.51 425.505ZM143.835 440.79L149.536 437.125L143.136 423.868L137.49 426.288L143.835 440.79ZM160 432.146C157.606 432.146 155.773 431.664 154.484 430.44C153.055 429.084 152.25 426.743 152.25 424.396C152.25 422.559 152.932 420.21 153.905 418.94C155.217 417.227 157.074 416.646 160 416.646C162.786 416.646 164.258 417.005 165.548 418.384C166.83 419.755 167.75 422.324 167.75 424.396C167.75 427.132 166.77 429.65 164.946 430.999C163.78 431.862 162.215 432.146 160 432.146ZM160 430.646C161.913 430.646 163.223 430.409 164.054 429.794C165.446 428.764 166.25 426.698 166.25 424.396C166.25 422.689 165.462 420.488 164.452 419.409C163.528 418.421 162.404 418.146 160 418.146C157.495 418.146 156.059 418.595 155.095 419.853C154.339 420.84 153.75 422.869 153.75 424.396C153.75 426.363 154.42 428.311 155.516 429.353C156.468 430.256 157.954 430.646 160 430.646Z" fill="#F56843"/>
<path d="M528 215.396H441C439.343 215.396 438 216.74 438 218.396C438 220.053 439.343 221.396 441 221.396H528C529.657 221.396 531 220.053 531 218.396C531 216.74 529.657 215.396 528 215.396Z" fill="white"/>
<path d="M441 215.396H528C529.657 215.396 531 216.74 531 218.396C531 220.053 529.657 221.396 528 221.396H441C439.343 221.396 438 220.053 438 218.396C438 216.74 439.343 215.396 441 215.396ZM441 216.896C440.172 216.896 439.5 217.568 439.5 218.396C439.5 219.225 440.172 219.896 441 219.896H528C528.828 219.896 529.5 219.225 529.5 218.396C529.5 217.568 528.828 216.896 528 216.896H441Z" fill="#F56843"/>
<path d="M310.253 626.135L270.756 548.617C270.192 547.51 268.837 547.07 267.73 547.634C266.623 548.198 266.182 549.553 266.747 550.66L306.244 628.178C306.808 629.285 308.163 629.725 309.27 629.161C310.377 628.597 310.817 627.242 310.253 626.135Z" fill="white" stroke="#F56843" stroke-width="1.5"/>
<path fill-rule="evenodd" clip-rule="evenodd" d="M286.117 426.705C283.268 429.119 269.916 418.868 267.06 417.659C265.525 417.01 264.807 415.239 265.456 413.704C266.052 412.296 267.605 411.556 269.073 411.98C277.845 414.512 282.79 416.349 283.908 417.489C286.742 420.381 288.966 424.29 286.117 426.705Z" fill="white"/>
<path fill-rule="evenodd" clip-rule="evenodd" d="M353.327 494.873L383.194 475.955C383.661 475.659 384.279 475.798 384.574 476.264C384.581 476.276 384.588 476.287 384.595 476.299L396.024 496.073C396.29 496.534 396.148 497.124 395.7 497.413L366.365 516.339C365.901 516.638 365.282 516.505 364.983 516.041C364.978 516.033 364.972 516.025 364.967 516.016L353.007 496.235C352.725 495.77 352.868 495.164 353.327 494.873Z" fill="white"/>
<path d="M351.922 495.176L383.3 475.569C383.768 475.276 384.385 475.419 384.678 475.887L397.396 496.24C397.689 496.709 397.546 497.326 397.078 497.618L365.7 517.225C365.232 517.518 364.615 517.376 364.322 516.907L351.604 496.554C351.311 496.086 351.454 495.469 351.922 495.176ZM353.141 496.183L365.329 515.688L395.859 496.611L383.671 477.106L353.141 496.183Z" fill="#F56843"/>
<path d="M359.48 495.482L379.833 482.764C380.301 482.471 380.918 482.613 381.211 483.082L389.69 496.651C389.982 497.119 389.84 497.736 389.372 498.029L369.018 510.747C368.55 511.039 367.933 510.897 367.64 510.429L359.162 496.86C358.869 496.391 359.012 495.774 359.48 495.482ZM368.648 509.21L388.153 497.021L380.204 484.301L360.699 496.489L368.648 509.21Z" fill="#F56843"/>
</svg>
