<svg width="1440" height="1428" viewBox="0 0 1440 1428" fill="none" xmlns="http://www.w3.org/2000/svg">
<g filter="url(#filter0_f_204_2)">
<path d="M901.304 343.446L490.496 152.139C333.728 79.135 151.554 85.2116 0 168.5V509L1441 473C1338.91 381.784 1203.54 337.017 1067.19 349.378L980.413 357.246C953.288 359.705 925.995 354.944 901.304 343.446Z" fill="url(#paint0_linear_204_2)"/>
<path d="M901.304 343.446L490.496 152.139C333.728 79.135 151.554 85.2116 0 168.5V509L1441 473C1338.91 381.784 1203.54 337.017 1067.19 349.378L980.413 357.246C953.288 359.705 925.995 354.944 901.304 343.446Z" stroke="black"/>
</g>
<rect y="491" width="1440" height="659" fill="url(#paint1_linear_204_2)"/>
<path d="M173.578 373.566L0.5 450V581L113.111 545.821C226.554 510.383 347.887 508.91 462.156 541.585C552.813 567.507 648.251 572.027 740.952 554.787L910.878 523.185C1015.95 503.645 1124.07 507.945 1227.26 535.77L1349.55 568.744C1379.41 576.797 1410.77 577.571 1441 571V439.5L1272 386.951C1133.71 343.953 987.088 334.96 844.582 360.736L717.089 383.797C592.434 406.345 464.424 402.324 341.431 371.997L302.254 362.337C259.3 351.745 214.047 355.695 173.578 373.566Z" fill="url(#paint2_linear_204_2)"/>
<path d="M318.105 860.89L1 929.904V1428L259.83 1382.18C305.32 1374.13 351.708 1372.42 397.667 1377.11L726.17 1410.58C839.318 1422.11 953.603 1414.25 1064.11 1387.35L1445 1294.61V998.348L1404.93 983.215C1355.25 964.447 1302.89 953.716 1249.82 951.425L1095.74 944.773C1082.18 944.187 1068.71 942.223 1055.55 938.91L774.84 868.259C625.203 830.598 468.88 828.075 318.105 860.89Z" fill="#27224B"/>
<defs>
<filter id="filter0_f_204_2" x="-100.5" y="0.907928" width="1642.77" height="608.605" filterUnits="userSpaceOnUse" color-interpolation-filters="sRGB">
<feFlood flood-opacity="0" result="BackgroundImageFix"/>
<feBlend mode="normal" in="SourceGraphic" in2="BackgroundImageFix" result="shape"/>
<feGaussianBlur stdDeviation="50" result="effect1_foregroundBlur_204_2"/>
</filter>
<linearGradient id="paint0_linear_204_2" x1="244.5" y1="454.5" x2="403" y2="-2" gradientUnits="userSpaceOnUse">
<stop stop-color="#CA6868"/>
<stop offset="1" stop-color="#D8C9C9" stop-opacity="0.93"/>
</linearGradient>
<linearGradient id="paint1_linear_204_2" x1="720" y1="491" x2="720" y2="1150" gradientUnits="userSpaceOnUse">
<stop stop-color="#352F81"/>
<stop offset="1" stop-color="#292655"/>
</linearGradient>
<linearGradient id="paint2_linear_204_2" x1="720.75" y1="321.5" x2="720.75" y2="581" gradientUnits="userSpaceOnUse">
<stop stop-color="#C4A1F2"/>
<stop offset="1" stop-color="#3A1E60"/>
</linearGradient>
</defs>
</svg>
