<svg width="1438" height="996" viewBox="0 0 1438 996" fill="none" xmlns="http://www.w3.org/2000/svg">
<rect x="377" y="307" width="1060" height="225" fill="url(#paint0_linear_9_132)"/>
<path d="M954.641 442.878L871.759 469.702L1099.49 553.934L1437.01 578V486.749C1388.05 497.843 1336.86 493.556 1290.43 474.474L1240.3 453.871C1149.38 416.507 1048.16 412.611 954.641 442.878Z" fill="url(#paint1_linear_9_132)"/>
<path d="M754.47 173.62L540.52 97.3366C364.851 34.7017 172.148 39.7512 0 111.5V349.5L223.099 331.072C276.035 326.699 329.254 327.021 382.133 332.035L555.932 348.512C622.444 354.818 689.452 353.698 755.717 345.173L833.968 335.105C994.755 314.42 1158.14 337.547 1306.87 402.043L1328.66 411.49C1353.77 422.381 1380.86 428 1408.23 428H1437V264C1340.05 218.819 1232.79 200.315 1126.31 210.398L1082.61 214.535C971.554 225.05 859.543 211.084 754.47 173.62Z" fill="url(#paint2_linear_9_132)"/>
<path d="M211.118 899.381L0 974.5V442L1437.01 636.5V839H1289.72C1198.58 839 1108.09 854.383 1022.08 884.501L872.423 936.899C764.391 974.724 645.727 967.841 542.793 917.779C439.183 867.387 319.666 860.758 211.118 899.381Z" fill="url(#paint3_linear_9_132)"/>
<path d="M115.871 299.746L0 319.5V529C76.6662 476.698 175.386 469.189 259.081 509.294L474.809 612.668C563.564 655.198 666.224 657.953 757.132 620.243C843.791 584.296 941.327 585.049 1027.42 622.331L1070.54 641.002C1142.45 672.144 1221.16 684.275 1299.12 676.23L1437.01 662V539C1313.91 562.408 1186.57 546.589 1072.93 493.773L932.449 428.476C871.475 400.135 802.259 395.003 737.772 414.041C658.702 437.385 573.596 428.357 501.182 388.945L434.715 352.768C337.399 299.802 225.091 281.125 115.871 299.746Z" fill="url(#paint4_linear_9_132)"/>
<defs>
<linearGradient id="paint0_linear_9_132" x1="817.92" y1="317.5" x2="1342.96" y2="583.004" gradientUnits="userSpaceOnUse">
<stop stop-color="#BCD2EA"/>
<stop offset="1" stop-color="#DAE3ED"/>
</linearGradient>
<linearGradient id="paint1_linear_9_132" x1="1154.38" y1="396" x2="1376.42" y2="623.923" gradientUnits="userSpaceOnUse">
<stop stop-color="#FCB443"/>
<stop offset="1" stop-color="#FFD899"/>
</linearGradient>
<linearGradient id="paint2_linear_9_132" x1="718.5" y1="0" x2="718.5" y2="428" gradientUnits="userSpaceOnUse">
<stop stop-color="#1C446A"/>
<stop offset="1" stop-color="#ADC4DA"/>
</linearGradient>
<linearGradient id="paint3_linear_9_132" x1="368.706" y1="666.5" x2="286.853" y2="1007.32" gradientUnits="userSpaceOnUse">
<stop stop-color="#DB084F"/>
<stop offset="1" stop-color="#D5839E"/>
</linearGradient>
<linearGradient id="paint4_linear_9_132" x1="869.769" y1="309" x2="937.08" y2="752.404" gradientUnits="userSpaceOnUse">
<stop stop-color="#F0233C"/>
<stop offset="1" stop-color="#D8566D"/>
</linearGradient>
</defs>
</svg>
